<svg xmlns="http://www.w3.org/2000/svg" viewBox="-125 281.6 539.8 204.9" enable-background="new -125 281.6 539.8 204.9"><style type="text/css">.st0{fill:#FFFFFF;}</style><path d="M-101 340.1h4l-22.4-50.3h5.3l22.5 50.6h62.1l-7.6-17.5h9.8l7.4 17.5h54.5L8 281.6h-53l13.9 32.1h-9.5l-14.6-32.1h-62.6l2 4.5h-9.2l24 54zm163.3 61.1H-64.5l.9 2 16.6 14.4 6.9 9.7 21.9 6.2 1.6 7.5 9.5 4.4 5.7 6.2L.8 464l7.1 1.6 2.9 12.8 18.5-.3-13.5-31h9.5l13.4 31.3 49.1-.2 2 4.5-82.2.3-2.8-12.5-7.1-1.6-2-11.6-6.4-6.9-9-4.1-1.6-7.8-22.2-6.4-6.6-9.4-16.5-14.3-3.2-7.1h-4l4.1 9.4 16.9 14.4 7.1 10.1 21.4 6 1.5 7.3 10.1 4.7 5.1 5.6 2.4 13.1 7.1 1.5 3 13.1 90.7-.3-3.7-8.1h5.3l-34.9-76.9zm-51 36.7l-14.1-32.5h9.7l13.9 32.5h-9.5zm-84.7-49.7l-2.1-.4c-2.1-.4-2.6-1.7-3.8-5l-7.7-22.2c-1.4-4.1-2.1-6.1-2.6-7.8-.3-.9-.6-1.1-1.3-1.1-.1 0-2.2 2.8-4.9 3.4.2 1.6-.9 3.6-2.2 7.1l-5.1 13.9c-1.6 4.1-2.5 6.8-3.5 9.1-.9 2.2-2.1 2.6-3.4 2.8l-1.5.2c-.4.4-.4 1.6.2 1.9 2.6 0 3.9-.2 5.8-.2 2.4.1 4.7.1 6.6.2.5-.3.4-1.6.1-1.9l-1.7-.3c-1.6-.3-2-.6-2-1s0-.9.4-2l2.1-6.5c.4-1.1.5-1.1 1.9-1.1v-.2h6.4c2 0 2.5.2 2.7 1.1l1.5 4.9c.7 2.1 1.1 3.4 1.1 3.9 0 .4-.2.7-1.5 1l-1.9.3c-.6.4-.5 1.6.1 1.9 2.6-.1 4.9-.2 7.7-.2 3 0 6 .1 8.7.2.4-.4.3-1.8-.1-2zm-18.8-14h-4.9c-1.4 0-1.7-.2-1.1-1.7l1.4-4.2c.8-2.6 1.8-5 2.3-6.3.5 1.1 1.2 3.4 2 5.9l1.5 4.6c.5 1.5.2 1.7-1.2 1.7zm68.6-20.3l1.7-.3c.4-.5.4-1.6-.2-1.9-2 .1-4.7.2-6.5.2s-3.5.1-6.1-.2c-1.2 4.9-2.5 7.5-5.2 13.3l-2.9 6.3c-1.5 3.4-2.5 5.1-3.2 6.4-.8-1.4-2.6-4.6-3.1-5.7l-3.7-7.9c-2.6-5.3-4.5-8.7-4.5-12.3-2 .2-3.7.2-5.6.2-2.8 0-5.2-.1-7.1-.2-.6.1-.6 1.5-.2 1.9l1.2.2c2.3.5 3.5 1.2 3.5 4.5 0 3.1-.1 7.7-.4 11.5-.4 5.4-.6 10.3-.9 13.1-.3 3.4-.4 3.8-3.4 4.3l-1.1.2c-.4.3-.4 1.7.3 1.9 2.2-.1 4.5-.2 6.4-.2 2.2 0 4.6.1 6.7.2.4-.3.5-1.6.1-1.9l-2.2-.4c-2.2-.4-2.6-1.1-2.6-4 0-3.4 0-9 .1-12.7 0-2.9.1-5.1.4-8.8h.1c3.2 7.4 9.9 21.1 12.1 28.2.4.3 1 .4 1.5.4.4 0 .9-.1 1.1-.4 3.7-9.5 8.3-19 12.4-28.1h.1v6.4l.3 14.5c0 3.4 0 4-2.6 4.5l-1.7.3c-.5.4-.5 1.7.2 1.9 2.7-.1 5.8-.2 8.4-.2 2.7 0 5.2.1 7.8.2.5-.2.5-1.5.1-1.9l-1.7-.3c-2.2-.4-2.5-1.7-2.6-4.2-.4-7.1-.4-13.2-.4-24.9 0-3 1.1-3.6 3.4-4.1zm19 .2l1.7-.4c.3-.5.4-1.6-.1-1.9-3.4.1-5.8.2-8.5.2-2.9 0-4.8-.1-7.7-.2-.5.3-.7 1.3-.3 1.9l1.6.4c2.7.7 2.6.4 4.9 6.2l9.3 23c.8 1.9 1.8 4.9 2.4 6.4.4.3.8.4 1.5.4.8 0 1.5-.2 1.9-.4 1.3-3.2 2.8-7.6 5.7-14.5l4.2-9.7c1.9-4.6 3.4-7.7 4.7-9.5.7-1.1 1.5-1.6 3.1-1.9l1.5-.3c.4-.4.4-1.7-.1-1.9-1.7.1-3.4.2-5.3.2-2.1 0-4.3-.1-7-.2-.7.3-.7 1.5-.3 1.9l1.7.4c1.3.3 1.5.5 1.5 1 0 .4-.1 1-.5 2-.7 1.9-3 8.3-4.5 11.8l-2.1 5.3c-.7 1.7-1.4 3.2-1.9 4.1-.4-1-1-2.2-1.8-4.3l-4.9-12.7c-1.4-3.4-2.3-5.8-2.3-6.3.2-.5.5-.7 1.6-1zm28.3-2.3c-.4.3-.4 1.6 0 1.9l1.6.3c2.6.4 2.9.9 2.9 6.2V381c0 5.3-.4 5.7-2.9 6.2l-1.6.3c-.4.3-.4 1.6 0 1.9 3-.1 5.8-.2 8.6-.2 2.6 0 5.4.1 8.5.2.4-.3.5-1.6.1-1.9l-1.6-.3c-2.6-.4-2.9-.9-2.9-6.2v-20.8c0-5.3.4-5.7 2.9-6.2l1.6-.3c.4-.3.4-1.6 0-1.9-3.1.1-5.9.2-8.6.2-2.7 0-5.5-.1-8.6-.2zm27 34.9c4.1 3 9.7 4.3 15.3 4.3 4.4 0 8.4-1.2 11.5-2.1.8-1.3 1.7-4.8 2.1-8.9-.3-.6-1.7-.8-2.1-.4-1.5 3.8-4.7 8.7-11.6 8.7-6.8 0-13.3-6-13.3-17.3s6.8-16.7 13.1-16.7c5.6 0 9.2 2.8 10.7 8.1.4.5 1.9.4 2.1-.4-.5-3.3-.7-7.8-.7-8.8-1.7-.2-5.8-1.5-11.6-1.5-5.9 0-11.6 1.7-15.7 5-4 3.3-6.9 8.1-6.9 15 0 7.1 3 11.9 7.1 15zm94.6-4.5c-1.6-.5-3.4-.7-5.2-.7-2.4 0-4.1.1-6 .2-.3 0-.3.7-.1.8l.4.1c1.1.1 1.1.5 1.1 2.6v7.9h.1c0 2-.2 2.2-1.1 2.4l-.7.1c-.2.1-.2.6 0 .8 1.2-.1 2.4-.1 3.5-.1.8 0 1.9.2 3 .2 2.3 0 4.1-.3 5.6-1.1 2.6-1.2 4-3.7 4-6.7 0-2.7-1.6-5.4-4.6-6.5zm-4.2 13.4c-.8 0-1.4-.2-1.9-.6-.4-.4-.4-1.2-.4-2.5v-8.3c0-.7 0-1.1.2-1.3s.5-.3 1.1-.3c4.1 0 6.2 2.4 6.2 6.4 0 3.1-1.3 6.6-5.2 6.6zm-10.6-13.9c-.9 0-1.8 0-3-.1-.2.2-.2.6 0 .8l.6.1c.6.1 1.1.3 1.3.7.3.6.4 2.3.4 4.1v3.1c0 .4 0 .8-.1 1-.5-.5-1.1-1.3-2.1-2.5l-1.9-2.2c-2-2.4-3.4-4.1-3.7-5.1-.4.1-1.1.1-1.9.1-.9 0-2 0-3.1-.1-.3.1-.3.6-.1.8l.6.1c.8.1 1.1.4 1.2.8.2.4.2.7.2 1.9v5.6c0 1.9-.1 3.5-.4 4.1-.2.4-.6.6-1.2.7l-.4.1c-.2.2-.2.6 0 .8.9-.1 1.7-.1 2.5-.1.9 0 1.8 0 3 .1.2-.2.2-.6 0-.8l-.6-.1c-.6-.1-1.1-.3-1.3-.7-.3-.6-.4-2.3-.4-4.1v-4.3c0-.8 0-1.2.1-1.4.4.4 1.1 1.2 2.5 2.8l5.2 6.4c1.1 1.3 1.8 2.5 1.9 2.5.5 0 1.1-.3 1.3-.5-.1-.7-.1-2.1-.1-3.6v-5.4h-.2c0-1.9.1-3.5.4-4.1.2-.4.6-.6 1.2-.7l.4-.1c.2-.2.2-.6 0-.8-.7.1-1.5.1-2.3.1zm-17.8-1.7c0-3 .2-3.3 1.7-3.5l.9-.2c.3-.2.3-1 0-1.1-1.8.1-3.4.1-4.9.1s-3.2 0-4.9-.1c-.3.2-.3 1 0 1.1l.9.2c1.5.3 1.7.4 1.7 3.5v11.7c0 3-.2 3.3-1.7 3.5l-.9.2c-.3.2-.3 1 0 1.1 1.8-.1 3.4-.1 4.9-.1s3.1 0 4.8.1c.3-.2.3-1 0-1.1l-.9-.2c-1.5-.3-1.7-.4-1.7-3.5l.1-11.7zm52 1.7c-.9 0-1.8 0-3-.1-.2.2-.2.6 0 .8l.6.1c.6.1 1.1.3 1.3.7.3.6.4 2.3.4 4.1v2.7c0 3.1-.9 5.6-3.7 5.6-3.4 0-3.7-2.9-3.7-5.5v-5.2c0-2.1.2-2.3 1.1-2.5l.5-.1c.2-.2.2-.6 0-.8-1.1.1-2.2.1-3.3.1-1.1 0-2.2 0-3.3-.1-.3.2-.3.6-.1.8l.5.1c1 .2 1.1.4 1.1 2.4v5.6h-.1c0 2.5.5 4.1 1.7 5 1.2 1 2.7 1.2 4.4 1.2 1.9 0 3.4-.5 4.4-1.6 1.2-1.3 1.4-3.3 1.4-5.4v-2.5c0-1.9.1-3.5.4-4.1.2-.4.6-.6 1.2-.7l.4-.1c.2-.2.2-.6 0-.8-.6.3-1.4.3-2.2.3zm10.2 6l-1.5-.8c-1.1-.6-2-1.5-2-2.6s.8-2.1 2.3-2.1c1.6 0 2.6 1.7 2.9 2.7.2.3.8.2.9-.1 0-1.5-.3-2.7-.4-3.2-.3-.1-.4-.1-.8-.2-.9-.3-1.9-.4-2.6-.4-3.3 0-5.2 1.8-5.2 4.2 0 2.2 1.8 3.5 3.4 4.3 1.3.7 3.1 1.8 3.1 3.5 0 1.1-.8 2.3-2.4 2.3-1.9 0-3.4-2-3.9-3.5-.2-.3-.7-.3-.9.1 0 1.5.3 3.2.7 3.6.4.3 1.8.9 3.8.9 3.6.2 5.8-1.7 5.8-4.4-.1-2.3-1.8-3.6-3.2-4.3zm83.7-6.4c-4.7 0-8 3.4-8 7.9 0 4.7 3.3 7.7 7.8 7.7 4.9 0 8.1-2.9 8.1-7.9 0-4.5-3.2-7.7-7.9-7.7zm.3 14.5c-3.6 0-4.6-4.4-4.6-7.1 0-3.7 1.5-6.4 4.2-6.4s4.4 3.1 4.4 7c0 3.6-1.1 6.5-4 6.5zm22.4-14.1c-.9 0-1.8 0-3-.1-.2.2-.2.6 0 .8l.6.1c.6.1 1.1.3 1.3.7.3.6.4 2.3.4 4.1v2.7c0 3.1-.9 5.6-3.7 5.6-3.4 0-3.7-2.9-3.7-5.5v-5.2c0-2.1.2-2.3 1.1-2.5l.5-.1c.2-.2.2-.6 0-.8-1.1.1-2.2.1-3.3.1-1.1 0-2.2 0-3.3-.1-.3.2-.3.6 0 .8l.5.1c1 .2 1.1.4 1.1 2.4v5.6h-.2c0 2.5.5 4.1 1.7 5 1.2 1 2.7 1.2 4.4 1.2 1.9 0 3.4-.5 4.4-1.6 1.2-1.3 1.4-3.3 1.4-5.4v-2.5c0-1.9.1-3.5.4-4.1.2-.4.6-.6 1.2-.7l.4-.1c.2-.2.2-.6 0-.8-.6.3-1.4.3-2.2.3zm16.9 0c-.9 0-1.8 0-3-.1-.2.2-.2.6 0 .8l.6.1c.6.1 1.1.3 1.3.7.3.6.4 2.3.4 4.1v3.1c0 .4 0 .8-.1 1-.5-.5-1.1-1.3-2.1-2.5l-1.9-2.2c-2-2.4-3.4-4.1-3.7-5.1-.4.1-1.1.1-1.9.1-.9 0-2 0-3.1-.1-.3.1-.3.6-.1.8l.6.1c.8.1 1.1.4 1.2.8.2.4.2.7.2 1.9v5.6c0 1.9-.1 3.5-.4 4.1-.2.4-.6.6-1.2.7l-.4.1c-.2.2-.2.6 0 .8.9-.1 1.7-.1 2.5-.1.9 0 1.8 0 3 .1.2-.2.2-.6 0-.8l-.6-.1c-.6-.1-1.1-.3-1.3-.7-.3-.6-.4-2.3-.4-4.1v-4.3c0-.8 0-1.2.1-1.4.4.4 1.1 1.2 2.5 2.8l5.2 6.4c1.1 1.3 1.8 2.5 1.9 2.5.5 0 1.1-.3 1.3-.5 0-.7 0-2.1 0-3.6v-5.4h-.3c0-1.9.1-3.5.4-4.1.2-.4.6-.6 1.2-.7l.4-.1c.2-.2.2-.6 0-.8-.8.1-1.5.1-2.3.1zm24.8.7l.6-.1c.2-.2.2-.6 0-.8-1.2.1-2.3.1-3.4.1s-2.2 0-3.4-.1c-.2.2-.2.6 0 .8l.6.1c1.1.2 1.1.4 1.1 2.5v8.2c0 2.1-.2 2.3-1.1 2.5l-.6.1c-.2.2-.2.6 0 .8 1.2-.1 2.3-.1 3.4-.1s2.1 0 3.4.1c.2-.2.2-.6 0-.8l-.6-.1c-1.1-.2-1.1-.4-1.1-2.5v-8.2c0-2.1.1-2.3 1.1-2.5zm-74.8 8.1c-.9 2.2-2.6 4.9-6.5 4.9s-7.5-3.4-7.5-9.8 3.8-9.4 7.3-9.4c3.1 0 5.1 1.6 6 4.6.3.3 1.1.2 1.2-.3-.3-1.9-.4-4.4-.4-5-1 0-3.4-.7-6.6-.7-3.4 0-6.6 1-8.8 2.8-2.2 1.9-3.9 4.6-3.9 8.5 0 4 1.8 6.6 4.1 8.4 2.3 1.7 5.5 2.5 8.6 2.5 2.5 0 4.8-.7 6.5-1.1.4-.7 1-2.6 1.2-5-.1-.4-.9-.5-1.2-.4zm88.6 2.2c-1.3 2.6-1.9 2.6-4 2.6-1.7 0-2-.2-2.3-.5-.3-.4-.4-1.1-.4-2.1v-7.8c0-2.1.2-2.3 1.1-2.4l.6-.1c.2-.2.2-.6 0-.8-1.1.1-2.2.1-3.4.1-1.1 0-2.2 0-3.4-.1-.3.2-.3.6-.1.8l.6.1c1 .2 1.1.4 1.1 2.4v8.3c0 2.1-.2 2.3-1.1 2.4l-.9.1c-.2.2-.2.6.1.8 1.4-.1 2.5-.1 3.5-.1h3c1.9 0 4 0 5.2.1.4-.6.9-2.5 1-3.6.1-.3-.4-.4-.6-.2zm-144-11.7c-.2 0-.2 0-.3.1-.2.4-.5.5-2 .5h-8.4c-1.7 0-1.8-.1-1.9-.4-.1-.1-.2-.1-.4-.1-.1 0-.3.1-.4.1-.2.9-.3 2.3-.7 3.8.2.3.5.4.8.2.7-1.7 1.1-2.6 2.7-2.6h1.4c.5 0 .5.1.5.6v10h.1c0 2.1-.2 2.3-1.1 2.4l-1 .1c-.2.2-.2.6 0 .8 1.6-.1 2.7-.1 3.8-.1 1 0 2.1 0 3.6.1.2-.2.2-.6 0-.8l-.9-.1c-1-.2-1.1-.4-1.1-2.4v-9.9c0-.6.1-.6.6-.6h1.3c1.7 0 2 1.1 2.4 2.5.1.2.7.2.8-.1-.1-1.2.1-3.1.4-3.9.1-.1 0-.2-.2-.2zM315 392.2c-.6 1.5-1.9 3.4-4.6 3.4-2.6 0-5.3-2.4-5.3-6.9 0-4.4 2.6-6.6 5.1-6.6 2.2 0 3.6 1.1 4.2 3.2.2.2.8.1.9-.2-.2-1.3-.3-3.1-.3-3.5-.6.2-2.3-.4-4.6-.4s-4.6.7-6.2 2c-1.5 1.2-2.7 3.2-2.7 5.9s1.2 4.7 2.8 5.8c1.6 1.1 3.8 1.7 6 1.7 1.8 0 3.4-.5 4.6-.8.4-.5.7-1.9.9-3.5-.1-.2-.6-.3-.8-.1zm-108.1 2.9c-1.1-.9-2-2.6-3.4-5.6-.1-.3-.1-.4.1-.5 1.1-.5 2.4-1.3 2.4-3.4 0-1.4-.7-2.6-1.9-3.4-.9-.5-2.5-.8-4.4-.8-2.1 0-3.9.1-5.6.2-.3.1-.3.7 0 .8l.6.1c1 .2 1 .4 1 2.6v7.9h.1c0 2-.2 2.2-1.1 2.4l-.6.1c-.2.1-.2.6 0 .8 1.1-.1 2.1-.1 3.3-.1 1.1 0 2.1 0 3.3.1.2-.2.2-.7 0-.8l-.6-.1c-1-.2-1.1-.4-1.1-2.4v-2.7c0-.4 0-.5.8-.5.5 0 .9.2 1.1.8.5 1.1 1.1 2.3 1.8 3.4 1 1.6 2.3 2.4 4.3 2.4.7 0 1.4 0 1.8-.2.1-.2.1-.4-.1-.6-.6.1-1.2 0-1.8-.5zm-5-6.8c-.4.4-.9.6-1.7.6-1.3 0-1.4-.1-1.4-.9v-4.3c0-1.1 0-1.1 1-1.1 1.8 0 2.9 1.3 2.9 3.4 0 1.3-.5 2-.8 2.3zm19.2-6.8c-.6.1-1.3.1-2.2.1-.8 0-1.6 0-2.5-.1-.3.1-.2.7 0 .8l.5.1c.5.1.8.2.8.4 0 .3-.4 1-1.1 2.6-.6 1.1-1.2 2.5-1.9 3.5-.3-.5-.7-1.4-1.1-2.2l-1.1-2.4c-.4-1.1-.6-1.4-.6-1.6 0 0 .2-.1.5-.2l.8-.2c.2-.2.2-.7 0-.8-.8.1-1.9.1-3.3.1-1.3 0-2.1 0-3.2-.1-.3.1-.3.6-.1.8l.8.2c.8.2 1 .5 1.4 1.4l2.6 5.5c.6 1.1.6 1.6.6 2.6v1.1c0 2.1-.2 2.2-1.1 2.4l-.8.1c-.2.2-.2.6 0 .8 1.3-.1 2.5-.1 3.5-.1 1.1 0 2.2 0 3.6.1.2-.2.2-.6 0-.8l-.9-.1c-1-.2-1.1-.4-1.1-2.4v-1.6h-.1c0-1.2.3-1.9.8-2.9l1.4-2.6c1.1-1.9 1.7-2.7 1.9-3.2.3-.4.7-.4 1.1-.5l.6-.1c.5 0 .5-.6.2-.7zm-63.9-13.1h2.9c1.9 0 4 0 5.2.1.4-.6.9-2.4 1-3.6-.1-.3-.6-.4-.8-.1-1.2 2.6-2 2.6-4 2.6-1.7 0-2-.2-2.4-.6-.3-.4-.4-1.1-.4-2.1v-2.6c0-.7 0-.7.6-.7h1.5c1.1 0 1.4.2 1.7 1.2l.1.5c.2.2.7.2.8 0-.1-.7-.1-1.5-.1-2.4s0-1.7.1-2.4c-.1-.2-.7-.2-.8 0l-.1.5c-.3 1.1-.5 1.2-1.7 1.2h-1.5c-.6 0-.6-.1-.6-.7v-3.9h.1c0-.8 0-.9.7-.9h1.8c1.1 0 1.8.3 2.2.7.3.4.6 1 .9 1.8.3.2.7.2.8-.1-.1-1.5-.3-3.1-.3-3.4-.3 0-1.6.1-3 .1h-4.8c-1.1 0-2.2 0-3.3-.1-.3.2-.3.6-.1.8l.5.1c1 .2 1.1.4 1.1 2.4v8.4c0 2-.2 2.2-1.1 2.4l-1.1.2c-.2.1-.2.6 0 .8 1.9-.2 3-.2 4.1-.2zm125.5.3c4.9 0 8.1-2.9 8.1-7.9.1-4.6-3.2-7.7-7.9-7.7s-8 3.4-8 7.9c0 4.7 3.3 7.7 7.8 7.7zm.2-14.6c2.7.1 4.4 3.2 4.4 7 0 3.6-1.1 6.5-4.1 6.5-3.6 0-4.6-4.4-4.6-7.1.1-3.8 1.6-6.4 4.3-6.4zM181.1 357c.7-1.7 1.1-2.6 2.7-2.6h1.4c.5 0 .5.1.5.6v10c0 2.1-.2 2.3-1.1 2.4l-1 .1c-.2.2-.2.6 0 .8 1.6-.1 2.7-.1 3.8-.1 1 0 2.1 0 3.6.1.2-.2.2-.6 0-.8l-.9-.1c-1-.2-1.1-.4-1.1-2.4v-9.9c0-.6.1-.6.6-.6h1.3c1.7 0 2 1.1 2.4 2.5.1.2.7.2.8-.1-.1-1.2.1-3.1.4-3.9 0-.1-.2-.2-.4-.2s-.2 0-.3.1c-.2.4-.5.5-2 .5h-8.3c-1.7 0-1.8-.1-1.9-.4-.1-.1-.2-.1-.4-.1-.1 0-.3 0-.4.1-.2.9-.3 2.3-.7 3.8.4.3.8.4 1 .2zm71.1 11.7c4.9 0 8.1-2.9 8.1-7.9 0-4.6-3.3-7.7-7.9-7.7-4.7 0-8 3.4-8 7.9 0 4.7 3.3 7.7 7.8 7.7zm.1-14.6c2.7.1 4.4 3.2 4.4 7 0 3.6-1.1 6.5-4.1 6.5-3.6 0-4.6-4.4-4.6-7.1 0-3.8 1.5-6.4 4.3-6.4zm-84.5 13.3l-.6.1c-.2.1-.2.6 0 .8 1.1-.1 2.1-.1 3.3-.1 1.1 0 2.1 0 3.3.1.2-.2.2-.7 0-.8l-.6-.1c-1-.2-1.1-.4-1.1-2.4v-2.7c0-.4.1-.5.8-.5.5 0 .9.2 1.1.8.5 1.1 1.1 2.3 1.8 3.4 1 1.6 2.3 2.4 4.3 2.4.7 0 1.4 0 1.8-.2.1-.2.1-.4-.1-.6-.4 0-.9-.2-1.5-.6-1.1-.9-2-2.6-3.4-5.6-.1-.3-.1-.4.1-.5 1.1-.5 2.4-1.3 2.4-3.4 0-1.4-.7-2.6-1.9-3.4-.9-.5-2.5-.8-4.4-.8-2.1 0-3.9.1-5.6.2-.3.1-.3.7 0 .8l.6.1c1 .2 1 .4 1 2.6v7.9h.1c-.2 2.2-.4 2.3-1.4 2.5zm4.2-11.8c0-1.1.1-1.1 1-1.1 1.8 0 2.9 1.3 2.9 3.4 0 1.3-.4 2-.8 2.4s-.9.6-1.7.6c-1.3 0-1.4-.1-1.4-.9v-4.4zm20.8 11.8l-.6.1c-.2.2-.2.6.1.8 1.1 0 1.6-.1 2.3-.1 1 0 1.9 0 2.6.1.3-.1.2-.6 0-.8l-.7-.1c-.6-.1-.8-.3-.8-.4 0-.2 0-.4.2-.8l.8-2.6c.2-.4.2-.4.7-.4h2.7v-.1c.8 0 1 0 1.1.4l.6 1.9c.3.8.4 1.3.4 1.5s-.1.3-.6.4l-.7.1c-.3.2-.2.6 0 .8 1.1-.1 1.9-.1 3-.1s2.4 0 3.4.1c.2-.2.2-.7 0-.8l-.9-.2c-.8-.2-1.1-.6-1.5-2l-3.1-8.7c-.5-1.6-.8-2.4-1-3.1-.1-.4-.3-.4-.5-.4 0 0-.9 1.1-1.9 1.3.1.6-.4 1.4-.9 2.8l-2 5.5c-.6 1.6-1 2.6-1.4 3.6-.3 1-.8 1.1-1.3 1.2zm4.8-6.1l.5-1.7c.4-1.1.7-1.9.9-2.5.2.4.5 1.4.8 2.4l.6 1.9c.2.6.1.6-.4.6h-2c-.5 0-.7-.1-.4-.7zm166 6.2c-1.1-.2-1.1-.4-1.1-2.4v-8.3c0-2.1.2-2.3 1.1-2.5l.4-.1c.2-.2.2-.6 0-.8-1.1.1-2 .1-3.2.1-1.1 0-2.2 0-3.4-.1-.2.2-.2.6 0 .8l.6.1c1.1.2 1.1.4 1.1 2.4v2.6c0 .6 0 .7-1 .7h-4.7c-.9 0-1 0-1-.7v-2.6c0-2.1.2-2.3 1.1-2.5l.4-.1c.2-.2.2-.6 0-.8-1 .1-2.1.1-3.1.1-1.1 0-2.2 0-3.4-.1-.2.2-.2.6 0 .8l.5.1c1.1.2 1.1.4 1.1 2.5v8.3c0 2.1-.1 2.3-1.1 2.5l-.5.1c-.2.2-.2.6 0 .8 1.1-.1 2.3-.1 3.4-.1 1 0 2.1 0 3.4.1.2-.2.2-.6 0-.8l-.7-.1c-1-.2-1.1-.4-1.1-2.4v-3.3c0-.6 0-.6 1-.6h4.8v-.1c1 0 1 0 1 .6v3.3c0 2.1-.1 2.3-1.1 2.5l-.5.1c-.2.2-.2.6 0 .8 1.1-.1 2.2-.1 3.3-.1 1.1 0 2.1 0 3.3.1.2-.2.2-.6 0-.8l-.6-.1zm8.3-13.2l.6-.1c.2-.2.2-.6 0-.8-1.2.1-2.3.1-3.4.1s-2.2 0-3.4-.1c-.2.2-.2.6 0 .8l.6.1c1.1.2 1.1.4 1.1 2.5v8.2c0 2.1-.2 2.3-1.1 2.5l-.6.1c-.2.2-.2.6 0 .8 1.2-.1 2.3-.1 3.4-.1s2.1 0 3.4.1c.2-.2.2-.6 0-.8l-.6-.1c-1.1-.2-1.1-.4-1.1-2.5v-8.2c0-2.2.2-2.4 1.1-2.5zm15.7 9.8c-.6 1.5-1.9 3.4-4.6 3.4-2.6 0-5.3-2.4-5.3-6.9 0-4.4 2.6-6.6 5.1-6.6 2.2 0 3.6 1.1 4.2 3.2.2.2.8.1.9-.2-.2-1.3-.3-3.1-.3-3.5-.6.2-2.3-.4-4.6-.4s-4.6.7-6.2 2c-1.6 1.2-2.7 3.2-2.7 5.9s1.2 4.7 2.8 5.8c1.6 1.1 3.8 1.7 6 1.7 1.8 0 3.4-.5 4.6-.8.4-.5.7-1.9.9-3.5-.1-.2-.6-.3-.8-.1zm-41.5.7c-1.2 2.6-2 2.6-4 2.6-1.7 0-2-.2-2.4-.6-.3-.4-.4-1.1-.4-2.1v-2.6c0-.7 0-.7.6-.7h1.6c1.1 0 1.4.2 1.7 1.2l.1.5c.2.2.7.2.8 0 0-.7-.1-1.5-.1-2.4s0-1.7.1-2.4c-.1-.2-.7-.2-.8 0l-.1.5c-.3 1.1-.5 1.2-1.7 1.2H340c-.6 0-.6-.1-.6-.7v-3.9c0-.8 0-.9.7-.9h1.8c1.1 0 1.8.3 2.2.7.3.4.6 1 .9 1.8.3.2.7.2.8-.1-.1-1.5-.3-3.1-.3-3.4-.3 0-1.6.1-3 .1h-4.8c-1.1 0-2.2 0-3.3-.1-.3.2-.3.6-.1.8l.5.1c1 .2 1.1.4 1.1 2.4v8.4c0 2-.2 2.2-1.1 2.4l-1.1.2c-.2.1-.2.6 0 .8 1.7-.1 2.7-.1 3.9-.1h2.9c1.9 0 4 0 5.2.1.4-.6.9-2.4 1-3.6.1-.4-.4-.5-.6-.2zm68.1 0c-1.2 2.6-2 2.6-4 2.6-1.7 0-2-.2-2.4-.6-.3-.4-.4-1.1-.4-2.1v-2.6c0-.7 0-.7.6-.7h1.6c1.1 0 1.4.2 1.7 1.2l.1.5c.2.2.7.2.8 0 0-.7-.1-1.5-.1-2.4s0-1.7.1-2.4c-.1-.2-.7-.2-.8 0l-.1.5c-.3 1.1-.5 1.2-1.7 1.2H408c-.6 0-.6-.1-.6-.7v-3.9h.1c0-.8 0-.9.7-.9h1.8c1.1 0 1.8.3 2.2.7.3.4.6 1 .9 1.8.3.2.7.2.8-.1-.1-1.5-.3-3.1-.3-3.4-.3 0-1.6.1-3 .1h-4.8c-1.1 0-2.2 0-3.3-.1-.3.2-.3.6-.1.8l.5.1c1 .2 1.1.4 1.1 2.4v8.4c0 2-.2 2.2-1.1 2.4l-1.1.2c-.2.1-.2.6 0 .8 1.7-.1 2.7-.1 3.9-.1h2.9c1.9 0 4 0 5.2.1.4-.6.9-2.4 1-3.6.1-.4-.4-.5-.6-.2zm-13-.3c-1.3 2.6-1.9 2.6-4 2.6-1.7 0-2-.2-2.3-.5-.3-.4-.4-1.1-.4-2.1v-7.8h-.1c0-2.1.2-2.3 1.1-2.4l.6-.1c.2-.2.2-.6 0-.8-1.1.1-2.2.1-3.4.1-1.1 0-2.2 0-3.4-.1-.3.2-.3.6 0 .8l.6.1c1 .2 1.1.4 1.1 2.4v8.3c0 2.1-.2 2.3-1.1 2.4l-.9.1c-.2.2-.2.6.1.8 1.4-.1 2.5-.1 3.5-.1h3c1.9 0 4 0 5.2.1.4-.6.9-2.5 1-3.6.1-.3-.4-.4-.6-.2zm-95.8 3.9c.7 0 1.4 0 1.8-.2.1-.2.1-.4-.1-.6-.4 0-.9-.2-1.5-.6-1.1-.9-2-2.6-3.4-5.6-.1-.3-.1-.4.1-.5 1.1-.5 2.4-1.3 2.4-3.4 0-1.4-.7-2.6-1.9-3.4-.9-.5-2.5-.8-4.4-.8-2.1 0-3.9.1-5.6.2-.3.1-.3.7-.1.8l.6.1c1 .2 1 .4 1 2.6v7.9h.2c0 2-.2 2.2-1.1 2.4l-.6.1c-.2.1-.2.6 0 .8 1.1-.1 2.1-.1 3.3-.1 1.1 0 2.1 0 3.3.1.2-.2.2-.7 0-.8l-.6-.1c-1-.2-1.1-.4-1.1-2.4v-2.7c0-.4.1-.5.8-.5.5 0 .9.2 1.1.8.5 1.1 1.1 2.3 1.8 3.4.6 1.7 2 2.5 4 2.5zm-4.9-8.2c-.4.4-.9.6-1.7.6-1.3 0-1.4-.1-1.4-.9v-4.3c0-1.1.1-1.1 1-1.1 1.8 0 2.9 1.3 2.9 3.4-.1 1.2-.5 1.9-.8 2.3zm29.5-5.4c1.1-2.6 1.9-4.3 2.6-5.4.4-.7.9-1 1.8-1.1l.8-.2c.3-.2.2-1-.1-1.1-1 .1-1.9.1-3 .1-1.2 0-2.5 0-4-.1-.4.2-.4.8-.1 1.1l1 .3c.8.2.9.4.9.5 0 .1-.1.5-.4 1.1-.4 1.1-1.8 4.7-2.6 6.7l-1.1 3c-.4 1-.8 1.9-1.1 2.4-.3-.5-.5-1.2-1-2.5l-2.8-7.2c-.8-1.9-1.2-3.3-1.2-3.5 0-.3.3-.4.8-.6l1-.2c.2-.3.3-.9 0-1.1-1.9.1-3.4.1-4.8.1-1.7 0-2.7-.1-4.3-.1-.3.2-.4.7-.1 1.1l1.2.4c1.1.3 1.1.4 2.4 3.4l5.2 13.1c.4 1.1 1 2.8 1.3 3.6.2.2.4.3.9.3.4 0 .9-.1 1.1-.3.7-1.8 1.6-4.3 3.3-8.2l2.3-5.6zm-180.7 5.6c-.2-.1-.4-.1-.4-.2s.3-.2.4-.3c.7-.2 2.3-.9 2.3-2.8 0-1.3-.6-2.3-1.6-2.8-1-.6-2.4-.8-4.6-.8s-3.9.1-5.6.2c-.4 0-.3.7-.1.8l.6.1c1 .2 1 .4 1 2.6v7.9h.1c0 2-.2 2.2-1.1 2.4l-.6.2c-.2.1-.2.6 0 .8 1.2-.1 2.4-.1 3.4-.1.6 0 1.5.1 2.3.1 1.3 0 3.1-.1 4.4-.5 1.4-.5 2.6-1.7 2.6-3.8.1-2.3-1.4-3.5-3.1-3.8zm-4.7-4.8c0-1 0-1.1 1.1-1.1 1.5 0 2.7 1 2.7 2.9 0 1.3-.7 2.6-2.6 2.6-1.1 0-1.1 0-1.1-.6v-3.8h-.1zm1.9 11.8c-1.8 0-1.9-1.1-1.9-2.8v-2.7c0-.9 0-.9 1.2-.9 2.1 0 3.3 1.3 3.3 3.4 0 1.8-.9 3-2.6 3zm89.1-14.9v3.6l.1 8.3c0 1.9 0 2.3-1.5 2.6l-.9.3c-.4.3-.3 1 .1 1.1 1.5-.1 3.3-.1 4.8-.1 1.6 0 2.9 0 4.4.1.4-.1.4-.9.1-1.1l-1.1-.1c-1.2-.2-1.4-1-1.4-2.4-.2-4.1-.3-7.5-.3-14 0-1.7.6-2.1 1.9-2.3l1-.2c.3-.4.3-1-.1-1.1-1.1.1-2.6.1-3.7.1-1 0-1.9 0-3.4-.1-.7 2.7-1.4 4.2-2.9 7.6l-1.6 3.5c-.9 1.9-1.4 2.9-1.8 3.6-.4-.8-1.4-2.6-1.8-3.3l-2.2-4.6c-1.4-3-2.6-4.9-2.6-7-1.1.1-2.1.1-3.2.1-1.6 0-2.9 0-4.1-.1-.4.1-.4.9-.1 1.1l.8.1c1.3.3 1.9.7 1.9 2.6 0 1.8-.1 4.3-.3 6.4-.2 3-.4 5.8-.5 7.4-.2 1.9-.3 2.2-1.9 2.5l-.6.1c-.3.2-.3 1 .1 1.1 1.3-.1 2.6-.1 3.6-.1 1.2 0 2.6 0 3.8.1.3-.2.4-.9.1-1.1l-1.2-.2c-1.3-.2-1.5-.6-1.5-2.2 0-1.9 0-5.1.1-7.2 0-1.7.1-2.9.3-5h.1c1.8 4.1 5.6 11.9 6.9 15.9.2.1.5.2.8.2s.4-.1.6-.3c2.2-5.4 4.7-10.8 7.2-15.9zm-117.9 9.2l.9 2.7c.4 1.1.6 1.9.6 2.2 0 .2-.1.4-.9.5l-1.1.2c-.4.3-.3 1 .1 1.1 1.5-.1 2.7-.1 4.3-.1 1.7 0 3.4 0 4.9.1.1 0 .1-.1.1-.2 1.2-.1 2.2-.1 3.1-.1h3c1.9 0 4 0 5.2.1.4-.6.9-2.5 1-3.6-.2-.3-.7-.4-.9-.2-1.3 2.6-1.9 2.6-4 2.6-1.7 0-2-.2-2.3-.5-.3-.4-.4-1.1-.4-2.1v-7.8c0-2.1.2-2.3 1.1-2.4l.6-.1c.2-.2.2-.6 0-.8-1.1.1-2.2.1-3.4.1-1.1 0-2.2 0-3.4-.1-.3.2-.3.6-.1.8l.6.1c1 .2 1.1.4 1.1 2.4v8.3c0 2.1-.2 2.3-1.1 2.4h-.4c0-.1-.1-.1-.1-.1l-1.2-.2c-1.1-.2-1.5-1-2.1-2.8l-4.3-12.5c-.8-2.3-1.1-3.4-1.4-4.4-.1-.4-.4-.6-.7-.6-.1 0-1.2 1.6-2.8 1.9.1 1-.5 2-1.2 4.1l-2.9 7.8c-.9 2.3-1.4 3.9-1.9 5.1-.5 1.2-1.1 1.5-1.9 1.6l-.9.1c-.3.3-.3 1 .1 1.1 1.5 0 2.2-.1 3.3-.1 1.3 0 2.6 0 3.7.1.4-.2.3-.9.1-1.1l-1-.2c-.9-.2-1.1-.4-1.1-.5 0-.3 0-.5.3-1.1l1.1-3.7c.2-.6.3-.6 1.1-.6h3.6v-.1c1.2 0 1.5.1 1.6.6zm-1.7-2.4h-2.7c-.8 0-1-.1-.7-1l.8-2.4c.4-1.5 1-2.8 1.3-3.5.3.7.7 1.9 1.1 3.4l.8 2.6c.3.7.1.9-.6.9zm155.5 8.2l-.9-.1c-1-.2-1.1-.4-1.1-2.4v-9.9c0-.6.1-.6.6-.6h1.3c1.7 0 2 1.1 2.4 2.5.1.2.7.2.8-.1 0-1.2.1-3.1.4-3.9 0-.1-.2-.2-.4-.2s-.2 0-.3.1c-.2.4-.5.5-2 .5H264c-1.7 0-1.8-.1-1.9-.4-.1-.1-.2-.1-.4-.1-.1 0-.3 0-.4.1-.2.9-.3 2.3-.7 3.8.2.3.5.4.8.2.7-1.7 1.1-2.6 2.7-2.6h1.4c.5 0 .5.1.5.6v10c0 2.1-.2 2.3-1.1 2.4l-1 .1c-.2.2-.2.6 0 .8 1.6-.1 2.7-.1 3.8-.1 1 0 2.1 0 3.6.1.4-.2.4-.6.2-.8z" class="st0"/></svg>