<svg xmlns="http://www.w3.org/2000/svg" width="770.4" height="1202.4" viewBox="0 0 770.4 1202.4"><path fill="#898989" d="M452.61 895.985c20.33-.535 37.45-19.795 37.985-43.335 0-24.075-17.12-43.335-37.985-43.335-21.4 0-38.52 19.26-37.985 43.335-.535 23.54 16.585 42.8 37.985 43.335m-68.48-43.335a68.27 68.27 0 0 1 68.48-68.48c37.45 0 67.945 30.495 68.48 68.48-.535 37.45-31.565 67.945-68.48 68.48-37.985-.535-68.48-31.03-68.48-68.48m215.07-39.59v104.86h-28.89V813.06h-41.73v-23.54h110.21v23.54H599.2zm100.58 54.035h18.19l-18.19-47.08-18.19 47.08h18.19zm-26.75 21.935l-10.7 28.89h-34.24l54.035-127.865h35.845L770.4 917.92h-34.24l-10.7-28.89h-52.43zM68.48 813.06v104.86H39.59V813.06H0v-23.54h108.07v23.54H68.48zm115.56 82.925c20.865-.535 37.985-19.795 37.985-43.335 0-24.075-17.12-43.335-37.985-43.335-21.4 0-38.52 19.26-37.985 43.335-.535 23.54 16.585 42.8 37.985 43.335m-68.48-43.335a68.27 68.27 0 0 1 68.48-68.48c37.45 0 67.945 30.495 68.48 68.48-.535 37.45-31.03 67.945-68.48 68.48-37.985-.535-68.48-31.03-68.48-68.48m202.23 65.27h13.91V868.7l50.825-79.18H349.89l-32.1 54.035-31.03-54.035h-34.24l50.825 79.18v49.22h14.445zm67.41-208.65c39.055-7.49 74.9-71.155 74.9-195.275v-11.77C562.285 487.78 631.835 447.12 636.115 397.9c25.145 26.75 40.125 58.315 40.125 94.695 0 134.82-155.15 213.465-291.04 216.675M77.575 491.525c0-35.845 14.98-67.945 39.59-94.16 4.28 49.755 74.365 90.415 177.085 104.325v11.77c0 124.12 35.845 187.785 74.9 195.275-135.89-2.675-291.575-81.32-291.575-217.21m299.065-36.38c-16.05 0-33.17-1.07-49.755-2.14 9.095-62.06 33.17-89.88 50.29-89.88 17.12 0 41.195 27.285 50.29 89.88-17.12 1.07-34.24 2.14-50.825 2.14m54.035 50.825c0 85.065-29.425 128.935-53.5 128.935-24.61 0-53.5-43.87-53.5-128.935v-1.07c17.12 1.605 34.775 2.14 52.965 2.14 18.725 0 36.915-.535 54.035-2.14v1.07zm147.66-127.33c0 36.38-56.175 59.92-121.445 70.085-10.165-93.09-43.335-140.705-79.715-140.705S308.16 355.1 297.46 448.725c-65.805-10.165-122.515-33.705-122.515-70.085 0-21.4 26.75-39.59 65.27-52.43 37.45-11.77 78.645-18.19 120.375-19.795h31.03c4.28 0 8.025.535 12.305.535h1.07c4.28.535 8.56.535 13.375 1.07 31.565 2.675 62.595 8.56 91.485 17.12 40.66 13.375 68.48 32.1 68.48 53.5m-12.84-64.2c-41.73-18.725-100.045-31.03-169.595-32.635h-.535c-6.42 0-12.305-.535-18.725-.535s-12.84 0-18.725.535c-70.085 2.14-128.935 14.445-170.665 33.17-98.44 39.055-158.36 109.14-158.36 188.32 0 129.47 146.59 230.05 347.75 230.05s347.75-101.115 347.75-230.05c0-79.715-59.92-149.8-158.895-188.855"/></svg>