<svg xmlns="http://www.w3.org/2000/svg" width="770.4" height="1202.4" viewBox="0 0 770.4 1202.4"><path fill="#898989" d="M432.475 754.015c.486-.097.778-.195 1.07-.195 7.393-.389 7.393-.389 9.727 6.615 2.335 6.906 4.669 13.91 7.004 20.816.195.584.486 1.07 1.07 1.459v-28.695h6.225v39.979c-2.529 0-4.961.097-7.393-.097-.681-.097-1.459-1.167-1.751-1.848-2.821-7.782-5.447-15.661-8.171-23.443-.389-1.167-.778-2.237-1.654-3.405v28.695h-6.128l.001-39.881zm-307.09 39.98c-2.529 0-4.766.195-7.004-.097-.778-.097-1.751-1.265-2.14-2.043-2.918-8.171-5.739-16.439-8.657-24.707-.195-.681-.486-1.265-1.167-1.945V793.8h-6.128v-39.979c2.529 0 4.961-.195 7.393.097.681.097 1.556 1.265 1.848 2.043 2.918 8.365 5.642 16.731 8.463 24.999.195.584.486 1.167 1.265 1.751v-28.793h6.128v40.077zm540.35 0h-7.295v-34.24h-8.755v-5.642h24.61v5.545h-8.56v34.337zM330.727 754.21h7.101v39.882h-7.101V754.21zm54.278-267.792a11002.165 11002.165 0 0 0-14.591 34.726c-24.415 58.364-48.831 116.63-73.246 174.994-.778 1.751-1.556 2.14-3.307 1.848-37.547-6.323-74.122-16.147-108.751-32.295-20.719-9.63-40.271-21.303-57.294-36.672-12.84-11.575-23.735-24.707-30.544-40.757-10.895-25.777-8.171-50.485 5.934-74.219 9.046-15.175 21.303-27.431 35.213-38.034 25.194-19.357 53.695-32.392 83.557-42.508 30.641-10.311 62.06-16.828 93.965-20.719 31.516-3.794 63.13-5.058 94.841-3.599 49.025 2.237 96.981 10.019 143.38 26.361 27.723 9.825 54.084 22.373 77.526 40.465 14.785 11.381 27.917 24.513 36.866 41.049 15.855 29.085 14.105 57.683-3.502 85.503-10.797 16.925-25.485 30.155-41.827 41.438-26.361 18.19-55.445 30.446-85.892 39.785-19.844 6.128-40.076 10.603-60.504 14.105-2.432.389-3.307-.195-4.28-2.335a129896.053 129896.053 0 0 0-86.281-206.218c-.192-.778-.582-1.556-1.263-2.918zm.098-11.867a40306.005 40306.005 0 0 1 39.785 46.205 50347.53 50347.53 0 0 1 93.771 108.945c.973 1.167 1.848 1.751 3.502 1.265 18.482-5.35 36.477-11.77 53.5-20.622 15.855-8.268 30.446-18.19 41.827-32.197 8.171-10.116 13.618-21.497 14.299-34.629 1.07-18.287-6.42-33.462-17.801-47.08-14.202-17.12-32.295-29.376-51.846-39.59-34.532-17.995-71.398-28.209-109.724-34.045-30.544-4.669-61.282-6.031-92.117-4.377-31.516 1.654-62.449 6.323-92.798 15.077-31.808 9.144-61.963 21.789-88.324 42.119-13.326 10.311-24.999 22.178-32.489 37.45-9.338 19.065-9.241 37.936 1.654 56.418 7.976 13.521 19.552 23.54 32.586 32.003 20.427 13.326 42.995 21.984 66.243 28.89 2.335.681 3.599.292 5.155-1.556 37.839-44.065 75.678-88.032 113.615-132.096a5658.932 5658.932 0 0 0 19.162-22.18zM219.058 753.918h20.719v5.545h-13.424v10.311h12.548v5.836h-12.645v18.19h-7.198v-39.882zm544.241 40.271v-39.785h7.101v39.785h-7.101zM0 754.21h7.004v39.882H0V754.21zm551.731 0h7.004v39.882h-7.004V754.21z"/></svg>