<svg xmlns="http://www.w3.org/2000/svg" width="770.4" height="1202.4" viewBox="0 0 770.4 1202.4"><path fill="#898989" d="M530.817 796.426c-.097-1.654.584-2.432.973-3.307 15.272-30.641 30.544-61.185 45.621-91.825 1.07-2.14 2.335-2.626 4.572-2.918 7.393-1.07 10.992 2.043 14.105 8.755 13.326 28.598 27.431 56.905 41.244 85.308.584 1.07 1.07 2.237 1.848 3.988h-23.054c-1.362 0-1.459-1.265-1.848-2.14a2182.473 2182.473 0 0 1-10.116-21.984c-.778-1.751-1.654-2.626-3.696-2.626-13.91.097-27.82.097-41.73-.097-2.043 0-3.015.778-3.794 2.529-3.405 7.49-7.004 14.785-10.408 22.275-.681 1.556-1.459 2.237-3.307 2.14-3.212-.195-6.713-.098-10.41-.098zm30.058-35.601h38.617a13035.528 13035.528 0 0 0-19.065-40.563 8721.985 8721.985 0 0 1-19.552 40.563zm-225.187-43.968c0-3.405-.097-6.517 0-9.727.097-2.043-.584-2.918-2.432-3.696-16.147-6.712-32.781-8.852-50.095-5.253-25.875 5.35-44.843 27.334-45.718 53.792-.584 18.676 8.56 32.003 24.999 39.59 24.61 11.284 49.706 9.533 74.705.389 1.459-.486 1.848-1.265 1.848-2.724-.097-11.965-.195-23.929-.195-35.894 0-2.043-.875-2.432-2.626-2.335-4.766.097-9.533.292-14.396.097-2.529-.097-3.307.584-3.21 3.21.195 9.533 0 19.163.097 28.695 0 2.432-.778 3.307-3.015 3.891-3.891.875-7.782 1.654-11.77 2.043-19.649 1.848-37.353-6.615-43.189-27.723-3.794-13.715-.681-26.555 6.809-38.423 4.28-6.712 10.311-11.575 17.995-14.007 13.132-4.085 26.069-2.724 38.52 3.015 3.891 1.461 7.296 3.99 11.673 5.06zm59.628 16.634h.584v29.766c0 11.186 4.669 20.038 13.424 26.75 16.536 12.645 43.384 14.105 61.282 3.307 12.062-7.295 18.385-18.19 18.774-32.1.486-17.509.486-35.115.681-52.625 0-3.307 1.459-7.685-.486-9.533-2.14-2.14-6.517-.097-9.825-.389-2.237-.195-2.821.681-2.821 2.918.292 13.132.486 26.166.681 39.298.097 7.49 0 15.077-1.07 22.47-1.556 10.895-5.934 19.844-17.315 23.54a49.428 49.428 0 0 1-21.303 2.043c-10.214-1.265-17.023-7.004-20.33-16.828-1.654-4.864-1.848-10.019-2.043-15.174-.681-18.385-.097-36.672.389-54.959.097-2.626-.584-3.307-3.113-3.21-4.864.195-9.825.195-14.688 0-2.432-.097-3.015.584-3.015 3.016.292 10.504.194 21.107.194 31.71zM0 820.161c5.642-.097 10.408-.973 15.077-2.821 15.661-6.225 22.956-22.762 23.735-35.602.584-9.533.195-19.163.292-28.695.195-17.12.292-34.143.584-51.263 0-2.626-.584-3.307-3.21-3.21-4.28.195-8.657.292-12.937 0-3.21-.292-3.599.973-3.599 3.794 0 24.61-.097 49.22-.389 73.83-.097 12.548-3.21 24.318-10.895 34.532-2.53 3.209-5.448 6.03-8.658 9.435zm205.051-303.394c-5.253-4.377-10.214-7.782-15.369-11.089-7.685-5.058-15.758-9.435-24.415-12.743-16.634-6.323-31.905-3.502-46.01 6.809-4.961 3.599-9.727 7.49-14.591 11.186-4.085 3.21-8.365 3.21-12.451 0-3.891-3.113-5.253-8.171-3.015-12.548.875-1.654 1.459-3.307 1.265-5.155-.195-1.459.097-2.237 2.043-1.848 5.739 1.07 9.046-.681 11.381-6.128 2.043-4.572 1.556-9.241-.875-13.424-2.724-4.669-10.408-4.085-13.91.973-2.626 3.696-2.529 7.879-1.848 12.159.195 1.362.681 2.626 1.07 3.988-.973.875-2.335.681-3.113.195-3.502-2.14-7.393-1.751-11.186-2.432-9.338-1.654-16.245-10.7-15.466-20.038.097-1.362 1.07-1.945 1.945-2.626 3.794-3.405 7.685-6.809 11.478-10.214.875-.778 2.043-1.459 1.654-2.724-.973-3.599 1.556-5.35 3.794-7.295 10.603-9.046 23.248-13.618 36.866-15.758 20.038-3.21 40.174-2.14 60.212.292 61.282 7.587 119.645 25.68 176.939 47.761 59.725 23.054 117.311 50.679 173.729 80.542 35.894 19.065 71.593 38.52 107.486 57.585 8.56 4.572 17.217 9.046 26.945 11.186 12.451 2.724 24.221 1.07 35.407-4.669 4.085-2.043 8.074-2.626 12.548-1.556 6.42 1.459 9.046 7.004 5.739 12.743-5.739 10.214-14.98 15.564-26.069 17.995-8.365 1.848-16.925 2.237-25.68 1.459.195 1.848.486 3.502.681 5.058.973 8.074-2.626 13.715-10.408 16.05-8.657 2.529-17.023 1.362-25.194-2.335-13.132-6.031-24.513-14.785-35.796-23.54a9.749 9.749 0 0 1-1.556-1.265c-10.116-10.214-23.248-12.062-36.672-13.035-15.758-1.265-31.419-.195-47.177.097-28.404.486-50.095-11.575-66.632-34.143-4.28-5.934-8.074-12.159-10.992-18.774-5.058-11.478-14.007-15.369-25.875-15.564-21.497-.292-43.092.875-64.589.195-15.564-.486-30.641-3.405-45.329-8.56-2.724-.973-4.085-.973-5.934 1.654-5.35 7.101-13.424 8.949-21.789 9.435-16.439 1.07-31.614-3.696-46.496-10.019-7.198-3.016-14.202-6.615-21.984-7.976a33.836 33.836 0 0 0-4.377-.584c-2.432-.097-4.864-.292-7.101.584-3.015 1.167-1.459 4.183-1.945 6.225-2.335 9.727-10.895 16.342-20.135 14.98-11.089-1.654-17.023-11.284-13.715-22.567 2.821-9.922 10.214-15.758 18.482-20.914 9.435-5.836 19.649-8.755 30.738-8.852 1.942.002 4.277-.484 7.292-.776zm-3.794-9.63c.292.389.584.875.875 1.265.584-.778.292-1.459-.195-2.043-1.654-7.49-2.626-14.98.778-22.762 3.794 23.345 17.898 36.477 39.59 42.508-2.043.195-3.988.292-5.934.097-13.91-1.362-27.917-2.724-41.925-1.265-8.852.973-17.509 2.724-25.194 7.587s-12.645 11.673-13.813 20.816c-.778 6.323 5.642 12.84 10.992 10.992 3.988-1.362 7.101-3.891 9.241-7.685 1.167-2.14 1.556-3.794-.778-5.739-3.307-2.724-2.821-5.447.973-7.49a24.223 24.223 0 0 1 10.116-2.821c11.575-.681 22.47 2.626 33.365 5.836 12.84 3.794 25.777 7.393 39.395 6.615 10.797-.681 17.995-6.712 20.33-17.315 1.556-6.809 1.07-13.618.195-20.33-.584-4.669-1.556-9.338-2.432-14.494 25.583 16.245 53.111 25.68 82.682 29.571-9.046.778-17.995.681-26.945-.292a191.828 191.828 0 0 1-40.465-9.046c-2.529-.875-2.724-.097-2.14 2.043 1.07 4.085 2.626 7.976 2.529 12.256-.195 7.198 0 6.906 6.712 9.825 17.509 7.49 35.602 12.062 54.862 11.965 17.12-.195 34.143-.097 51.263-.097.389 0 .875.195 1.167-.486-.584-4.766-3.405-8.56-6.42-12.159l.584-.584c8.268 6.128 16.536 12.159 22.956 20.233 4.377 5.642 7.782 11.965 11.575 18.093 5.642 9.338 12.062 17.898 20.719 24.707 13.521 10.505 29.376 13.91 45.913 14.98 15.564 1.07 31.225.389 46.788.681 13.715.292 26.458 4.085 37.353 12.84 8.463 6.809 16.245 14.591 25.68 20.33 6.906 4.183 14.007 8.074 22.178 9.046 5.253.681 13.035-3.599 14.785-7.976 1.459-3.599-.486-6.906-6.517-11.089-1.362-.973-2.821-1.848-4.28-2.724-4.766-3.015-9.727-5.934-14.396-9.046-5.35-3.502-9.922-7.879-13.035-13.618-2.529-4.766-6.323-8.56-10.992-11.478-9.046-5.642-19.065-7.587-29.571-7.587-10.311 0-20.719.778-31.03-1.167-10.505-2.043-19.552-6.615-24.61-16.342-4.377-8.365-8.365-16.828-14.299-24.61 2.335-.097 3.405 1.167 4.475 2.237 6.906 6.615 12.743 14.299 18.968 21.497 4.475 5.155 9.825 8.56 16.634 9.922 11.965 2.432 24.026 3.696 36.088 5.253 14.007 1.751 26.069 6.42 34.726 18.287 5.545 7.49 12.159 13.91 20.816 17.801 4.864 2.237 9.533 4.864 14.494 6.809 14.105 5.544 28.598 8.171 43.675 5.155 7.685-1.556 13.91-5.642 17.704-12.645 2.432-4.572.292-7.782-4.864-7.976-3.307-.097-6.225 1.07-9.241 2.14-16.634 6.323-33.073 4.961-48.442-3.21-59.336-32.003-118.965-63.616-180.441-91.436-59.434-27.139-120.229-50.484-183.164-67.896-6.517-1.751-13.035-3.405-20.038-5.253 2.043 5.739 3.988 10.992 5.836 16.342-1.654-.292-2.432-1.362-3.307-2.14-10.603-9.825-22.567-17.412-36.088-22.762-17.995-7.101-36.185-12.159-55.64-10.992-7.49.389-14.98 1.167-21.984 4.085-1.751.778-4.183 1.362-4.28 3.502-.097 2.335 2.432 2.626 4.183 3.405 11.284 4.864 20.427 12.256 27.139 22.567.875 1.362 2.237 2.626 1.848 4.572-13.813-11.478-29.279-19.844-46.691-24.318-2.724-.681-5.155-1.654-7.101-3.696-1.167-1.167-3.696-2.335-3.113-3.696.778-1.848 3.307-.681 4.961-.389 8.852 1.167 16.731-.486 23.151-7.101.584-.681 1.751-1.07 1.459-2.14-.389-1.362-1.654-.778-2.626-.875-3.696-.389-7.49-.875-11.186-1.07-13.91-.875-27.723-.584-41.146 3.794-5.836 1.945-11.381 4.572-16.439 8.074-1.848 1.362-2.529 4.864-1.07 6.323 2.043 2.043 3.696.486 5.253-.973.875-.875 1.848-1.751 2.529-2.724 4.183-6.225 10.603-5.739 16.828-5.642 1.265 0 2.918.195 3.405 1.751.486 1.556-.875 2.529-1.848 3.405-5.545 4.766-11.867 7.49-19.065 8.171-7.198.681-13.326 3.502-18.19 8.949-3.696 4.085-3.015 9.922 1.459 13.521 3.891 3.113 7.587 2.237 11.284-2.335 3.794-4.864 6.906-10.214 11.673-14.202 6.42-5.447 13.715-4.28 17.704 3.113 4.766 8.852 4.669 15.661-2.335 23.054-3.794 3.988-7.976 7.49-12.062 11.186-.973.875-1.751 1.848-1.362 3.21.389 1.459 1.654 1.848 2.821 2.043 2.237.486 4.475.097 6.128-1.362 8.56-7.393 18.287-13.229 27.236-19.941 4.377-3.307 6.031-7.685 5.155-13.229-.584-3.696-2.237-7.004-3.015-10.992 3.794.486 6.323 2.432 8.657 4.766 3.891 3.891 6.809 8.56 9.533 13.326.681 1.167 1.265 2.14 2.918 2.432 18.872 2.917 34.825 11.574 47.373 26.262zM95.23 449.844c-3.015-.389-5.545-.681-6.809 2.626 2.529 0 4.572-.778 6.809-2.626zM770.4 796.232c-7.393 0-14.591-.097-21.692.097-1.848 0-2.529-1.07-3.405-2.237a5876.729 5876.729 0 0 1-21.205-31.322c-1.265-1.848-2.529-2.821-4.961-2.626-3.891.292-7.782.292-11.575.097-2.724-.195-3.21.875-3.21 3.307 0 10.019-.195 20.038-.195 30.057 0 2.335-.486 3.21-3.015 3.015-4.766-.389-9.533-.584-14.299-.486-2.529 0-3.21-.681-3.21-3.307.097-15.564 0-31.225 0-46.788 0-14.785 0-29.571-.292-44.454 0-2.821.778-3.307 3.405-3.21 13.618.486 27.334.681 40.952 1.167 4.961.195 10.116.486 14.883 1.751 10.603 2.821 17.606 9.825 20.427 20.427 2.724 10.214-.973 18.774-8.171 25.972-3.21 3.21-6.906 5.934-10.992 7.976-2.14 1.07-2.043 1.945-.681 3.696 8.657 11.284 17.12 22.762 25.68 34.143.583.585 1.459 1.168 1.556 2.725zm-66.243-67.021c0 6.517.097 12.937 0 19.455 0 1.945.292 2.821 2.529 2.724 5.35-.389 10.7-.292 16.05-.584 9.435-.486 15.953-5.836 18.482-14.98.584-1.945.973-3.988 1.07-6.031.681-11.575-4.28-20.622-17.704-22.373-5.836-.778-11.576-.097-17.412-.389-2.335-.097-3.113.584-3.113 3.016.196 6.419.098 12.742.098 19.162z"/><path fill="#898989" d="M335.688 716.857c-4.28-1.07-7.782-3.599-11.575-5.35-12.451-5.739-25.388-7.101-38.52-3.015-7.587 2.432-13.715 7.295-17.995 14.007-7.49 11.867-10.603 24.707-6.809 38.423 5.836 21.108 23.54 29.668 43.189 27.723 3.988-.389 7.879-1.167 11.77-2.043 2.335-.486 3.113-1.362 3.015-3.891-.195-9.533 0-19.163-.097-28.695-.097-2.626.778-3.307 3.21-3.21 4.766.097 9.533 0 14.396-.097 1.848-.097 2.626.292 2.626 2.335 0 11.965.097 23.929.195 35.894 0 1.459-.389 2.237-1.848 2.724-24.999 9.144-50.095 10.895-74.705-.389-16.536-7.587-25.68-20.914-24.999-39.59.875-26.458 19.844-48.442 45.718-53.792 17.315-3.599 33.948-1.459 50.095 5.253 1.848.778 2.529 1.751 2.432 3.696-.292 3.403-.098 6.613-.098 10.017zm-134.139 79.667c-7.685 0-14.883-.097-22.081.097-1.945 0-2.529-.973-3.113-2.432l-9.63-22.178c-.681-1.751-1.654-2.335-3.502-2.335-13.91.097-27.82.097-41.73 0-1.848 0-2.821.584-3.599 2.237-3.502 7.393-7.295 14.688-10.797 21.984-.875 1.751-1.848 2.529-3.891 2.432-3.502-.195-7.101-.097-10.603-.097-.584-1.07.195-1.848.584-2.529 15.369-30.933 30.835-61.865 46.205-92.798.875-1.848 1.848-2.529 3.891-2.335 3.405.292 7.49-.875 10.019.681 2.432 1.556 3.405 5.739 4.864 8.755 13.813 28.306 27.723 56.515 41.535 84.822.584.972 1.07 2.042 1.848 3.696zm-40.368-35.797c-6.128-13.424-12.062-26.555-18.385-40.271a11408.168 11408.168 0 0 0-18.482 38.034c-.681 1.459-.973 2.237 1.167 2.237h35.7zm234.135-27.236c0-10.603.097-21.205-.097-31.808 0-2.432.584-3.113 3.015-3.015 4.864.195 9.825.195 14.688 0 2.529-.097 3.21.584 3.113 3.21-.486 18.287-1.167 36.672-.389 54.959.195 5.155.486 10.214 2.043 15.175 3.307 9.825 10.116 15.564 20.33 16.828a49.414 49.414 0 0 0 21.303-2.043c11.381-3.696 15.758-12.645 17.315-23.54 1.07-7.49 1.167-14.98 1.07-22.47-.195-13.132-.389-26.166-.681-39.298-.097-2.237.486-3.016 2.821-2.918 3.405.292 7.685-1.751 9.825.389 1.945 1.945.486 6.323.486 9.533-.195 17.509-.195 35.115-.681 52.625-.389 14.007-6.712 24.805-18.774 32.1-17.898 10.797-44.745 9.338-61.282-3.307-8.755-6.712-13.424-15.564-13.424-26.75v-29.765c-.292.095-.486.095-.681.095zM0 820.161c3.21-3.405 6.128-6.128 8.56-9.435 7.685-10.214 10.797-21.984 10.895-34.532.292-24.61.389-49.22.389-73.83 0-2.821.389-4.085 3.599-3.794 4.28.292 8.657.292 12.937 0 2.529-.097 3.21.584 3.21 3.21-.292 17.12-.389 34.143-.584 51.263-.097 9.533.292 19.163-.292 28.695-.778 12.84-8.074 29.376-23.735 35.602-4.571 1.848-9.337 2.626-14.979 2.821zm146.298-380.823c-5.934 2.724-11.381 5.253-17.606 4.085-.973-.195-2.432 0-2.724-.875-.292-1.167.973-1.945 1.848-2.529 4.961-3.405 10.408-3.307 15.953-1.751.778.195 1.362.584 2.529 1.07zm253.979 105.249c-.195-.292-.486-.584-.681-.875.584-.292.973-.292 1.265.389a1 1 0 0 0-.584.486z"/></svg>