<svg xmlns="http://www.w3.org/2000/svg" width="770.4" height="1202.4" viewBox="0 0 770.4 1202.4"><path fill="#898989" d="M23.792 795.499H0V708.64h23.792v33.611l26.561-33.485H74.9l-29.834 38.268 24.547 34.869c11.455 13.973 13.973 13.721 13.973 13.721H58.661c-6.042 0-11.959-7.301-11.959-7.301l-22.911-33.107v40.283zm88.621 0V708.64H88.621v86.859h23.792zm388.221-74.144h24.925v-12.714h-73.641v12.714h24.925V795.5h23.792l-.001-74.145zm-253.275 74.144h19.512l7.175-54.255 18.505 54.255h16.616l19.008-54.507 7.175 54.507h21.778l-12.085-86.859H320.37l-18.253 50.227-17.749-50.101h-25.051l-11.958 86.733zm159.745 4.154c27.191 0 49.346-21.274 49.346-47.458s-22.029-47.458-49.346-47.458c-27.191 0-49.346 21.274-49.346 47.458s22.029 47.458 49.346 47.458zm-25.68-47.583c0-18.631 11.455-33.611 25.554-33.611 14.099 0 25.554 15.106 25.554 33.611 0 18.631-11.455 33.611-25.554 33.611-14.099.125-25.554-14.98-25.554-33.611zm187.061 47.583c27.191 0 49.346-21.274 49.346-47.458s-22.029-47.458-49.346-47.458c-27.191 0-49.346 21.274-49.346 47.458s22.155 47.458 49.346 47.458zm-25.554-47.583c0-18.631 11.455-33.611 25.554-33.611s25.554 15.106 25.554 33.611c0 18.631-11.455 33.611-25.554 33.611-14.099.125-25.554-14.98-25.554-33.611zm-371.479 13.847l-10.7-30.086-10.7 30.086h21.4zm-25.932 12.714l-6.042 16.868h-19.512l30.967-86.859h23.792l31.093 86.859h-23.792l-6.042-16.868H145.52zm478.101-69.865v86.859h23.792v-74.271h8.686s13.469.881 13.469 12.085c0 0 2.014 18.127-20.519 18.127l25.176 37.765s4.28 6.294 13.469 6.294h20.015s-3.651-.504-12.84-12.462l-19.638-29.708c18.756-6.042 17.498-23.414 17.498-23.414 0-20.519-23.918-21.274-23.918-21.274 0-.126-12.336 0-20.141 0h-25.049v-.001zm106.119 77.922c-12.085-2.014-24.799-8.182-24.799-8.182l3.525 13.344c10.7 6.672 25.68 7.301 25.68 7.301 38.772 1.762 36.254-29.834 36.254-29.834-.881-16.868-19.008-22.659-19.008-22.659-25.177-8.686-23.036-18.253-23.036-18.253 0-10.071 15.987-10.574 15.987-10.574 11.204 0 17.749 5.916 17.749 5.916v-13.218s-9.441-5.539-25.302-4.658c0 0-32.604 2.392-32.604 27.191 0 0-2.14 15.987 19.386 25.176 0 0 24.673 7.679 24.169 17.624-.755 13.721-18.001 10.826-18.001 10.826z"/><g fill="#898989"><path d="M385.955 402.746c-127.267 0-230.491 54.004-230.491 120.721S258.688 644.188 386.08 644.188s230.616-54.004 230.616-120.721c-.124-66.717-103.348-120.721-230.741-120.721zm1.007 213.875c-116.441 0-210.853-41.415-210.853-92.524 0-51.108 94.412-92.523 210.853-92.523s210.853 41.415 210.853 92.523-94.411 92.524-210.853 92.524z"/><path d="M503.152 466.821c-.378-1.385-1.636-1.636-3.021-1.636h-43.178c-.252 0-.504.252-.504.504v5.791c0 .252.252.504.504.504h3.147c1.259 0 2.392 1.133 2.392 2.392 0 .378-.126.881-.252 1.133l-34.618 102.972c0 .252-.126.378-.126.629 0 1.133 1.007 2.14 2.14 2.14h26.939c1.259 0 2.644-1.133 3.147-2.518l23.162-72.005c.126-.629.504-1.133 1.133-1.133s1.007.504 1.133 1.133l23.162 72.005c.378 1.385 1.762 2.518 3.147 2.518h27.065c1.133 0 2.014-1.007 2.014-2.14 0-.252 0-.504-.126-.629l-37.26-111.66zm-101.21-1.637h-35.751c-.252 0-.504.252-.504.504v5.791c0 .252.252.504.504.504h3.525c1.259 0 2.392 1.007 2.392 2.392V578.73c0 1.385 1.007 2.392 2.392 2.392h27.442c1.259 0 2.392-1.133 2.392-2.392V467.702c0-1.385-1.007-2.518-2.392-2.518zm-91.39 55.892c-.378-.504-.504-.881-.504-1.385 0-.629.126-1.007.504-1.511l33.485-49.598c.252-.378.378-.755.378-1.259 0-1.133-.881-2.14-2.014-2.14h-30.212c-1.259 0-3.147 1.133-4.154 2.392l-21.778 30.967-4.406 6.168c-.504.504-.629.629-.881 1.007-.252.126-.629.252-.881.252-.755 0-1.259-.629-1.259-1.511v-36.884c0-1.385-1.007-2.392-2.392-2.392h-34.869c-.252 0-.504.252-.504.504v5.791c0 .252.252.504.504.504h3.651c1.259 0 2.392 1.133 2.392 2.392v104.482c0 1.385 1.007 2.392 2.392 2.392h26.561c1.259 0 2.392-1.133 2.392-2.392v-43.933c0-.881.504-1.511 1.259-1.511.252 0 .629.126.881.252.378.252.378.504.881 1.007l31.471 44.185c1.007 1.385 2.769 2.392 4.154 2.392h31.596c1.133 0 2.014-1.007 2.014-2.14 0-.629-.126-1.007-.504-1.385l-40.157-56.646z"/></g></svg>