<svg xmlns="http://www.w3.org/2000/svg" width="770.4" height="1202.4" viewBox="0 0 770.4 1202.4"><path fill="#898989" d="M119.548 798.615h85.114c3.891 0 7.004-3.113 7.004-6.906v-37.742c0-3.794-3.113-6.906-7.004-6.906h-85.114c-3.891 0-7.004 3.113-7.004 6.906v37.742c.001 3.793 3.113 6.906 7.004 6.906zm5.35-41.536h74.608c1.265 0 2.335 1.07 2.335 2.335v26.945c0 1.265-1.07 2.335-2.335 2.335h-74.608c-1.265 0-2.335-1.07-2.335-2.335v-26.945c.001-1.265 1.071-2.335 2.335-2.335zM0 798.615h10.019v-12.354h81.612c4.085 0 7.393-3.307 7.393-7.295v-24.61c0-3.988-3.307-7.295-7.393-7.295H0v51.554zm10.019-22.276v-19.26h75.873c1.654 0 3.113 1.362 3.113 3.113v13.035c0 1.654-1.362 3.113-3.113 3.113l-75.873-.001zM224.7 798.615h10.019v-12.354h72.468l6.323 12.354h10.895l-6.42-12.451c3.21-.778 5.642-3.696 5.642-7.101v-24.61c0-3.988-3.307-7.295-7.393-7.295H224.7v51.457zm10.019-22.276v-19.26h75.873c1.654 0 3.113 1.362 3.113 3.113v13.035c0 1.654-1.362 3.113-3.113 3.113l-75.873-.001zm326.447 22.276h10.019v-20.719h73.927v20.719h10.019V747.06h-10.019v20.816h-73.927V747.06h-10.019v51.555zm-101.358 0h86.281v-10.116c-.195.097-.486.097-.778.097h-80.055c-1.265 0-2.335-1.07-2.335-2.335v-26.945c0-1.265 1.07-2.335 2.335-2.335h80.055c.292 0 .486 0 .778.097v-10.116h-86.281c-3.891 0-7.004 3.113-7.004 6.906v37.742c.098 3.892 3.211 7.005 7.004 7.005zm210.79 0H770.4v-10.019h-89.685v-10.7H770.4v-10.019h-89.685V757.08H770.4v-10.02h-99.802v51.555zm-319.054-36.964v-2.335c0-1.265 1.07-2.335 2.335-2.335h80.055c.292 0 .486 0 .778.097v-10.116h-86.281c-3.891 0-7.004 3.113-7.004 6.906v16.925c0 3.794 3.113 6.906 7.004 6.906h7.295v.097c.195-.097.486-.097.778-.097h65.756c1.265 0 2.335 1.07 2.335 2.335v6.225c0 1.265-1.07 2.335-2.335 2.335h-80.055c-.292 0-.486 0-.778-.097v10.116h86.281c3.891 0 7.004-3.113 7.004-6.906v-16.925c0-3.794-3.113-6.906-7.004-6.906h-7.295v-.097c-.195.097-.486.097-.778.097h-65.756c-1.265 0-2.335-1.07-2.335-2.335v-3.89zM381.99 678.678c-50.387-25.972-91.825-62.644-93.965-106.708l-11.673-153.885c42.995-9.825 69.064-14.299 105.638-14.299v274.892z"/><path fill="#FFF" d="M381.99 495.61h-35.602v60.504c0 16.439 13.813 35.31 35.602 35.31V495.61z"/><path fill="#898989" d="M381.99 678.678c50.387-25.972 91.825-62.644 93.965-106.708l11.673-153.885c-42.995-9.825-68.966-14.299-105.638-14.299v274.892z"/><path fill="#FFF" d="M381.99 408.065c43.481 0 82.779 9.241 101.066 13.813l-1.945 26.361c-46.885-11.77-74.705-13.618-99.121-13.618-24.415 0-52.235 1.848-99.121 13.618l-1.945-26.361c18.287-4.572 57.585-13.813 101.066-13.813zm39.785 112.058l-.097 29.182 51.555.195 2.237-29.571-53.695.194zm55.931-28.404l2.237-30.446-95.814-.584v29.668h37.645v1.362h55.932z"/><path d="M342.205 520.22c-1.265 1.556-2.724 3.696-3.015 4.766.584.292 1.848 1.362 3.015 2.821v-7.587z"/><path fill="#FFF" d="M329.171 637.92c15.466 14.007 33.754 25.68 50.679 34.629v-34.726l-50.679.097zm50.679-29.96v-12.354c-14.494-.681-24.707-8.074-30.835-16.925l-56.224.097c1.654 10.311 5.447 20.038 10.992 29.182h76.067zm2.14-112.35h35.602v60.504c0 16.439-13.813 35.31-35.602 35.31V495.61z"/><path fill="#FFF" d="M406.405 587.63c10.408-7.976 15.369-20.233 15.369-28.89v-5.155l51.263-.195-1.848 24.902c-6.323 41.925-49.901 74.608-87.059 94.16v-77.04c6.225-.292 11.673-1.848 16.342-4.183l-.097 1.07c-1.265 3.696-1.167 5.155-1.265 5.934-.195 1.654-2.237 1.848-2.626 1.654a2.743 2.743 0 0 0-1.459-.389c-1.654 0-2.918 1.265-2.918 2.918 0 .292 0 .486.097.681-1.07.486-1.556 1.265-1.556 2.529 0 1.654 1.07 2.918 2.626 2.918.681 0 1.07.097 1.556-.292.584.584 1.362.973 2.237.973 1.654 0 2.432-.389 2.529-3.696 10.797-5.739 27.236-10.116 34.532-9.727 8.268.486 14.202 8.657 14.883 9.241.681.486 1.167.486 1.07-.292-.486-3.405-1.556-8.56-9.63-12.937.486-2.237 4.475-2.626 5.155-3.015.584-.292.778-.973 0-.973-5.35-.681-9.241 1.654-9.922 2.626-.778-.195-4.377-.486-5.447-.389.584-2.724 2.237-4.669 4.572-6.712-.389.292.681-.875-.097-.875-5.934.486-9.63 6.712-10.019 8.268-.486.097-7.004 1.167-8.074 1.459.973-6.225 8.074-10.505 8.657-10.895.681-.389.875-1.07 0-1.07-8.949.292-15.466 11.867-15.758 14.299-1.362.486-3.502 1.265-4.572 1.945-.389-4.183-.292-5.447.875-7.879l.584-.973z"/><path fill="#898989" d="M397.748 626.831c-.097 2.626-.778 3.016-2.043 3.016-.681 0-1.362-.292-1.751-.778-.389.292-.778.195-1.265.195-1.265 0-2.14-1.07-2.14-2.335 0-.973.389-1.654 1.167-2.043-.097-.195-.097-.389-.097-.584 0-1.265 1.07-2.335 2.335-2.335.486 0 .875.097 1.167.292.292.097 1.945 0 2.043-1.265.097-1.362 3.015-11.965 10.214-12.937.778-.195.486.389.195.778.584-.584-6.225 4.864-5.642 10.797.875-.486 3.307-1.362 4.475-1.751.292-1.945 6.128-10.797 13.326-10.992.681 0 .486.486 0 .875-.486.292-6.712 3.599-7.49 8.657.875-.292 5.058-1.07 5.545-1.167.292-1.265 4.864-6.906 10.019-6.712.584 0-.195.875.097.681-1.945 1.556-5.447 3.599-5.934 5.739.875-.097 3.794.097 4.377.292.584-.778 3.891-2.918 8.268-2.432.584 0 .486.584 0 .778-.584.292-3.307 1.167-3.696 2.918 4.669 2.724 6.42 5.642 6.906 8.365.097.681-.292.681-.875.292-.486-.389-5.447-5.155-12.062-5.545-5.836-.483-18.481 2.63-27.139 7.201zm-2.334 18.093c-.097 1.848-.875 2.14-1.751 2.14-.486 0-.875-.195-1.167-.584-.292.195-.486.195-.875.195-.875 0-1.459-.681-1.459-1.556 0-.681.292-1.167.875-1.362 0-.097-.097-.195-.097-.389 0-.875.681-1.556 1.556-1.556.292 0 .584.097.778.195.195.097 1.265 0 1.459-.875.097-.973.584-8.365 5.058-9.144.486-.097.389.292.097.486.389-.389-2.626 3.113-1.848 7.49.584-.389 1.654-.778 2.432-1.07.195-1.362 1.848-7.49 6.712-7.685.486 0 .389.389 0 .584-.389.195-2.432 2.432-2.918 5.836.681-.389 2.335-.584 3.015-.778.195-.875 3.794-5.642 7.295-5.545.389 0-.097.584.097.486-1.265 1.07-3.015 2.821-3.405 4.377.584-.097 1.945-.097 2.335 0 .389-.486 1.848-2.335 4.864-1.945.389 0 .292.389 0 .486-.389.195-1.459.875-1.751 2.14 3.405 1.654 4.864 3.113 5.155 4.961.097.486-.195.486-.584.195-.389-.292-3.405-2.432-7.976-2.626-4.085-.292-11.866 1.945-17.897 5.544zM352.516 549.5c.292-.973 1.362-2.237 1.556-2.821.097-.584-.097-1.07.292-1.654.389-.584 1.556-1.751 1.945-2.14.389-.389 1.751-.973 2.529.584.778 1.556 1.945 5.155 4.475 6.128-.973.486-3.405 1.362-4.669 1.654s-2.237.486-1.751 3.599c.486 3.113.681 4.475.486 5.447s-.292 3.113 1.556 4.766l1.654 2.335c.681.584 2.237 1.265 2.432-.097.097-1.362.486-2.626-.778-2.821-.486-.097-1.751-1.167-1.556-2.335.097-1.167-.195-2.237-.778-3.21-.486-.973-.778-2.14-.486-3.113s.973-1.556 2.626-1.265c1.362.486 7.393 2.14 9.241.097 1.265.973 8.755 3.696 13.132 3.21.778 1.362 2.432 4.475 3.502 5.35.875.778 1.167 3.307-.292 4.669-.875.681-3.113 3.015-4.961 3.502-1.848.486-2.626.875-3.405 1.751-.875.875-1.362.875-1.945 1.945-.486 1.167-1.751 3.113.195 3.113s2.432-.973 2.626-1.459c.097-.486 0-1.654.778-1.848.778-.195 3.015-.292 4.475-2.237 1.556-1.848 4.572-2.821 5.739-3.015 1.167-.195 1.362-1.362 1.167-1.945-.097-.584-.195-2.14.486-2.918 1.07.292 4.475.973 6.031 3.21.292.584.292.973.584 1.362-.486.778-1.362 1.556-1.751 2.335-.292.778-.778 2.14-2.237 3.307-1.556 1.167-2.821 1.945-3.599 3.015s-1.167 2.237-1.07 3.696c.097 1.459.486.778 1.167.778s2.237-.778 2.237-1.751c.097-.973-.389-1.459.973-2.043 1.362-.584 3.891-2.626 4.377-3.891.486-1.265 2.14-3.696 3.405-4.475 1.265-.778.973-1.751.389-2.821-.584-1.07-2.626-3.891-2.237-5.739.389-1.848 2.626-3.016 3.21-5.836.681-2.821.292-4.183-.097-5.155 1.167-.292 1.751-.097 3.21.584 1.459.681 4.766.486 5.155-.389.389-.973.292-2.821 0-3.21.973-.778 1.556-2.529 1.07-3.307s-.778-1.848-.486-2.918c-.973-.097-1.945-.973-1.265-1.556.681-.584 1.945-1.945 1.362-3.794.195-1.167.292-2.529-1.654-2.432-.097-.778-.681-3.113-3.696-.973-.486.292-.973-.389-.292-.584.681-.195 4.085-1.362 4.669-2.529.486-1.167.292-1.751.097-2.237.292-.486.486-1.556.292-1.945-.292-.389-1.362-.292-2.043 1.459-.778 1.751-.486 1.751-2.432 2.14-1.945.292-3.405 0-4.669 2.14-.389.486-.584 1.167-1.556 1.654-.973.486-1.459 1.362-1.556 2.14-.097.778.486 2.043.389 3.016-.097.973-.681 2.918 1.751 5.058 1.167 1.362 3.015 3.015 1.654 4.377s-2.529-.097-3.502-.778c-.973-.681-4.28-1.654-6.323-1.556-2.14.097-9.046-1.556-10.7-3.016-1.654-1.362-.681-2.14.195-2.529.584-.292.973-.486 1.362-1.167.292-.681.875-.778 1.459-.778.584 0 1.167-.097 1.751-1.362.584-1.265 1.07-.778 1.654-.973.584-.097.973-1.362-.097-1.751-1.07-.389-1.654-.778-1.556-1.167.097-.389.778-1.265 1.751-1.362.973-.097 1.07-.778.973-1.265-.097-.486 0-.875.681-1.167.681-.292.584-1.167-.486-1.459-1.167-.292-2.821-.778-2.821-1.265 0-.486.778-1.459 1.459-1.751.681-.292 1.07-1.362-.584-1.362-1.654.097-2.626.292-2.918-.778s-.389-1.654 1.362-2.335c.778-.195.973-1.167-.389-1.167-1.362.097-2.821.778-3.307.292-.486-.486-.292-.875-.097-1.07.292-.195.292-.875-.292-.875-.681 0-3.21.973-3.891.292-.681-.778-1.751-1.167-2.626-.584-.875.486-.875 1.362-.389 1.751.486.486-.097 1.167-.681.778-.486-.486-.292-.778-.292-.973 0-.195-.389-.875-.875-1.167-.486-.292-.486-.973-.292-1.459.097-.486-.389-.973-1.167-.486-.778.486-1.556 1.265-1.167 2.432-.875.097-3.015.584-3.113 1.265s.292 1.362.097 1.654c-.097.292-.875.292-1.265.486-1.167 1.167-3.015 2.237-3.502 2.626-.486.486-.778.973-1.362 1.654s-.681 1.459-.389 1.751c.778 1.07 1.362.292 1.751.973.389.584.389.778.292 1.07-.097.292.778 1.07 1.945.097 1.167-.973 2.043-2.043 3.015-.973.973 1.167.097 1.751-.292 2.529-.778.778-2.626 3.21-3.502 3.988-.875.778-1.556 2.432-1.848 4.085-.292 1.556-.778 1.945-1.07 2.335-1.556-.584-3.405-1.362-4.377-2.14-.681-.486-2.14-1.167-3.015.097-.486.486-2.821 3.794-3.405 5.155s-1.556.875-1.556 3.502c0 .973-.778 1.362-1.167 2.821-.097.389-1.167 2.821-.097 3.307s2.335-.097 2.626-.778c.289-.585.386-2.627.386-3.405z"/><path fill="#FFF" d="M342.205 491.33h37.645v-52.235c-21.011.292-49.609 1.459-96.592 13.715l7.393 96.689h51.555v-17.898c-1.459-1.167-3.696-3.015-10.311-2.918-3.891 0-15.077 3.696-21.497 11.673-.097 2.821-1.654 3.794-3.015 3.794-.778 0-1.362-.292-1.848-.875a2.387 2.387 0 0 1-1.459.486 2.408 2.408 0 0 1-2.432-2.432c0-1.07.681-1.945 1.654-2.335-.097-.195-.097-.389-.097-.584a2.408 2.408 0 0 1 2.432-2.432c.486 0 .875.097 1.265.389.292.195 1.265.778 1.459-.584.097-1.459-.097-15.369 7.393-17.412.778-.195.584.486.195.778-.389.389-3.599 6.031-3.21 13.132.875-.584 2.821-1.945 3.988-2.432.389-1.556 2.918-13.035 9.046-13.229.681 0 .584.584 0 .875-.584.389-3.21 3.502-3.696 9.144.875-.292 3.113-.681 3.599-.778.389-1.362 3.015-9.046 7.976-9.533.584 0 .389.681.097.875-.292.292-2.918 3.988-3.405 7.587.875-.097 3.015 0 3.599.195.584-.681 4.766-5.35 8.463-6.906v-15.758c-.681-.681-1.751-1.265-5.155-1.362-5.253 0-14.007 2.14-26.069 10.019-.097 3.696-2.237 5.058-4.085 5.058-.973 0-1.848-.389-2.432-1.07-.584.389-1.167.681-1.945.681a3.28 3.28 0 0 1-3.307-3.307c0-1.362.973-2.626 2.14-3.113-.097-.292-.097-.486-.097-.778a3.28 3.28 0 0 1 3.307-3.307c.584 0 1.167.195 1.654.486.389.195 2.043.875 2.335-.973.195-1.945 3.21-18.482 13.326-19.941 1.07-.195.681.584.195 1.07-.486.486-8.365 7.004-7.782 16.536 1.167-.681 4.864-2.529 6.42-3.113.486-2.043 4.961-14.396 13.132-14.591.973 0 .681.681 0 1.167s-5.739 3.988-6.42 11.478c1.167-.389 4.864-1.265 5.447-1.362.486-1.751 3.696-8.949 10.311-9.533.875 0 .486.875.097 1.265-.389.389-3.891 2.821-4.572 7.587.681-.097 2.14.195 3.405.486l-.102-4.374z"/><path fill="#898989" d="M309.522 481.895c-.097 4.085-2.529 5.642-4.475 5.642-1.07 0-2.043-.486-2.724-1.265-.584.486-1.362.681-2.14.681a3.694 3.694 0 0 1-3.696-3.696c0-1.556 1.07-2.918 2.432-3.502-.097-.292-.097-.584-.097-.875a3.694 3.694 0 0 1 3.696-3.696c.681 0 1.362.195 1.848.486.486.195 2.335.973 2.529-1.07.195-2.237 3.113-21.692 14.396-23.248 1.167-.292.778.681.292 1.167s-9.241 7.587-8.268 19.552c1.362-.778 5.934-3.015 7.685-3.696.389-3.015 4.766-17.217 14.591-17.509 1.07 0 .778.778 0 1.362-.778.486-6.809 5.35-7.587 13.618 1.362-.389 5.545-1.07 6.225-1.167.486-1.945 4.669-11.673 12.062-12.354.973 0 .486.681.097 1.07s-5.739 4.864-5.739 10.214c1.362-.097 5.058-.097 5.934.097.973-1.167 4.864-5.545 10.603-5.934.973 0 .486.681 0 1.167s-3.988 3.599-4.669 6.323c1.945 1.07 7.685 4.864 8.365 9.144.097 1.07-.486 1.07-1.362.389-.778-.681-6.906-5.545-14.591-5.545-7.49.194-21.984 3.89-35.407 12.645zm57.974-54.181v3.113l-4.572.195v-2.724c0-2.724-1.459-4.377-3.988-4.183l-12.645.778.097 7.295-4.572.195-.486-18.287 19.065-1.265c3.502-.292 6.517.389 6.517 5.155 0 1.362-.486 2.724-1.265 3.988.974.876 1.849 2.822 1.849 5.74zm-81.32 16.05l-1.362-18.482 18.871-4.28c2.432-.486 5.739-.195 5.934 4.085.097 4.28-.681 6.031-3.696 6.712l-15.855 3.599.584 7.295-4.476 1.071z"/><path fill="#FFF" d="M289.775 428.395l.097 2.724 13.229-2.918c1.167-.292 1.362-1.167 1.265-1.751-.097-.486-.486-1.167-1.848-.875-1.362.194-12.743 2.82-12.743 2.82z"/><path fill="#898989" d="M312.537 423.045c0-1.751-.097-4.28 4.669-4.961l15.369-2.529c1.848-.292 6.031.973 6.031 4.377l.195 8.852c.097 1.848-.097 4.28-5.058 5.058l-14.202 2.237c-2.529.486-6.615.097-6.809-4.669l-.195-8.365z"/><path fill="#FFF" d="M317.206 425.185s0 1.362 0 0-.097-2.724 2.432-3.21l11.77-1.945c1.265-.195 2.626.778 2.626 1.945l.097 5.447c0 .875-.389 2.237-2.335 2.626l-11.575 1.848c-1.556.292-2.626.292-2.821-1.751l-.194-4.96z"/><path fill="#898989" d="M377.224 419.64c-.875 0-1.556-.681-1.556-1.556s.681-1.556 1.556-1.556H395.9v-4.085h-20.914c-1.07 0-4.669.195-4.572 5.642 0 5.447 3.794 5.545 4.572 5.545h14.688c.875 0 1.556.681 1.556 1.556s-.681 1.459-1.556 1.459h-18.676v3.988h20.816c1.362 0 4.766.195 4.766-5.545 0-5.739-3.891-5.447-4.766-5.447.001-.001-14.59-.001-14.59-.001zm51.457-4.863l-1.07 18.774 4.377.584.486-8.074 15.369 2.918-.486 7.685 4.377.778 1.167-18.774-4.377-.778-.486 7.295-15.369-2.918.389-6.906-4.377-.584zm27.139 23.345l1.07-18.579 21.108 4.377-.292 3.794-16.634-3.502-.097 3.502 16.536 3.502-.292 3.794-16.536-3.599-.195 3.794 16.439 3.502-.292 3.794-20.815-4.379zm-31.322-19.649l.195-4.085-19.455-1.556c-1.654-.097-4.864-.292-5.155 5.155s-.389 7.879-.389 7.879c-.097 1.848 1.07 4.961 4.572 5.253l19.357 1.459.195-4.085-16.147-1.167c-1.556-.097-3.21-.486-3.015-3.307l.097-3.988c.097-1.556.584-3.015 3.113-2.821l16.632 1.263z"/><path fill="#FFF" d="M359.715 420.127l-13.618.778-.097-2.918 13.715-.681c1.07 0 1.459.389 1.556 1.362.194.875-.584 1.361-1.556 1.459z"/><path fill="#898989" d="M351.349 507.283c.195 1.167.681 1.556 1.751 1.556.875 0 1.459-.486 1.459-1.167 0-.389-.195-.584-.681-.875l-2.432-1.167c-1.07-.486-1.556-1.265-1.556-2.432 0-1.751 1.167-2.918 2.918-2.918 1.945 0 3.015 1.07 3.113 3.113h-1.556c-.195-1.07-.584-1.459-1.459-1.459-.778 0-1.362.486-1.362 1.07 0 .292.195.584.584.778l2.529 1.167c1.167.486 1.654 1.167 1.654 2.432 0 .875-.389 1.751-.973 2.335-.584.486-1.167.681-2.14.681-1.362 0-2.237-.486-2.821-1.362-.292-.486-.389-.973-.486-1.848h1.459c-.001-.001-.001.096-.001.096zm11.77-6.614v1.751h-2.335v7.879h-1.654v-7.879h-2.432v-1.751h6.421zm7.49 0v5.934c0 2.237-.681 3.891-3.21 3.891s-3.21-1.654-3.21-3.891v-5.934h1.654v5.934c0 1.556.389 2.14 1.556 2.14s1.556-.584 1.556-2.14v-5.934h1.654zm7.296 0v1.751h-2.335v7.879h-1.654v-7.879h-2.432v-1.751h6.421zm10.894 4.377h3.307v5.253h-1.07l-.195-1.265c-.584.973-1.362 1.362-2.335 1.362-2.14 0-3.696-2.043-3.696-4.961 0-3.113 1.556-5.155 3.891-5.155 1.945 0 3.21 1.167 3.405 3.307h-1.654c-.292-1.07-.875-1.556-1.751-1.556-1.362 0-2.237 1.265-2.237 3.307 0 1.945.875 3.307 2.237 3.307.973 0 1.654-.681 1.945-2.043h-1.751v-1.556h-.096zm7.101-4.377h1.848l2.724 9.63h-1.751l-.486-2.043h-2.918l-.584 2.043h-1.654l2.821-9.63zm9.046 0c1.167 0 1.556.097 2.043.584.486.486.778 1.265.778 2.237 0 1.07-.292 1.654-1.167 2.237.778.389.875.681.973 2.529.097 1.556.097 1.848.389 2.14h-1.848c-.195-.486-.195-.681-.195-1.556 0-1.459.195-2.335-1.362-2.335h-1.459v3.794h-1.654v-9.63h3.502zm10.117 0v1.751h-2.335v7.879h-1.654v-7.879h-2.432v-1.751h6.421zm-30.058 0v1.751h-2.335v7.879h-1.654v-7.879h-2.335v-1.751h6.324z"/><path fill="#FFF" d="M397.748 506.602l-.973-3.696-.973 3.696h1.946zm5.35-1.751h1.556c1.07 0 1.459-.292 1.459-1.265 0-.973-.389-1.265-1.459-1.265h-1.556v2.53z"/></svg>