<svg xmlns="http://www.w3.org/2000/svg" width="770.4" height="1202.4" viewBox="0 0 770.4 1202.4"><g fill="#898989"><path d="M604.103 911.211v-11.647l11.777-1.294c4.141-.518 5.824-4.271 6.341-5.047l29.377-47.883c2.329-3.753 0-7.118-2.977-7.377l-15.4-1.812v-11.777h66.907c3.753 0 6.212 2.588 7.765 4.788l39.083 59.789c3.106 4.788 5.435 8.541 9.447 9.059l12.294 1.424v11.906h-75.319v-11.906l9.577-1.165c4.659-.518 8.412-2.588 4.659-8.153l-3.624-5.435h-53.448l-4.141 6.729c-2.588 4.141 0 6.471 3.882 6.988l9.577 1.165v11.777h-55.777v-.129zm55.907-42.06h33.777l-17.083-26.789-16.694 26.789m-105.86-44.906h-86.19v11.777l10.741 1.165c4.012.647 5.694 3.494 5.694 7.377v46.848c0 3.235-1.424 6.341-4.918 6.859l-11.518 1.553v11.388h86.319c39.601 0 56.683-19.283 56.683-44.777.001-22.908-17.081-42.19-56.811-42.19zm-13.33 70.271h-22.259v-53.707h22.259c21.224 0 30.153 4.918 30.153 26.789 0 22.13-8.929 26.918-30.153 26.918M0 911.211h69.754v-11.647l-11.906-1.424c-2.718-.388-5.435-2.071-5.435-7.894v-13.977h53.707v13.33c0 3.882-.647 7.635-5.306 8.153l-12.165 1.424v11.906h69.754v-11.906l-12.294-1.424c-2.459-.388-5.177-2.2-5.177-7.118v-45.295c0-4.659 1.682-7.635 5.306-8.024l12.165-1.294v-11.777H88.519v11.647l12.165 1.553c4.141.518 5.306 3.753 5.306 8.024v13.459H52.283V845.21c0-5.177 2.071-7.506 5.694-7.894l11.777-1.294v-11.777H.129v11.777l11.647 1.294c4.659.518 5.824 3.882 5.694 8.412v44.13c0 4.918-1.424 7.894-5.824 8.412L0 899.693v11.518m161.767-43.872c0-27.306 22-46.46 71.307-46.46 48.918 0 70.919 19.153 70.919 46.46 0 28.083-22 46.977-70.919 46.977-49.306 0-71.307-19.023-71.307-46.977zm71.048-29.765c-19.8 0-31.059 7.377-31.059 29.895 0 22.906 11.259 30.283 31.059 30.283s31.059-7.377 31.059-30.283c.001-22.518-11.258-29.895-31.059-29.895m75.06 73.637h55.648v-11.647l-11.906-1.424c-3.365-.388-5.435-3.235-5.435-7.118v-44.26l46.33 61.083c1.553 2.071 4.4 3.365 7.118 3.365h43.742v-66c0-3.106.776-7.377 5.306-7.894l12.165-1.294v-11.777h-55.777v11.647l12.165 1.553c4.271.518 5.306 4.141 5.306 8.153v43.095l-45.942-60.695c-1.682-2.2-3.882-3.753-7.247-3.753h-61.472v11.777l11.647 1.294c4.141.647 5.694 2.718 5.694 8.412v44.13c0 5.177-1.424 7.765-5.824 8.412l-11.388 1.424v11.518M686.928 436.262c-2.071-35.33-7.377-73.895-33.518-99.907-23.812-23.942-58.236-30.542-90.331-34.812-60.307-8.153-119.708-10.353-180.662-10.353s-120.355 2.2-180.662 10.353c-32.095 4.271-66.519 11-90.331 34.812-26.142 26.142-31.318 64.707-33.518 99.907-2.459 40.895-.388 81.789 2.2 122.555 2.588 40.248 7.118 80.754 16.824 119.967 4.529 18.118 10.741 36.365 21.224 52.024 10.094 15.012 24.718 25.624 41.024 33.001 34.683 15.918 74.801 17.212 112.331 19.541 36.753 2.2 73.766 3.624 110.908 3.882 37.012-.129 74.025-1.553 110.908-3.882 37.53-2.329 77.519-3.624 112.331-19.541 16.306-7.506 30.93-18.118 41.024-33.001 10.483-15.659 16.694-33.906 21.224-52.024 9.835-39.212 14.365-79.719 16.824-119.966 2.588-40.896 4.659-81.661 2.2-122.556zM155.944 720.714c-23.424-25.236-26.53-67.942-31.059-100.554-6.471-47.236-8.671-95.766-8.153-143.52.388-37.401-2.329-84.766 21.353-116.343 12.553-16.694 33.389-22.259 52.283-27.695 10.094.388 6.082 16.177 6.6 22.518.518 37.918 2.718 75.707 4.271 113.625 5.565 90.201 12.035 180.015 23.812 269.569 2.976 28.471-60.954-8.671-69.107-17.6zm309.428 35.071c-3.753.647-16.306.647-30.153 1.035-17.6.388-35.071.518-52.671.518s-35.071 0-52.671-.518c-13.847-.388-26.53-.259-30.153-1.035-3.753-.647-7.635-.906-6.471-5.047 1.165-4.141 17.988-58.624 17.988-58.624 11.13-36.106 11.906-38.565 40.248-44.13 9.447-1.812 20.189-3.106 31.059-3.106 10.871.129 21.612 1.294 31.059 3.106 28.471 5.565 29.247 7.894 40.248 44.13 0 0 16.824 54.354 17.988 58.624 1.164 4.141-2.718 4.4-6.471 5.047zm49.565-424.089c-12.941 47.236-27.953 110.002-41.412 157.497-10.741 38.048-22.906 86.966-69.366 91.754-6.988.776-14.236 1.294-21.741 1.424-7.377-.129-14.753-.647-21.742-1.424-46.33-4.918-58.624-53.836-69.366-91.754-13.33-47.495-28.342-110.26-41.412-157.497-2.2-8.153 1.165-6.341 17.859-8.541 30.153-4.012 75.189-4.659 114.531-4.271 39.342-.388 84.378.259 114.531 4.271 16.954 2.2 20.318.388 18.118 8.541zM640.08 620.03c-4.529 32.612-7.635 75.319-31.059 100.555-8.282 8.93-72.213 46.071-69.107 17.471 11.777-89.554 18.247-179.367 23.812-269.569 1.682-37.789 3.753-75.707 4.271-113.625.518-6.341-3.365-22.13 6.6-22.518 19.024 5.565 39.859 11 52.283 27.695 23.683 31.577 20.965 79.072 21.353 116.343.647 47.881-1.553 96.412-8.153 143.648z"/></g></svg>