<svg xmlns="http://www.w3.org/2000/svg" width="770.4" height="1202.4" viewBox="0 0 770.4 1202.4"><path fill="#898989" d="M205.363 979.439v27.846h-40.608v-77.736c-.696-10.674-11.138-13.227-15.779-13.227H131.34v90.963H90.963v-90.963H57.316v90.963H16.94V880.122h136.676c19.028.696 41.769 2.32 48.962 22.973 4.177 14.387 2.553 32.719 2.553 48.498 0 .464.232.464.464 0 7.658-22.741 27.15-24.133 37.592-24.597h56.156v-1.392c-.232-5.337-.928-12.531-17.868-12.067h-66.366v-33.415h64.277c38.752 0 61.029 3.481 60.333 45.714v51.051l119.737-96.764h109.759c54.531 0 51.283 42.465 51.283 67.758 0 .464.464.464.696 0 3.713-14.155 18.796-20.652 34.111-20.652h58.708v-1.624c-.232-7.89-3.713-11.834-17.404-11.834H627.69v-33.415h66.134c35.039 0 61.029 1.392 60.565 45.714v81.217h-90.267c-19.028 0-45.946-3.017-45.946-34.807 0-.696-.464-.696-.464 0-4.873 19.724-15.315 34.807-53.371 34.807h-83.769v-96.3l-119.737 96.3h-116.72c-19.956 0-32.951-7.426-38.752-27.614.232-.699 0-.467 0-.234zm143.405-99.317v35.735h51.747l44.553-35.735h-96.3zm-48.73 94.676v-18.796h-47.802c-6.033.464-8.586 5.337-8.586 9.978s2.32 8.818 8.818 8.818h47.57zm413.974 0v-18.796H666.21c-6.033.464-8.586 3.945-8.586 9.514s2.32 9.282 8.586 9.05h47.802v.232zm-243.882-2.785h-50.587l-43.625 35.271h94.212v-35.271zm51.05-57.084v57.084s19.492-.232 35.503 0c23.437-.232 23.669-15.779 23.669-28.078 0-11.602.696-29.238-23.901-29.006-16.475-.232-35.271 0-35.271 0zM153.384 694.947c-21.116-12.995-27.846-29.47-59.868-42.697-32.023-41.769-44.321-93.979-44.321-145.958 0-38.056 6.497-76.112 16.94-110.223l32.255 64.045c-1.856 14.155-2.785 29.702-2.785 46.178 0 212.556 140.853 255.253 289.596 254.789 148.743.464 289.596-42.465 289.596-254.789 0-21.813-1.392-41.769-4.409-60.1l22.973-47.338c12.067 30.166 18.796 68.918 17.868 107.902-1.16 62.885-21.58 126.234-68.686 156.168l-7.658 11.37-8.122 10.442-8.586 9.514-9.282 8.818-9.746 8.122-10.21 7.426-10.674 6.961-10.906 6.265-11.37 5.569-11.834 5.105-12.067 4.409-12.299 3.945-12.531 3.481-12.995 3.017-12.995 2.553-13.227 2.088-13.459 1.624-13.691 1.392-13.691.928-13.923.696-13.923.464h-28.078l-13.923-.464-13.923-.696-13.691-.928-13.691-1.392-13.459-1.624-13.227-2.088-13.227-2.553-12.995-3.017-12.531-3.481-12.299-3.945-12.067-4.409-11.834-5.105-11.37-5.569-10.906-6.265-10.674-6.961-10.21-7.426-9.746-8.122-8.119-8.121zM66.366 312.3l-4.409-4.409C23.901 354.069 0 417.882 0 506.524c0 267.784 218.589 311.409 385.2 311.409s385.2-43.393 385.2-311.409c0-88.41-23.901-152.456-61.957-198.401l-4.409 4.177c-.696 23.437-4.873 47.57-8.122 70.543 16.708 35.735 24.597 78.432 25.525 123.682 2.32 132.964-65.206 272.889-336.238 281.939-170.555-1.392-277.53-53.835-321.387-163.826-29.006-18.332-43.161-52.211-56.388-85.162l-.696-8.818-.696-24.133.696-24.133 1.856-22.741 3.017-21.581 4.177-20.42 5.105-19.26 6.265-18.1 7.193-16.94 8.122-15.779 8.818-14.851 8.354-11.602c3.249 22.509 7.193 52.443 14.155 58.244 86.322 72.399 238.081 63.117 311.177 209.075 79.36-161.97 219.518-141.317 305.84-213.948l8.122-69.382c-100.477 108.83-237.385 71.934-313.729 234.6C301.895 380.29 167.075 419.738 66.366 312.3zm67.526 38.984c51.747-80.057 149.671-100.013 251.308-99.781 99.781-.232 196.313 19.028 248.988 96.532l62.189-47.106 3.713-2.785c-78.2-84.93-207.451-103.029-314.889-103.029-109.759 0-242.258 18.796-319.762 108.599l1.392 1.16 2.088 1.624 1.16.928c16.707 16.475 35.271 33.647 54.067 43.393 3.016 1.393 6.497 1.857 9.746.465zm556.683-54.299l-28.078 17.636c-83.073-73.095-171.716-90.963-277.298-90.267-106.742-.696-200.258 18.332-282.171 96.3l-28.774-17.636 8.122-8.586 11.834-10.906 12.531-10.21 12.995-9.282 13.691-8.586 14.155-7.658 14.619-6.961 14.851-6.265 15.315-5.801 15.547-5.105 15.779-4.409 16.011-3.945 16.243-3.249 16.243-2.785 16.475-2.32 16.475-1.856 16.243-1.392 16.243-1.16 16.011-.696 16.011-.464 15.547-.232 15.547.232 16.011.464 16.011.696 16.243 1.16 16.243 1.392 16.475 1.856 16.475 2.32 16.243 2.785 16.243 3.249 16.011 3.945 15.779 4.409 15.547 5.105 15.315 5.801 14.851 6.265 14.619 6.961 14.155 7.658 13.691 8.586 12.995 9.282 12.531 10.21 11.834 10.906 2.561 2.553zM384.272 638.096c-35.503-76.344-74.487-110.919-133.892-135.516l-148.743-50.122-20.42-56.852c36.664 28.078 90.499 47.106 141.781 66.83 79.128 30.166 122.289 68.686 161.274 147.583v28.077zm0 0c35.503-76.344 74.487-115.792 133.892-140.389l147.119-52.675 20.42-54.763c-36.664 28.078-94.444 49.426-145.958 69.15-79.128 30.166-116.488 71.935-155.472 150.831v27.846zM643.47 397.694l9.05-4.873 8.818-5.105 8.586-5.337 8.354-5.801 6.265-4.873 5.801-49.658-7.426 6.729-10.21 8.354-10.21 7.658-10.442 7.194-10.442 6.497-10.674 6.033-10.674 5.569-10.674 5.337-21.58 9.746c-17.636 7.658-35.503 14.851-53.371 22.509l-20.652 9.514-10.21 5.105-9.282 5.105c-24.365 20.652-36.432 40.84-41.537 62.189l6.729-5.337 10.21-7.426 10.21-6.961 10.442-6.265 10.442-5.801 10.442-5.337 10.442-5.105 10.674-4.641 21.116-8.586c20.42-7.89 41.073-15.315 61.493-23.437l9.746-4.177 9.514-4.177 9.05-4.642zm-177.749 48.73l-1.16.696-9.282 7.426-9.05 8.122-8.818 8.818-2.553 2.785c-8.586 16.011-12.299 30.63-11.834 44.785l7.194-7.89 9.514-9.514 4.177-3.945c2.552-16.94 9.745-33.88 21.812-51.283zm-214.877-25.061l-20.884-9.282c-17.636-7.193-35.503-14.155-53.371-21.348l-21.58-9.282-10.674-5.337-10.674-5.569-10.674-5.801-10.442-6.497-10.442-6.961-10.21-7.658-10.21-8.354-9.978-9.05-6.961-6.961c1.16 8.586 2.553 17.404 3.945 25.989l1.624 8.818 1.856 7.89 1.856 6.497 1.856 4.409 1.624 2.088 7.658 6.033 8.354 6.033 8.818 5.569 9.05 5.337 9.282 4.873 9.746 4.641 9.978 4.641 20.42 8.586c21.58 8.586 43.161 16.707 64.509 25.293l21.813 9.514 10.906 5.105 10.906 5.337 10.674 5.801 10.674 6.265 5.801 3.713c-12.763-20.42-28.775-40.376-45.25-60.332z"/></svg>