<svg xmlns="http://www.w3.org/2000/svg" width="770.4" height="1202.4" viewBox="0 0 770.4 1202.4"><path fill="#898989" d="M743.839 521.328c-7.175-2.014-15.106-2.895-31.722-5.035-69.109-2.895-239.932-9.441-326.917-9.441s-257.807 6.672-326.916 9.441c-16.742 2.014-24.673 3.021-31.722 5.035C4.784 526.363 0 534.168 0 549.777v106.622c0 15.609 16.616 26.058 28.198 28.198 11.455 2.14 18.756 3.021 30.841 4.154 61.808 3.776 205.188 11.833 326.161 11.959 120.973-.126 264.353-8.056 326.161-11.959 12.085-1.133 19.386-2.014 30.841-4.154s28.198-12.588 28.198-28.198V549.777c0-15.609-4.783-23.414-26.561-28.449z"/><path fill="#898989" d="M108.007 525.482C141.995 407.153 253.779 320.42 386.459 320.42c132.302 0 243.708 86.355 278.074 204.181.126.378.126.629.252 1.007 19.764-2.266 37.387-5.665 49.849-8.938-.252-.755-.252-.881-.504-1.636-38.898-140.485-170.948-243.708-327.672-243.708-157.353 0-289.655 103.979-328.175 244.967 17.372 4.783 29.961 6.797 49.724 9.189zm555.645 155.087a31.58 31.58 0 0 0-.881 2.769C626.643 798.269 516.622 881.98 386.459 881.98c-131.169 0-241.946-84.971-277.193-201.286-21.526 3.776-28.827 5.287-50.101 8.056 39.401 139.604 170.948 242.324 327.294 242.324s288.019-102.72 327.42-242.449c-18.757-2.392-29.834-4.154-50.227-8.056z"/><path fill="#898989" stroke="#898989" stroke-miterlimit="10" d="M114.931 525.23c8.182-3.399 16.113-8.812 28.449-12.211 36.758-95.671 131.673-163.773 242.953-163.773 110.902 0 205.566 67.725 242.575 162.892.126.378.252.755.378 1.007 6.42 2.266 25.176 9.819 30.967 12.336.881 0 2.643.126 4.406.126-.126-.378-.252-.629-.252-1.007-34.24-117.826-145.772-204.181-277.948-204.181-132.68 0-244.338 86.859-278.452 205.062 2.014.001 5.791-.125 6.924-.251z"/><path fill="#FFF" d="M384.319 328.476c124.12 0 234.141 74.019 275.682 195.999.126.252.252.629.378 1.007.629 0 3.021.126 4.406.126-.126-.503-.252-.755-.252-1.007C630.167 406.775 518.635 320.42 386.459 320.42c-132.68 0-244.338 86.859-278.452 205.062 2.644 0 3.902 0 6.924-.252 37.261-115.812 146.149-196.754 269.388-196.754z"/><path fill="#898989" stroke="#898989" stroke-miterlimit="10" d="M656.728 680.821c-8.938 5.035-20.015 9.819-28.827 12.588-.126.252-.629 1.511-.755 1.888-38.52 92.524-131.799 157.856-240.687 157.856-109.644 0-203.426-66.088-241.316-159.493-10.196-2.895-25.428-9.819-31.219-12.714-2.14-.126-3.273-.126-4.658-.252C144.513 797.009 255.29 881.98 386.459 881.98c130.54 0 240.939-84.215 276.689-199.649.126-.252.504-1.511.504-1.762-2.014 0-5.161.252-6.924.252z"/><path fill="#FFF" d="M385.2 523.845c67.473 0 184.544 3.525 270.773 6.42 1.636 0 3.273.126 4.909.126h1.259c11.833.378 21.652.755 29.457.881 22.155.629 32.352 1.007 45.569 2.518 13.721 1.636 28.324 7.553 28.324 18.882v98.944c0 10.574-15.232 19.638-27.694 19.638h-.252c-2.014.126-197.132 12.085-352.219 12.211-155.087-.126-350.205-12.085-352.219-12.211h-.378c-12.462 0-27.694-9.064-27.694-19.638v-98.944c0-11.329 14.602-17.246 28.198-18.882 13.218-1.636 23.288-1.888 45.569-2.518 7.805-.252 17.624-.504 29.456-.881h1.259c1.636 0 3.273-.126 4.909-.126 86.23-2.895 203.301-6.42 270.774-6.42m0-5.035c-68.606 0-190.082 3.651-271.025 6.42-2.14.126-4.154.126-6.168.252-44.562 1.511-57.025 1.259-75.404 3.525C14.35 531.273-.126 539.203-.126 552.925v98.944c0 13.595 17.372 24.673 32.729 24.673 0 0 195.495 12.085 352.471 12.211 157.101-.126 352.471-12.211 352.471-12.211 15.358 0 32.729-11.078 32.729-24.673v-98.944c0-13.595-14.351-21.652-32.729-23.918-18.253-2.266-30.841-2.014-75.404-3.525-2.014-.126-4.028-.126-6.168-.252-80.691-2.769-202.167-6.42-270.773-6.42z"/><path fill="#FFF" d="M541.672 572.813c-6.42-14.351-4.154-12.84-18.127-13.218-1.133-.378-4.154-.378-8.308-.378s-4.909 0-8.308.378c-13.218 0-10.952-.755-15.483 8.686 0 0-22.659 50.982-32.478 72.131l-.378.755c-1.888 3.776-.755 3.776 2.266 3.776h20.393c1.511 0 2.266-.755 2.644-1.511 0 0 3.021-6.42 6.798-15.484h49.849c3.776 8.686 6.42 15.106 6.42 15.484.378 1.133 1.511 1.511 2.644 1.511h21.148c3.021 0 3.776.378 2.643-2.266-3.651-9.062-28.198-61.933-31.723-69.864zm-43.43 37.01c6.42-15.106 12.84-29.834 12.84-30.212.378-.755 1.133-1.133 2.266-1.133.378-.378 1.511-.378 2.643-.378.755 0 1.888 0 2.266.378.755 0 1.511.378 1.888 1.511 1.511 4.154 7.175 16.994 12.462 29.834h-34.365zm-272.031-51.36c1.888 0 2.266.755 2.266 2.266v80.816c0 1.888-.378 2.644-2.644 2.644h-19.638c-2.266 0-2.644-.378-2.644-2.644v-80.816c0-1.511.378-2.266 1.888-2.266h20.772zm-41.919.755c2.266 0 2.644.755 2.644 2.644v80.439c0 2.266-.378 2.644-2.644 2.644h-23.036c-13.595 0-14.728 0-19.26-7.553-9.441-14.728-37.765-58.158-37.765-58.158v63.067c0 2.266-.378 2.644-2.644 2.644h-17.12c-2.266 0-2.644-.378-2.644-2.644v-80.439c0-1.888.378-2.644 2.644-2.644h19.638c14.728 0 16.616-.378 21.904 7.175 4.154 6.798 38.52 59.668 38.52 59.668v-64.2c0-1.888.378-2.644 2.644-2.644h17.119v.001zm504.41 0c2.266 0 2.643.755 2.643 2.644v80.439c0 2.266-.378 2.644-2.643 2.644h-23.036c-13.595 0-14.728 0-19.26-7.553-9.441-14.728-37.765-58.158-37.765-58.158v63.067c0 2.266-.378 2.644-2.643 2.644h-16.994c-2.266 0-2.644-.378-2.644-2.644v-80.439c0-1.888.378-2.644 2.644-2.644h19.638c14.728 0 16.617-.378 21.904 7.175 4.532 6.798 38.52 59.668 38.52 59.668v-64.2c0-1.888.378-2.644 2.643-2.644h16.993v.001zm-376.01 32.855c15.106 1.511 26.058 4.154 29.079 18.505 0 1.133.378 4.909.378 9.064 0 2.644 0 6.042-.755 9.064-2.644 13.595-12.84 16.239-28.701 16.239h-63.445c-2.266 0-2.644-.378-2.644-2.644v-13.595c0-2.266.378-2.643 2.644-2.643h64.2c2.644 0 3.399-.755 3.776-2.644v-5.665c-.378-1.511-.755-3.776-4.154-4.154-7.175-.378-28.324-2.266-42.674-3.776-18.505-1.888-23.036-9.819-23.792-16.616-.378-2.266-.378-5.287-.378-7.931 0-2.266 0-5.665.378-8.308 2.644-12.085 11.707-17.749 27.568-17.749h61.556c2.266 0 3.021.378 3.021 2.266v13.973c0 1.888-.755 2.644-3.021 2.266h-60.424c-2.644 0-3.776 1.133-4.154 3.776v3.399c0 1.888 1.133 3.399 3.776 3.776 7.176.754 29.458 2.642 37.766 3.397zm109.266 0c15.106 1.511 26.058 4.154 29.079 18.505 0 1.133.378 4.909.378 9.064 0 2.644 0 6.042-.755 9.064-2.644 13.595-12.84 16.239-28.701 16.239h-63.445c-2.266 0-2.644-.378-2.644-2.644v-13.595c0-2.266.378-2.643 2.644-2.643h64.2c2.644 0 3.399-.755 3.776-2.644v-5.665c-.378-1.511-1.133-3.776-4.154-4.154-7.175-.378-28.324-2.266-42.674-3.776-18.505-1.888-22.659-9.819-23.792-16.616-.378-2.266-.378-5.287-.378-7.931 0-2.266 0-5.665.378-8.308 2.644-12.085 11.707-17.749 27.568-17.749h61.556c2.266 0 3.021.378 3.021 2.266v13.973c0 1.888-.755 2.644-3.021 2.266H384.57c-2.644 0-3.776 1.133-4.154 3.776v3.399c0 1.888.755 3.399 3.776 3.776 7.176.754 29.457 2.642 37.766 3.397zM656.728 680.821c-38.394 113.798-146.275 193.104-268.129 193.104-123.113 0-232.379-72.886-274.675-193.104-1.511-.126-3.147-.126-4.658-.252 35.247 116.315 146.024 201.286 277.319 201.286s242.072-84.971 277.319-201.412c-2.518.252-4.784.252-7.176.378z"/></svg>