<svg xmlns="http://www.w3.org/2000/svg" width="770.4" height="1202.4" viewBox="0 0 770.4 1202.4"><g fill="#898989"><path d="M605.438 203.295c-36.85-3.725-134.231-9.179-225.892-9.179-91.793 0-189.041 5.454-225.892 9.179-42.039 4.257-61.595 25.543-61.595 67.182 0 79.155 2.927 202.345 8.381 274.715 4.789 64.521 8.647 115.474 88.867 164.297 57.471 34.855 114.675 64.788 189.041 103.234l1.33.665 1.33-.665c74.632-38.58 131.837-68.513 189.041-103.234 80.353-48.824 84.078-99.776 88.867-164.164 5.454-72.77 8.381-195.826 8.381-274.715-.264-41.772-19.82-63.058-61.859-67.315zm28.336 340.168c-4.656 61.728-7.583 102.569-76.894 144.608-54.411 33.125-102.436 58.269-174.94 95.918l-2.395 1.33-2.395-1.33c-70.242-36.451-120.396-62.792-174.94-95.918-69.444-42.172-72.504-82.88-77.16-144.741-5.321-71.971-8.248-194.363-8.248-272.853 0-28.735 9.845-39.511 39.112-42.438 36.451-3.592 132.768-9.046 223.497-9.046s186.913 5.454 223.364 9.046c29.268 2.927 39.112 13.703 39.112 42.438.268 78.49-2.658 200.749-8.113 272.986z"/><path d="M375.555 379.033l-8.647 29.134c-31.396-64.122-68.779-97.647-114.01-97.647-48.957 0-72.903 32.726-79.953 43.103 12.638-31.529 45.764-59.333 90.064-59.333 60.53 0 94.719 47.76 112.546 84.743zm-226.956 65.719c.399 106.693 31.396 158.044 77.825 158.044 21.418 0 36.85-13.569 36.85-35.52 0-18.758-8.115-33.658-11.441-39.644 1.33 6.12 2.395 13.17 2.395 21.019 0 18.359-12.372 24.345-22.483 24.345-30.864 0-61.728-59.998-70.375-128.245h-12.771zM496.084 294.29c44.3 0 77.426 27.671 90.064 59.333-7.051-10.377-30.997-43.103-79.953-43.103-45.232 0-82.614 33.658-114.01 97.647l-8.647-29.134c17.693-36.983 52.015-84.743 112.546-84.743zm101.638 150.462c-8.647 68.379-39.511 128.245-70.375 128.245-10.111 0-22.616-5.854-22.616-24.345 0-7.849 1.064-14.9 2.395-21.019-3.326 5.987-11.441 20.886-11.441 39.644 0 21.951 15.299 35.52 36.85 35.52 46.296 0 77.426-51.351 77.825-158.044h-12.638v-.001z"/><path d="M534.797 352.958c-39.644 0-78.357 31.529-101.505 104.432l15.033 10.377-7.184 35.786-27.937 11.574-5.055 35.254 13.703-16.762 14.634-6.12-4.523 22.749-25.276 10.51-8.913 60.93 6.12 19.423-24.345 9.578-24.345-9.578 6.12-19.423-8.913-60.93-25.276-10.51-4.523-22.749 14.634 6.12 13.702 16.762-5.055-35.254-27.937-11.574-7.184-35.786L325.8 457.39c-23.148-72.903-61.861-104.432-101.505-104.432-48.957 0-69.178 46.429-66.65 84.743h11.707c9.845 54.145 37.383 99.909 58.136 99.909 6.386 0 9.711-4.789 9.711-12.638 0-19.157-13.037-39.112-13.037-75.563 0-16.895 5.454-27.405 18.093-27.405 8.647 0 15.698 9.046 19.822 18.891-7.716 27.272-6.519 50.154 15.299 59.865 10.776 4.789 23.813 10.51 23.813 10.51s13.836 58.535 14.767 62.659c.931 3.858 3.193 9.179 5.055 12.372 2.528 4.39 20.62 35.52 20.62 35.52s6.12 30.997 7.45 37.516c3.592 17.827 16.23 17.827 30.465 17.827s27.006 0 30.465-17.827c1.33-6.519 7.45-37.516 7.45-37.516s18.093-30.997 20.62-35.52c1.729-3.193 4.124-8.514 5.055-12.372 1.064-4.124 14.767-62.659 14.767-62.659s13.037-5.72 23.813-10.51c21.685-9.711 22.882-32.46 15.299-59.865 4.257-9.844 11.308-18.891 19.822-18.891 12.638 0 18.093 10.51 18.093 27.405 0 36.451-13.037 56.539-13.037 75.563 0 7.849 3.326 12.638 9.711 12.638 20.753 0 48.291-45.897 58.136-99.909h11.707c2.527-38.314-17.694-84.743-66.65-84.743zM285.757 490.25c-15.432-6.652-17.028-24.744-11.84-49.09l16.895 26.607 6.253 27.405s-6.12-2.661-11.308-4.922zm187.445 0c-5.188 2.262-11.308 4.922-11.308 4.922l6.253-27.405 16.895-26.607c5.188 24.345 3.592 42.571-11.84 49.09zM175.871 968.773c31.263-13.836 26.607-37.649 26.607-37.649 0-38.048-51.484-36.318-51.484-36.318H0v113.478h82.481v-34.323h15.964l24.877 33.658h87.669l-35.12-38.846zm-74.499-22.616H81.816v-21.685l21.285-.399s10.909.399 10.909 10.909c0 9.845-12.638 11.175-12.638 11.175zm314.625-51.351H287.353l-59.2 112.813h86.871l9.845-22.483h57.338l9.445 22.35h87.669l-63.324-112.68zm-78.623 61.462l16.23-36.717 16.23 36.717h-32.46zm316.222 51.351l32.327-63.324v63.191H770.4V894.673H652.133l-17.693 35.121-17.694-35.121H498.479v112.813h84.344v-63.191l32.327 63.324h38.446z"/></g></svg>