<?xml version="1.0" encoding="utf-8"?>
<!-- Generator: Adobe Illustrator 17.0.2, SVG Export Plug-In . SVG Version: 6.00 Build 0)  -->
<!DOCTYPE svg PUBLIC "-//W3C//DTD SVG 1.1//EN" "http://www.w3.org/Graphics/SVG/1.1/DTD/svg11.dtd">
<svg version="1.1" id="Layer_1" xmlns="http://www.w3.org/2000/svg" xmlns:xlink="http://www.w3.org/1999/xlink" x="0px" y="0px"
	 width="770.4px" height="1202.4px" viewBox="0 0 770.4 1202.4" enable-background="new 0 0 770.4 1202.4" xml:space="preserve">
<path fill="#898989" d="M633.314,654.259h46.451L770.4,548.141h-46.451L633.314,654.259z M69.235,606.046
	c11.078,0,19.889-5.287,19.889-11.707c0-6.546-8.938-11.707-19.889-11.707l-39.024-0.252c-1.133,0-2.014,1.007-2.014,2.14v19.386
	c0,1.133,0.881,2.14,2.014,2.14C30.212,606.046,69.235,606.046,69.235,606.046z M3.902,616.117c-2.14,0-3.902-1.762-3.902-3.902
	v-36.002c0-2.14,1.762-4.028,3.902-4.028l76.285,0.252c21.526,0,38.898,9.819,38.898,21.778c0,12.085-17.372,21.778-38.898,21.778
	L3.902,616.117z M337.365,606.046c11.078,0,20.015-5.287,20.015-11.707c0-6.546-8.938-11.707-20.015-11.707l-39.024-0.252
	c-1.133,0-2.014,1.007-2.014,2.14v19.386c0,1.133,0.881,2.14,2.014,2.14C298.341,606.046,337.365,606.046,337.365,606.046z
	 M272.032,616.117c-2.14,0-3.902-1.762-3.902-4.028v-35.876c0-2.14,1.762-4.028,3.902-4.028l76.285,0.252
	c21.526,0,38.898,9.819,38.898,21.778c0,12.085-17.372,21.778-38.898,21.778C348.316,615.991,272.032,616.117,272.032,616.117z
	 M193.607,607.305c3.399,0,5.916-0.126,8.308-0.126c14.602-0.504,26.561-5.791,26.561-12.84c0-7.049-11.833-12.336-26.561-12.84
	c-2.644-0.126-5.539-0.126-8.308-0.126c-2.769,0-5.665,0.126-8.308,0.126c-14.602,0.504-26.561,5.791-26.561,12.84
	c0,7.049,11.833,12.336,26.561,12.84C187.691,607.305,190.208,607.305,193.607,607.305z M178.249,617.124
	c-26.939-0.881-48.716-10.196-48.716-22.785c0-12.588,21.904-22.029,48.716-22.785c4.909-0.126,10.322-0.252,15.358-0.252
	s10.322,0.126,15.358,0.252c26.939,0.755,48.716,10.196,48.716,22.785c0,12.588-21.904,21.904-48.716,22.785
	c-4.532,0.126-8.938,0.252-15.358,0.252C187.313,617.376,182.781,617.25,178.249,617.124z M523.293,574.576
	c0-1.259-0.881-2.266-2.14-2.266h-62.564c-4.658,0-9.441-0.126-13.973,0c-24.673,0.755-44.562,9.819-44.562,22.029
	c0,12.085,11.329,21.778,44.562,21.904h74.396c2.14,0,3.902-1.762,3.902-3.902v-18.001c0-2.14-1.762-3.902-3.902-3.902h-60.549
	c-1.133,0-2.14,1.007-2.14,2.266v5.161c0,1.259,0.881,2.266,2.14,2.266h33.988c1.133,0,2.14,1.007,2.14,2.266v2.643
	c0,1.259-0.881,2.266-2.14,2.266h-33.233c-3.021,0-5.035-0.126-7.175-0.126c-12.714-0.504-23.036-5.539-23.036-12.84
	c0-7.301,10.322-11.078,23.036-11.455c2.392-0.126,4.909-0.126,7.175-0.126h62.06c1.133,0,2.14-1.511,2.14-2.769v-5.413H523.293z
	 M543.938,616.117c-2.14,0-3.902-1.762-3.902-3.902v-36.002c0-2.14,1.762-3.902,3.902-3.902h104.608
	c0.881,0,1.511,0.629,1.511,1.511v7.049c0,0.881-0.629,1.511-1.511,1.511h-76.788c-1.636,0-2.895,1.259-2.895,2.895v1.511
	c0,1.636,1.259,2.895,2.895,2.895h73.012c0.881,0,1.511,0.629,1.511,1.511v6.042c0,0.881-0.629,1.511-1.511,1.511h-73.138
	c-1.636,0-2.895,1.259-2.895,2.895v1.636c0,1.636,1.259,2.895,2.895,2.895h78.425c0.881,0,1.511,0.629,1.511,1.511v6.798
	c0,0.881-0.629,1.511-1.511,1.511L543.938,616.117L543.938,616.117z"/>
<path fill="#898989" d="M571.506,606.298c-1.636,0-2.895-1.259-2.895-2.895v-1.636c0-1.636,1.259-2.895,2.895-2.895h44.94
	l7.679-9.064h-52.493c-1.636,0-2.895-1.259-2.895-2.895v-1.511c0-1.636,1.259-2.895,2.895-2.895h58.913l8.56-10.071h-95.167
	c-2.14,0-3.902,1.762-3.902,3.902v36.002c0,2.14,1.762,3.902,3.902,3.902h57.78l8.434-9.819L571.506,606.298z"/>
<path fill="#898989" d="M571.632,584.017c-0.629,0-1.259,0.504-1.259,1.259v1.511c0,0.629,0.503,1.259,1.259,1.259h53.878
	l3.525-4.154L571.632,584.017L571.632,584.017z M571.506,600.508c-0.629,0-1.259,0.504-1.259,1.259v1.636
	c0,0.629,0.504,1.259,1.259,1.259h39.905l3.525-4.154H571.506z M648.168,616.117h1.762c0.881,0,1.511-0.629,1.511-1.511v-2.392
	L648.168,616.117L648.168,616.117z"/>
<path fill="#898989" d="M648.546,582.381c0.881,0,1.511-0.629,1.511-1.511v-6.924c0-0.881-0.629-1.511-1.511-1.511h-9.441
	l-8.56,10.071C630.545,582.506,648.546,582.381,648.546,582.381z"/>
<path fill="#898989" d="M651.693,573.821v7.049c0,1.762-1.385,3.147-3.147,3.147H629.16l-3.525,4.154h19.134
	c1.762,0,3.147,1.385,3.147,3.147v5.916c0,1.762-1.385,3.147-3.147,3.147h-29.582l-3.525,4.154h38.394
	c1.762,0,3.147,1.385,3.147,3.147v2.518l52.996-62.06h-46.451l-19.26,22.533h7.931C650.308,570.674,651.693,572.058,651.693,573.821
	L651.693,573.821z"/>
<path fill="#898989" d="M644.643,598.871c0.881,0,1.511-0.629,1.511-1.511v-5.916c0-0.881-0.629-1.511-1.511-1.511h-20.519
	l-7.679,9.064L644.643,598.871z M569.114,654.259h46.451l31.093-36.506h-46.451L569.114,654.259z M651.441,607.809
	c0-0.881-0.629-1.511-1.511-1.511h-39.779l-8.434,9.819h46.451l3.273-3.902V607.809z"/>
</svg>
