<svg xmlns="http://www.w3.org/2000/svg" width="770.4" height="1202.4" viewBox="0 0 770.4 1202.4"><path fill="#898989" d="M94.744 649.155c-26.069 0-35.894-18.482-33.656-64.784H.486c-11.867 165.072 188.904 131.902 190.849 48.053v-181.9h-60.99V613.65c0 20.525-12.159 35.505-35.601 35.505zM622.643 533.79c146.201-102.136 182.386 235.011.486 149.703v63.422h-56.515V519.88h56.126l-.097 13.91zm33.462 124.217c18.287 0 33.17-22.081 33.17-49.317s-14.883-49.317-33.17-49.317-33.17 22.081-33.17 49.317 14.785 49.317 33.17 49.317zm-270.613-38.423c-6.712-132.875 182.095-135.306 172.562 1.945H445.995c.681 50.095 48.247 42.119 54.278 17.801h55.835c-10.992 80.445-164.974 90.756-170.616-19.746zm116.727-34.142c0-15.466-12.548-28.015-28.015-28.015s-28.015 12.548-28.015 28.015h56.03zm-299.113 34.337c-6.712-132.875 182.192-135.306 172.562 1.945H263.512c.681 50.095 48.247 42.119 54.278 17.801h55.835c-10.895 80.445-164.975 90.95-170.519-19.746zm116.629-34.143c0-15.466-12.548-28.015-28.015-28.015-15.466 0-28.015 12.548-28.015 28.015h56.03z"/><path fill="#898989" d="M713.009 724.542c0 15.077 12.256 27.431 27.431 27.431 15.077 0 27.431-12.256 27.431-27.431 0-15.077-12.256-27.431-27.431-27.431a27.337 27.337 0 0 0-27.431 27.431zm3.794 0c0-13.035 10.603-23.54 23.54-23.54s23.54 10.603 23.54 23.54-10.603 23.54-23.54 23.54c-12.937-.098-23.54-10.7-23.54-23.54z"/><path fill="#898989" d="M727.892 710.243h15.369c8.074 0 9.63 6.031 9.63 8.657 0 3.307-1.751 6.225-4.766 7.295 2.529 1.07 3.891 2.043 3.891 7.782 0 4.475 0 5.545 1.362 6.031v.778h-7.004c-.486-1.459-.681-3.015-.681-6.128 0-4.183-.292-5.739-4.961-5.739h-6.615v11.965h-6.225v-30.641zm13.715 13.423c3.307 0 4.961-1.167 4.961-4.183 0-1.556-.778-3.988-4.474-3.988h-7.976v8.171h7.489z"/></svg>