<svg xmlns="http://www.w3.org/2000/svg" width="770.4" height="1202.4" viewBox="0 0 770.4 1202.4"><g fill="#898989"><path d="M384.811 415.895C172.27 415.895 0 498.869 0 601.2s172.27 185.305 384.811 185.305S769.622 703.531 769.622 601.2s-172.27-185.305-384.811-185.305zM759.7 601.2c0 96.786-167.795 175.285-374.889 175.285-206.996 0-374.889-78.499-374.889-175.285s167.795-175.285 374.889-175.285C591.807 425.914 759.7 504.316 759.7 601.2z"/><path d="M622.837 516.573h-64.589l-7.879 22.47h41.73l-47.664 16.536-3.113 9.144 73.344-24.124 8.171-24.026zM100.872 659.077h64.589l7.879-22.47h-41.827l47.664-16.536 3.113-9.046-73.344 24.026-8.074 24.026zm183.748-21.011c12.159-38.812-28.793-37.839-28.793-37.839H214c3.015 3.405.681 10.505.681 10.505s-25.972 74.316-28.015 80.055c-2.043 5.739-5.739 9.727-5.739 9.727H214c-.973 0-.973-3.307-.973-3.307l11.867-31.516s14.785 29.085 15.855 31.03c.973 2.043.486 3.696.486 3.696h35.407c-3.405 0-6.906-6.42-6.906-6.42l-17.606-31.614c24.611.196 32.49-24.317 32.49-24.317zm-28.793-3.404c-4.669 9.922-17.12 8.852-17.12 8.852h-6.42l6.809-20.135s3.696-.097 7.004-.097c15.077-.001 9.727 11.38 9.727 11.38zm94.452-36.964c-32.295 0-53.403 24.513-58.85 54.959-4.961 28.015 10.797 50.387 36.964 50.387 36.575 0 58.266-35.894 58.266-61.574.097-26.944-10.992-43.772-36.38-43.772zm4.766 55.835c-5.253 20.914-15.272 27.528-24.415 25.777-12.354-2.335-10.311-21.497-8.268-30.349 4.377-19.455 15.175-28.695 23.248-27.723 2.821.292 17.412.584 9.435 32.295zm40.369-52.917s2.529 1.362 2.529 7.782v86.767s-.389 4.766-2.14 5.739h27.139s0-2.043 2.724-5.35c2.724-3.405 59.045-78.985 59.045-78.985s12.84-15.855 16.245-15.855h-38.909s3.015 2.043.681 5.739c-2.335 3.696-36.866 55.348-36.866 55.348l.389-52.138s-.097-8.365 3.307-9.046h-34.144v-.001zm164.099 23.735l8.755-23.735h-65.854s2.335 2.043-.681 10.505c-3.015 8.463-29.668 80.347-29.668 80.347s-4.766 9.435-6.031 9.435h67.896l8.074-24.026s-1.07 1.362-7.393 1.362h-28.695l6.031-16.245h22.275s4.766-.292 5.739 1.07l9.144-25.583s-.681 2.335-6.712 2.335h-21.595l6.42-17.898h27.236c.001.001 3.697-.485 5.059 2.433zm-348.431-68.286h-26.264s24.415-64.978 26.361-69.842c2.432-6.225 4.28-7.685 5.058-7.976.097-.097.195-.097.292-.097h-36.088c4.475 2.14.486 10.603.486 10.603s-29.085 81.028-31.127 85.114c-2.043 4.085-3.502 4.572-3.502 4.572h62.935l8.755-24.026c-.875 2.236-6.906 1.652-6.906 1.652zm110.307 22.179h29.668s-2.043-3.015-.778-6.323c1.751-4.572 17.509-47.372 17.509-47.372l6.809 53.695h26.847l35.213-95.425s1.459-4.475 3.405-4.475l-28.501-.097s.778 3.307-.195 5.836-17.217 45.815-17.217 45.815l-6.323-51.652h-30.641s1.556 2.529.584 5.35c-.778 2.237-32.489 89.102-32.489 89.102s-2.043 5.546-3.891 5.546zm169.255-99.997h-33.656s2.529 4.085-.778 13.424c-3.307 9.338-29.085 78.985-29.085 78.985s-2.043 6.517-4.766 7.782h40.563s49.123 1.848 64.297-49.804c-.195 0 19.065-50.873-36.575-50.387zm3.501 54.765c-8.56 20.914-21.303 22.373-28.209 22.373h-4.669l19.746-55.64h7.587c.001.097 19.65-1.071 5.545 33.267zm-176.16 45.426s-2.432-1.362-2.821-5.35l-4.085-88.129s-.195-5.642 2.529-6.809H281.41s2.237 2.821-2.043 9.144-59.239 87.837-59.239 87.837-1.07 2.043-3.891 3.307h32.489s-.097-2.529.778-4.085c1.556-2.918 5.545-10.019 5.545-10.019h32.684l.097 8.852s.195 3.015-2.237 5.35h32.392v-.098zm-48.929-36.866l18.093-29.376.292 29.376h-18.385zm381.407 96.494c12.159-38.812-28.793-37.839-28.793-37.839h-41.827c3.015 3.405.681 10.505.681 10.505s-25.972 74.316-28.015 80.055c-2.043 5.739-5.739 9.727-5.739 9.727h33.073c-.973 0-.973-3.307-.973-3.307l11.867-31.516s14.785 29.085 15.758 31.03c1.07 2.043.486 3.696.486 3.696h35.407c-3.405 0-6.809-6.42-6.809-6.42l-17.606-31.614c24.611.196 32.49-24.317 32.49-24.317zm-28.89-3.404c-4.669 9.922-17.12 8.852-17.12 8.852h-6.42l6.906-20.135s3.696-.097 7.004-.097c15.077-.001 9.63 11.38 9.63 11.38z"/></g></svg>