<svg xmlns="http://www.w3.org/2000/svg" xmlns:xlink="http://www.w3.org/1999/xlink" width="770.4" height="1202.4" viewBox="0 0 770.4 1202.4"><path fill="#898989" d="M333.294 650.569c132.199 0 239.234-54.977 239.234-122.717S465.493 405.135 333.294 405.135c-132.108 0-239.234 54.976-239.234 122.717s107.126 122.717 239.234 122.717zm44.948-60.264c-3.92 9.208-10.849 28.993-26.531 36.833-4.832 2.279-10.758 3.464-15.955 3.647-1.185.182-2.006 0-2.279 0-44.218 0-85.245-6.017-119.708-16.593-.274-.182-1.094-.456-1.094-.456-3.465-1.094-5.106-2.553-5.106-4.376 0-1.55.729-2.735 2.006-3.92.456-.456 1.185-1.094 2.097-2.006 7.841-6.656 32.001-23.978 76.858-41.392 15.864-6.017 35.648-13.585 56.344-17.961 12.216-2.37 57.255-9.117 33.368 46.224zm121.076-123.629c.729-1.55 2.006-2.826 4.103-2.826 1.185-.182 2.553.182 4.832 1.641 28.081 17.323 44.856 38.93 44.856 62.361 0 42.395-54.338 78.681-131.925 94.636-5.014 1.094-8.297 1.094-9.482-.273-.729-.912-1.094-2.097 0-3.738.456-.912 1.094-1.641 2.097-2.735 42.304-49.962 74.578-123.629 83.604-145.054.547-1.732 1.276-3.1 1.915-4.012zm-210.242-1.641c3.92-9.208 10.849-28.993 26.531-36.833 4.832-2.37 10.758-3.465 15.955-3.647h2.37c44.036 0 85.154 6.2 119.526 16.593.273 0 1.094.273 1.368.456 3.191 1.094 4.832 2.553 4.832 4.376 0 1.641-.912 2.735-2.006 3.92a53.328 53.328 0 0 1-2.097 2.006c-8.023 6.656-31.819 23.978-76.858 41.21-15.864 6.2-35.648 13.585-56.344 18.143-12.216 2.371-57.164 9.209-33.277-46.224zm-43.307-31.819c5.014-1.094 8.935-1.094 9.938.274.729.729 1.094 2.097 0 3.738-.456.912-1.094 1.641-2.006 2.826-42.395 49.962-74.578 123.629-83.604 144.872-.729 1.55-1.368 3.009-2.006 3.92-.912 1.55-2.097 2.735-4.103 2.826-1.094 0-2.553-.274-5.014-1.641-28.081-17.323-45.403-38.93-45.403-62.361.273-42.212 54.611-78.59 132.198-94.454z"/><path fill="#898989" d="M333.294 650.569c132.199 0 239.234-54.977 239.234-122.717S465.493 405.135 333.294 405.135c-132.108 0-239.234 54.976-239.234 122.717s107.126 122.717 239.234 122.717zm44.948-60.264c-3.92 9.208-10.849 28.993-26.531 36.833-4.832 2.279-10.758 3.464-15.955 3.647-1.185.182-2.006 0-2.279 0-44.218 0-85.245-6.017-119.708-16.593-.274-.182-1.094-.456-1.094-.456-3.465-1.094-5.106-2.553-5.106-4.376 0-1.55.729-2.735 2.006-3.92.456-.456 1.185-1.094 2.097-2.006 7.841-6.656 32.001-23.978 76.858-41.392 15.864-6.017 35.648-13.585 56.344-17.961 12.216-2.37 57.255-9.117 33.368 46.224zm121.076-123.629c.729-1.55 2.006-2.826 4.103-2.826 1.185-.182 2.553.182 4.832 1.641 28.081 17.323 44.856 38.93 44.856 62.361 0 42.395-54.338 78.681-131.925 94.636-5.014 1.094-8.297 1.094-9.482-.273-.729-.912-1.094-2.097 0-3.738.456-.912 1.094-1.641 2.097-2.735 42.304-49.962 74.578-123.629 83.604-145.054.547-1.732 1.276-3.1 1.915-4.012zm-210.242-1.641c3.92-9.208 10.849-28.993 26.531-36.833 4.832-2.37 10.758-3.465 15.955-3.647h2.37c44.036 0 85.154 6.2 119.526 16.593.273 0 1.094.273 1.368.456 3.191 1.094 4.832 2.553 4.832 4.376 0 1.641-.912 2.735-2.006 3.92a53.328 53.328 0 0 1-2.097 2.006c-8.023 6.656-31.819 23.978-76.858 41.21-15.864 6.2-35.648 13.585-56.344 18.143-12.216 2.371-57.164 9.209-33.277-46.224zm-43.307-31.819c5.014-1.094 8.935-1.094 9.938.274.729.729 1.094 2.097 0 3.738-.456.912-1.094 1.641-2.006 2.826-42.395 49.962-74.578 123.629-83.604 144.872-.729 1.55-1.368 3.009-2.006 3.92-.912 1.55-2.097 2.735-4.103 2.826-1.094 0-2.553-.274-5.014-1.641-28.081-17.323-45.403-38.93-45.403-62.361.273-42.212 54.611-78.59 132.198-94.454z"/><defs><path id="a" d="M333.294 650.569c132.199 0 239.234-54.977 239.234-122.717S465.493 405.135 333.294 405.135c-132.108 0-239.234 54.976-239.234 122.717s107.126 122.717 239.234 122.717zm44.948-60.264c-3.92 9.208-10.849 28.993-26.531 36.833-4.832 2.279-10.758 3.464-15.955 3.647-1.185.182-2.006 0-2.279 0-44.218 0-85.245-6.017-119.708-16.593-.274-.182-1.094-.456-1.094-.456-3.465-1.094-5.106-2.553-5.106-4.376 0-1.55.729-2.735 2.006-3.92.456-.456 1.185-1.094 2.097-2.006 7.841-6.656 32.001-23.978 76.858-41.392 15.864-6.017 35.648-13.585 56.344-17.961 12.216-2.37 57.255-9.117 33.368 46.224zm121.076-123.629c.729-1.55 2.006-2.826 4.103-2.826 1.185-.182 2.553.182 4.832 1.641 28.081 17.323 44.856 38.93 44.856 62.361 0 42.395-54.338 78.681-131.925 94.636-5.014 1.094-8.297 1.094-9.482-.273-.729-.912-1.094-2.097 0-3.738.456-.912 1.094-1.641 2.097-2.735 42.304-49.962 74.578-123.629 83.604-145.054.547-1.732 1.276-3.1 1.915-4.012zm-210.242-1.641c3.92-9.208 10.849-28.993 26.531-36.833 4.832-2.37 10.758-3.465 15.955-3.647h2.37c44.036 0 85.154 6.2 119.526 16.593.273 0 1.094.273 1.368.456 3.191 1.094 4.832 2.553 4.832 4.376 0 1.641-.912 2.735-2.006 3.92a53.328 53.328 0 0 1-2.097 2.006c-8.023 6.656-31.819 23.978-76.858 41.21-15.864 6.2-35.648 13.585-56.344 18.143-12.216 2.371-57.164 9.209-33.277-46.224zm-43.307-31.819c5.014-1.094 8.935-1.094 9.938.274.729.729 1.094 2.097 0 3.738-.456.912-1.094 1.641-2.006 2.826-42.395 49.962-74.578 123.629-83.604 144.872-.729 1.55-1.368 3.009-2.006 3.92-.912 1.55-2.097 2.735-4.103 2.826-1.094 0-2.553-.274-5.014-1.641-28.081-17.323-45.403-38.93-45.403-62.361.273-42.212 54.611-78.59 132.198-94.454z"/></defs><use xlink:href="#a" overflow="visible" fill="#898989"/><clipPath id="b"><use xlink:href="#a" overflow="visible"/></clipPath><g fill="#898989" clip-path="url(#b)"><path d="M333.294 405.135c-132.108 0-239.234 54.794-239.234 122.535s107.127 122.535 239.234 122.535c132.199 0 239.234-54.977 239.234-122.535 0-67.74-107.035-122.535-239.234-122.535"/><path d="M324.086 414.526l-7.111.456c-15.226.729-27.351 9.208-35.739 25.528l-1.368 2.37c-15.226 27.169-31.09 62.908-20.058 78.955 11.305 16.411 37.472 13.311 72.937 3.465 31.09-8.57 95.274-32.457 139.584-67.467 3.465-2.826 8.114-7.111 7.385-11.761-.638-4.194-5.47-7.841-14.314-11.214-39.021-13.585-84.698-20.696-132.563-20.696l-8.753.364zm-7.112.912l7.111-.274 8.935-.273c47.683 0 93.451 7.111 132.381 20.696 8.57 3.191 13.311 6.747 14.04 10.758.729 4.559-3.738 8.57-7.203 11.488-44.401 35.01-108.494 58.897-139.493 67.285-35.283 9.847-61.267 12.946-72.481-3.282-2.097-3.009-3.647-7.203-3.647-13.767 0-12.399 5.561-32.275 23.705-64.732l1.368-2.37c8.298-16.321 20.15-24.982 35.284-25.529zm173.865 32.822c-3.191 1.185-5.744 4.194-7.841 9.026-28.81 67.193-62.635 118.341-95.092 163.471-3.738 5.288-4.65 9.391-3.009 12.217 2.553 4.194 10.394 4.65 16.32 3.738 96.004-14.77 163.197-59.809 163.197-109.406 0-28.081-24.799-57.803-64.641-78.043-3.373-1.55-6.382-2.006-8.934-1.003zM385.353 632.882c-1.641-2.735-.638-6.656 2.826-11.761 32.457-45.13 66.282-96.277 95.092-163.653 2.006-4.65 4.559-7.658 7.567-8.752 2.553-.912 5.47-.638 8.752 1.094 39.66 20.058 64.276 49.689 64.276 77.587 0 49.506-66.829 94.18-162.741 108.95-6.108.911-13.493.364-15.772-3.465zm-51.968-102.203c-33.551 9.208-84.06 25.984-135.39 63.82-5.561 4.103-11.761 9.482-11.032 15.135.638 4.194 5.288 7.841 13.767 11.032 61.906 21.425 113.964 22.064 147.607 20.696 12.673-.638 26.075-3.191 38.474-27.898l2.097-3.92c8.752-16.32 32.001-59.809 16.776-78.043-12.946-15.592-44.218-8.663-72.299-.822zm-132.472 89.53c-8.479-3.009-12.946-6.656-13.402-10.758-.729-5.288 5.47-10.758 10.849-14.679 51.33-37.927 101.839-54.521 135.207-63.82 28.081-7.658 58.988-14.679 71.661.638 3.465 4.194 4.832 9.664 4.832 15.955 0 20.969-15.59 50.144-21.608 61.45l-2.097 3.92c-12.217 24.616-25.528 27.169-38.019 27.625-33.823 1.733-85.7 1.095-147.423-20.331z"/><path d="M200.639 619.571c0-.182.182-.273.182-.273l-.182-.182v.455zm0 .182c.182 0 .182 0 .182-.182l-.182.182zm.092.183l-.274-.182.274.182zm65.825-200.942c-96.46 14.405-163.744 59.353-163.744 109.588 0 38.748 42.759 65.917 61.085 75.946l.638.273c1.185.729 3.009 1.823 6.929 2.826 6.382 2.006 10.849-1.094 13.585-8.935l3.92-10.394c29.722-71.114 79.41-140.495 90.26-153.806 3.647-4.559 4.65-8.297 3.009-11.214-2.371-3.92-9.755-5.196-15.682-4.284zm-95.092 188.087c-3.738-1.185-5.561-2.097-6.747-2.826l-.638-.273c-18.417-9.847-60.811-37.016-60.811-75.49 0-49.962 67.193-94.636 163.471-108.95 5.744-.912 12.855.274 15.134 4.103 1.55 2.735.456 6.2-3.009 10.576-10.758 13.311-60.538 82.875-90.26 153.989l-3.92 10.394c-2.917 7.382-7.202 10.3-13.22 8.477z"/></g><g><defs><path id="c" d="M333.294 650.569c132.199 0 239.234-54.977 239.234-122.717S465.493 405.135 333.294 405.135c-132.108 0-239.234 54.976-239.234 122.717s107.126 122.717 239.234 122.717zm44.948-60.264c-3.92 9.208-10.849 28.993-26.531 36.833-4.832 2.279-10.758 3.464-15.955 3.647-1.185.182-2.006 0-2.279 0-44.218 0-85.245-6.017-119.708-16.593-.274-.182-1.094-.456-1.094-.456-3.465-1.094-5.106-2.553-5.106-4.376 0-1.55.729-2.735 2.006-3.92.456-.456 1.185-1.094 2.097-2.006 7.841-6.656 32.001-23.978 76.858-41.392 15.864-6.017 35.648-13.585 56.344-17.961 12.216-2.37 57.255-9.117 33.368 46.224zm121.076-123.629c.729-1.55 2.006-2.826 4.103-2.826 1.185-.182 2.553.182 4.832 1.641 28.081 17.323 44.856 38.93 44.856 62.361 0 42.395-54.338 78.681-131.925 94.636-5.014 1.094-8.297 1.094-9.482-.273-.729-.912-1.094-2.097 0-3.738.456-.912 1.094-1.641 2.097-2.735 42.304-49.962 74.578-123.629 83.604-145.054.547-1.732 1.276-3.1 1.915-4.012zm-210.242-1.641c3.92-9.208 10.849-28.993 26.531-36.833 4.832-2.37 10.758-3.465 15.955-3.647h2.37c44.036 0 85.154 6.2 119.526 16.593.273 0 1.094.273 1.368.456 3.191 1.094 4.832 2.553 4.832 4.376 0 1.641-.912 2.735-2.006 3.92a53.328 53.328 0 0 1-2.097 2.006c-8.023 6.656-31.819 23.978-76.858 41.21-15.864 6.2-35.648 13.585-56.344 18.143-12.216 2.371-57.164 9.209-33.277-46.224zm-43.307-31.819c5.014-1.094 8.935-1.094 9.938.274.729.729 1.094 2.097 0 3.738-.456.912-1.094 1.641-2.006 2.826-42.395 49.962-74.578 123.629-83.604 144.872-.729 1.55-1.368 3.009-2.006 3.92-.912 1.55-2.097 2.735-4.103 2.826-1.094 0-2.553-.274-5.014-1.641-28.081-17.323-45.403-38.93-45.403-62.361.273-42.212 54.611-78.59 132.198-94.454z"/></defs><use xlink:href="#c" overflow="visible" fill="#898989"/><clipPath id="d"><use xlink:href="#c" overflow="visible"/></clipPath><g clip-path="url(#d)"><path opacity=".37" fill="#898989" d="M333.294 405.135c-132.108 0-239.234 54.794-239.234 122.535s107.127 122.535 239.234 122.535c132.199 0 239.234-54.977 239.234-122.535 0-67.74-107.035-122.535-239.234-122.535zm166.297 202.584c-44.218 22.611-103.206 35.192-166.206 35.192s-121.896-12.582-166.115-35.192c-42.577-21.881-65.917-50.236-65.917-79.958s23.431-58.076 65.917-79.957c44.218-22.793 103.206-35.192 166.206-35.192s121.988 12.491 166.206 35.192c42.577 21.881 65.917 50.236 65.917 79.957s-23.431 58.077-66.008 79.958z"/></g></g><g><path fill="#898989" d="M60.964 699.346v37.289H18.752v-37.289H-4.679v97.918h23.431v-39.386h42.212v39.386h23.249v-97.918H60.964zm108.859 0l-24.434 38.748-24.343-38.748H93.422l40.298 64.003v33.916h23.249v-33.916l40.298-64.003H169.823zm102.477 0v71.843c0 2.735-2.097 5.014-5.014 5.014h-37.472v-76.675h-23.249v97.918H275.4c6.2 0 11.032-1.823 14.679-5.47 3.647-3.647 5.47-8.479 5.47-14.679v-77.861H272.3v-.09zm113.782 0h-68.926v97.918h23.249v-76.675h37.472c3.009 0 5.014 2.37 5.014 4.832v71.843h23.431v-77.861c0-6.2-1.823-11.032-5.47-14.679-3.738-3.646-8.752-5.378-14.77-5.378zm110.5 0h-68.835v97.918h68.835c6.017 0 11.032-1.823 14.679-5.47s5.47-8.479 5.47-14.679V719.13c0-6.2-1.823-11.032-5.47-14.679-3.647-3.373-8.479-5.105-14.679-5.105zm-3.282 26.258v45.404c0 2.735-2.006 5.106-5.014 5.106h-37.289v-55.523h37.107c3.19-.002 5.196 2.095 5.196 5.013zm64.003-26.258c-6.2 0-11.032 1.823-14.679 5.47-3.647 3.647-5.47 8.479-5.47 14.679v77.861h23.249v-30.36h42.304v30.36h23.249v-98.009h-68.653v-.001zm45.585 21.243v25.163h-42.304v-20.24c0-2.37 1.823-5.014 5.014-5.014l37.29.091zm45.86-21.243h23.249v97.918h-23.249v-97.918z"/></g><g><path fill="#898989" d="M698.801 699.346v2.826h-3.92v14.314h-3.647v-14.314h-3.92v-2.826h11.487zm1.732 17.14v-17.049h5.744l2.735 11.579 2.826-11.579h5.561v17.049h-3.465v-13.129l-3.282 13.129h-3.464l-3.191-13.129v13.129h-3.464z"/></g></svg>