<svg xmlns="http://www.w3.org/2000/svg" viewBox="0 0 600 99.2"><path fill="#21404C" d="M593.5 49.9c-4.1 0-210.8-2-217.9-2-7 0-10-.2-19.3 2.6-5.2 1.6-14.1 4.6-21.4 4.9-7 .3-34.9.2-34.9.2s-27.8.1-34.9-.2c-7.4-.3-16.2-3.3-21.4-4.9-9.4-2.8-12.3-2.6-19.3-2.6s-213.8 1.9-217.9 2c-6.3 0-8.9 2.2-4 6.6 4.4 4 20.6 11.8 30.3 14.2 16.2 3.9 114.9 16 133.1 18 40 4.4 95.3 10.6 98.1 10.4 9.4-.6 17.9-4.1 35.9-4.1s26.5 3.5 35.9 4.1c2.8.2 58.1-6 98.1-10.4 18.2-2 116.9-14.1 133.1-18 9.8-2.4 25.9-10.2 30.3-14.2 5-4.4 2.4-6.5-3.8-6.6M391.9 64.4c2.3.1 11.8 0 18.8-.2-.2.1-.4.2-.5.4-2.8 2-6 4-8.8 5.5h-.9c-2.8 0-31 .1-31 .1s12.5.8 12.7 1.7c1.8 0 10.4-.3 16.8-.4-1.3.7-2.4 1.3-3.1 1.7 5.7-3.1-2.4 1.5-.8.4.2-.1.4-.3.8-.4-.2.1-.5.3-.8.4-4.5 2.4-18.4 7.8-37.7 10.8-10.4 1.6-8.4 1.4-14.9 2 0 0-6 .5-5 .5s24.3.6 42.2-3.9c17.3-4.4 29-11 33.1-13.4 5.6-3.3 11.2-5.1 20.4-5.8 4.2-.3 136.3-6.2 136.6-6.2 14.1-.8 24.1-2.9 25.9-3.5.7-.2 1.4-.5 1.9-.7-.3.4-.7.8-1.5 1.5-4.2 3.7-20.1 11.5-29.4 13.7-16.1 3.9-115.2 16-132.8 18l-9.9 1.1c-26.4 2.9-60 6.6-77 8.4-6.1.6-8.1-.1-9.6-.6-1.6-.4-7.9-2.3-10.8-2.9-6.3-1.2-15-2.8-26.5-2.8-11.6 0-20.3 1.7-26.5 2.8-2.8.5-9.2 2.4-10.8 2.9-1.6.4-3.5 1.2-9.6.6-17-1.7-50.6-5.4-77-8.4l-9.8-1.1c-17.6-1.9-116.7-14.1-132.8-18-9.5-2.3-25.4-10-29.6-13.7-.8-.7-1.3-1.2-1.5-1.5.5.1 1.2.3 1.9.6 1.8.6 11.8 2.7 25.9 3.5.3 0 132.3 5.9 136.6 6.2 9.2.6 14.8 2.5 20.4 5.8 4.1 2.4 15.8 9.1 33.1 13.4 17.9 4.5 41.2 3.9 42.2 3.9s-5-.5-5-.5c-6.6-.6-4.5-.4-14.9-2-19.3-3-33.3-8.4-37.7-10.8-.3-.2-.6-.3-.8-.4.3.2.6.3.8.4 1.7 1-6.5-3.5-.8-.4-.8-.4-1.9-1-3.2-1.7 6.5.2 16.2.4 18.1.5.2-.9 12.7-1.7 12.7-1.7s-28.2-.1-31-.1c-.8 0-1.5 0-2 .1-2.8-1.6-6-3.5-8.9-5.6-.2-.1-.4-.3-.6-.4 7.1.2 17.6.3 20 .2.2-.9 14.1-1.8 14.1-1.8h-36.9c-6.3-2.9-14.1-3.3-18.9-3.3-2.9 0-121.5-2.5-137.7-2.8-5.2-.3-17.4-1.1-25.3-3.1-.9-.2-1.6-.4-2.2-.5 0-.5 1.5-.7 4.3-.7l39.6-.4c60.5-.6 173.1-1.6 178.3-1.6h1.2c6.2 0 9 0 17.5 2.5l2.3.7c5.5 1.7 13 4 19.7 4.3 7 .3 33.8.2 34.9.2 1.1 0 27.9.1 34.9-.2 6.7-.3 14.2-2.6 19.7-4.3l2.3-.7c8.5-2.5 11.3-2.5 17.5-2.5h1.2c5.1 0 117.8 1 178.3 1.6l39.6.4c2.8 0 4.4.2 4.3.7-.6.1-1.4.3-2.2.5-7.9 2-20.1 2.8-25.3 3.1-16.2.3-134.8 2.8-137.7 2.8-4.8.1-12.5.4-18.8 3.3H378.2s13.5.9 13.7 1.8M294.3 0s-13.9 9.9-14.2 10c-.1-.1-14.7-10-14.7-10h-17.7s21.5 15.7 21.6 15.8v12h15.2V15.5c.1-.1 20-15.5 20-15.5M372 27.8h49.8v-5h-34.6V.2H372M434.4 27.8h50.9v-5h-36v-6.3h34.6v-5.2h-34.6V5.1h35.3v-5h-50.2M112 .2v27.6h15.3V16.6h31.9v11.2h15.2V.2h-15.2v11.2h-31.9V.2M187.2 27.6h16.1V5c13.9-.9 26.1.7 26.1 3.5 0 2.2-2.6 4.7-18 4 3.7 3 19.3 15.1 19.3 15.1h17.1s-15.2-9.7-19.5-12.3c10.3-.8 16.6-3.9 16.6-7.4 0-3.8-5.3-7.8-23-7.8h-34.7M497.5 27.8h16.1V5.1c13.9-.9 26.1.7 26.1 3.5 0 2.2-2.6 4.7-18 4 3.7 3 19.3 15.2 19.3 15.2h17s-15.2-9.8-19.5-12.4c10.3-.8 16.6-4 16.6-7.5 0-3.8-5.3-7.8-23-7.8h-34.7M308.8 7.9c0 4.7 4.5 6.8 15.4 8.2 2.1.3 5.3.7 11.4 1.3 5.5.5 9 1 9 2.6 0 .9-.8 3-13.1 3-10.8 0-19.7-1.6-21.6-2l-1.5 5.4c1.5.2 12.2 1.6 23.8 1.6 14.7 0 28.8-2.2 28.8-8.6 0-4.5-4.9-6.9-15.2-8-4.6-.5-9.4-1-12.8-1.3-4.9-.4-8-1-8-2.6 0-1.3 2.1-2.2 11.8-2.2 9.2 0 17.1 1.2 18.9 1.5l1.2-4.9c-2.5-.3-13.8-1.6-24.6-1.6-9.4-.1-23.5 1-23.5 7.6M39.6 14c0 9.3 17.3 14 36.5 14 10.4 0 19.9-1 22.3-1.2l1.5-5.3c-2.1.1-11.7 1.1-20.9 1.1-10.1 0-24.2-2.5-24.2-8.6 0-6 14.1-8.6 24.2-8.6 9.2 0 18.8 1 20.9 1.1l-1.5-5.3C96 1 86.5 0 76.1 0 56.9 0 39.6 4.6 39.6 14"/><path fill="#21404C" d="M373.5 62.4H228.7c-1.7 0-1.8.2-.9 2 1.1 2 7.5 8.6 21.2 12.2 5.7 1.5 25.5 1.8 45.5 1.8h13.2c20 0 39.7-.3 45.5-1.8 13.7-3.6 20.1-10.2 21.1-12.2 1-1.9.9-2-.8-2zm-121 8.7c2 0 4.1-.2 4.5-.2l-.3 1.1c-.5.1-2.6.3-4.8.3-4.2 0-7.9-1-7.9-3s3.7-3 7.9-3c2.2 0 4.3.2 4.8.3l.3 1.2c-.5 0-2.5-.2-4.5-.2-2.2 0-5.2.5-5.2 1.9 0 1.1 3 1.6 5.2 1.6zm20.6 1.1h-3.3v-2.3H263v2.3h-3.3v-5.5h3.3V69h6.9v-2.3h3.3v5.5zm12.2 0s-3.4-2.4-4.2-3c3.3.1 3.9-.4 3.9-.8 0-.6-2.6-.9-5.6-.7v4.5h-3.5v-5.5h7.5c3.8 0 5 .8 5 1.6 0 .7-1.4 1.3-3.6 1.5.9.5 4.2 2.5 4.2 2.5h-3.7zm11.6-2.5v2.4h-3.3v-2.4l-4.7-3.2h3.8l3.2 2 3.1-2h2.2l-4.3 3.2zm10.3 2.7c-2.5 0-4.8-.3-5.1-.3l.3-1.2c.4.1 2.3.4 4.7.4 2.7 0 2.8-.5 2.8-.7 0-.3-.7-.4-1.9-.6-1.3-.1-2-.2-2.5-.3-2.4-.3-3.3-.8-3.3-1.8 0-1.4 3.1-1.7 5-1.7 2.3 0 4.8.3 5.3.3l-.3 1.1c-.4-.1-2.1-.3-4.1-.3-2.1 0-2.5.2-2.5.5 0 .4.7.5 1.7.6.7.1 1.8.2 2.8.3 2.2.3 3.3.8 3.3 1.8 0 1.4-3 1.9-6.2 1.9zm19.4-.2h-10.8v-5.5h3.3v4.5h7.5v1zm13.7 0h-11v-5.5h10.9v1h-7.6v1.2h7.5v1h-7.5v1.2h7.8v1.1zm12 0s-3.4-2.4-4.2-3c3.3.1 3.9-.4 3.9-.8 0-.6-2.6-.9-5.6-.7v4.5h-3.5v-5.5h7.5c3.8 0 5 .8 5 1.6 0 .7-1.4 1.3-3.6 1.5.9.5 4.2 2.5 4.2 2.5h-3.7zM407.5 66c.2 0 .5 0 .7-.1.7-.4 1.3-.9 2-1.4.2-.1.4-.2.5-.4-7 .2-16.5.2-18.8.2-1.2 1.2-17.3 2.2-17.3 2.2s28-.2 32.9-.5M388.6 73.3c1.9 0 4.8-.2 7.6-.4.7-.4 1.7-.9 2.8-1.5-1.4 0-2.9.1-4.5.1-5.4.2-11 .3-12.4.3-.1.5-17.6 1.8-17.6 1.8s18.9-.2 24.1-.3M226.6 66.5s-16.1-1-17.3-2.2c-2.5.1-13 0-20-.2.2.1.4.3.6.4l1.8 1.2c.7.1 1.4.1 2 .2 4.9.4 32.9.6 32.9.6M236.6 73.7s-17.4-1.3-17.6-1.8c-1.4 0-6.8-.2-12.2-.3-2.1-.1-4.1-.1-5.9-.2 1 .6 1.9 1 2.6 1.4 3.3.3 6.8.5 9 .5 5.3.1 24.1.4 24.1.4"/></svg>