<svg xmlns="http://www.w3.org/2000/svg" width="770.4" height="1202.4" viewBox="0 0 770.4 1202.4"><path fill="#898989" d="M385.2 216C172.484 216 0 388.484 0 601.2s172.484 385.2 385.2 385.2 385.2-172.484 385.2-385.2S597.916 216 385.2 216zm0 735.946c-193.67 0-350.746-157.076-350.746-350.746S191.53 250.454 385.2 250.454 735.946 407.53 735.946 601.2 578.87 951.946 385.2 951.946z"/><path fill="#898989" d="M308.374 339.264c24.396-7.062 50.076-10.914 76.826-10.914 26.536 0 52.43 3.852 76.612 10.914L385.2 509.18l-76.826-169.916z"/><path fill="#898989" d="M531.79 370.936c28.676 18.404 53.928 41.944 74.044 69.336L480.002 718.9l-48.578-108.07h-92.02L290.826 718.9 164.994 440.058c20.116-27.392 45.154-50.932 73.83-69.122l100.58 222.988h92.234L531.79 370.936zM121.552 530.58c-5.992 22.47-9.202 46.224-9.202 70.62 0 107 61.418 199.448 151.084 244.388L121.552 530.58z"/><path fill="#898989" d="M309.658 863.564c23.968 6.848 49.22 10.486 75.542 10.486 26.108 0 51.36-3.638 75.328-10.486L385.2 696.002l-75.542 167.562zm197.308-17.976C596.632 800.862 658.05 708.2 658.05 601.2c0-24.182-3.21-47.722-8.988-69.978L506.966 845.588z"/></svg>