<svg xmlns="http://www.w3.org/2000/svg" width="770.4" height="1202.4" viewBox="0 0 770.4 1202.4"><path fill="#898989" d="M383.312 629.335H127.015L0 852.398h257.052l126.26-223.063zm130.162-228.854L385.326 175.277l-128.4 225.204 128.4 225.707 128.148-225.707zm-.126 451.917H770.4L643.385 629.335H387.088l126.26 223.063zm-11.329 174.725h19.134V924.655h-19.134v102.468zm215.259 0h19.134V924.655h-19.134v102.468zm-576.038 0h19.26V924.655h-19.26v102.468zm92.524-102.468h-59.291v17.372h19.764v85.096H214v-85.096h19.764v-17.372zm444.994 38.897H635.58v-38.898h-19.134v102.468h19.134v-46.199h43.178v46.199h19.26V924.655h-19.26v38.897zm-599.452 6.924l-18.001-45.821H39.149v102.468h19.134v-63.571l21.022 50.982 20.393-51.486v64.074h19.134V924.655H97.307l-18.001 45.821zm317.098-45.821h-19.008v73.138c0 7.931-8.938 14.477-16.868 14.477s-16.868-6.42-16.868-14.477v-73.138h-19.386l.252 72.257c0 18.505 17.498 33.485 36.002 33.485 18.505 0 36.002-14.98 36.002-33.485l-.126-72.257zm74.018 47.08c2.644-1.762 12.84-7.805 12.84-20.645 0-18.001-14.351-26.058-24.044-26.435h-44.436v102.468h39.401c15.609 0 32.352-7.553 32.352-27.317.126-16.994-8.056-23.665-16.113-28.071zm-15.231 38.016h-21.022v-67.725h20.141c5.413 0 9.567 4.532 9.567 9.945s-2.14 11.707-9.315 11.707h-8.434v17.246h8.938c5.413 0 12.84 5.035 12.588 15.609-.127 9.064-7.428 13.218-12.463 13.218zM241.442 993.89c-.126 1.007 0 2.266.126 4.154 0 17.623 14.351 31.093 31.974 31.093 17.624 0 31.974-11.959 31.974-29.582 0-9.315-3.651-16.491-9.945-22.281-5.161-4.784-19.889-11.959-25.68-15.484-5.413-3.273-7.931-5.791-8.056-10.7 0-7.049 4.658-11.959 11.707-11.959a12.68 12.68 0 0 1 12.714 12.714c.126 1.762.126 3.651.126 4.784h16.994v-4.784c0-16.491-10.448-29.582-29.834-29.582-16.491 0-29.834 11.329-29.834 29.582 0 8.057 3.776 15.861 13.092 22.029 9.945 6.546 22.533 11.581 26.687 15.735 2.518 2.518 4.154 6.042 4.154 9.945 0 7.679-6.294 13.218-13.973 13.218s-13.973-6.798-14.854-13.218c-.252-1.636-.755-4.532-.504-5.665h-16.868v.001zm324.147-32.1c-5.413-3.273-7.931-5.791-8.056-10.7 0-7.049 4.658-11.959 11.707-11.959a12.68 12.68 0 0 1 12.714 12.714c.126 1.762.126 3.651.126 4.784h16.994v-4.784c0-16.491-10.448-29.582-29.834-29.582-16.491 0-29.834 11.329-29.834 29.582 0 8.057 3.776 15.861 13.092 22.029 9.945 6.546 22.533 11.581 26.687 15.735 2.518 2.518 4.154 6.042 4.154 9.945 0 7.679-6.294 13.218-13.973 13.218s-13.973-6.798-14.854-13.218c-.252-1.636-.755-4.532-.504-5.665h-16.617c-.126 1.007 0 2.266.126 4.154 0 17.623 14.351 31.093 31.974 31.093s31.974-11.959 31.974-29.582c0-9.315-3.651-16.491-9.945-22.281-5.538-4.783-20.266-11.958-25.931-15.483z"/></svg>