<?xml version="1.0" encoding="utf-8"?>
<!-- Generator: Adobe Illustrator 17.0.2, SVG Export Plug-In . SVG Version: 6.00 Build 0)  -->
<!DOCTYPE svg PUBLIC "-//W3C//DTD SVG 1.1//EN" "http://www.w3.org/Graphics/SVG/1.1/DTD/svg11.dtd">
<svg version="1.1" id="Layer_1" xmlns="http://www.w3.org/2000/svg" xmlns:xlink="http://www.w3.org/1999/xlink" x="0px" y="0px"
	 width="770.4px" height="1202.4px" viewBox="0 0 770.4 1202.4" enable-background="new 0 0 770.4 1202.4" xml:space="preserve">
<path fill="#898989" d="M452.61,895.985c20.33-0.535,37.45-19.795,37.985-43.335c0-24.075-17.12-43.335-37.985-43.335
	c-21.4,0-38.52,19.26-37.985,43.335C414.09,876.19,431.21,895.45,452.61,895.985 M384.13,852.65c0-37.985,30.495-68.48,68.48-68.48
	c37.45,0,67.945,30.495,68.48,68.48c-0.535,37.45-31.565,67.945-68.48,68.48C414.625,920.595,384.13,890.1,384.13,852.65
	 M599.2,813.06v104.86h-28.89V813.06h-41.73v-23.54h110.21v23.54H599.2z M699.78,867.095h18.19l-18.19-47.08l-18.19,47.08H699.78z
	 M673.03,889.03l-10.7,28.89h-34.24l54.035-127.865h35.845L770.4,917.92h-34.24l-10.7-28.89H673.03z M68.48,813.06v104.86H39.59
	V813.06H0v-23.54h108.07v23.54H68.48z M184.04,895.985c20.865-0.535,37.985-19.795,37.985-43.335
	c0-24.075-17.12-43.335-37.985-43.335c-21.4,0-38.52,19.26-37.985,43.335C145.52,876.19,162.64,895.45,184.04,895.985
	 M115.56,852.65c0-37.985,30.495-68.48,68.48-68.48c37.45,0,67.945,30.495,68.48,68.48c-0.535,37.45-31.03,67.945-68.48,68.48
	C146.055,920.595,115.56,890.1,115.56,852.65 M317.79,917.92h13.91V868.7l50.825-79.18H349.89l-32.1,54.035l-31.03-54.035h-34.24
	l50.825,79.18v49.22H317.79z M385.2,709.27c39.055-7.49,74.9-71.155,74.9-195.275v-11.77
	C562.285,487.78,631.835,447.12,636.115,397.9c25.145,26.75,40.125,58.315,40.125,94.695C676.24,627.415,521.09,706.06,385.2,709.27
	 M77.575,491.525c0-35.845,14.98-67.945,39.59-94.16c4.28,49.755,74.365,90.415,177.085,104.325v11.77
	c0,124.12,35.845,187.785,74.9,195.275C233.26,706.06,77.575,627.415,77.575,491.525 M376.64,455.145
	c-16.05,0-33.17-1.07-49.755-2.14c9.095-62.06,33.17-89.88,50.29-89.88c17.12,0,41.195,27.285,50.29,89.88
	C410.345,454.075,393.225,455.145,376.64,455.145 M430.675,505.97c0,85.065-29.425,128.935-53.5,128.935
	c-24.61,0-53.5-43.87-53.5-128.935v-1.07c17.12,1.605,34.775,2.14,52.965,2.14c18.725,0,36.915-0.535,54.035-2.14V505.97
	L430.675,505.97z M578.335,378.64c0,36.38-56.175,59.92-121.445,70.085c-10.165-93.09-43.335-140.705-79.715-140.705
	S308.16,355.1,297.46,448.725c-65.805-10.165-122.515-33.705-122.515-70.085c0-21.4,26.75-39.59,65.27-52.43
	c37.45-11.77,78.645-18.19,120.375-19.795h31.03c4.28,0,8.025,0.535,12.305,0.535h1.07c4.28,0.535,8.56,0.535,13.375,1.07
	c31.565,2.675,62.595,8.56,91.485,17.12C550.515,338.515,578.335,357.24,578.335,378.64 M565.495,314.44
	c-41.73-18.725-100.045-31.03-169.595-32.635h-0.535c-6.42,0-12.305-0.535-18.725-0.535s-12.84,0-18.725,0.535
	c-70.085,2.14-128.935,14.445-170.665,33.17C88.81,354.03,28.89,424.115,28.89,503.295c0,129.47,146.59,230.05,347.75,230.05
	s347.75-101.115,347.75-230.05C724.39,423.58,664.47,353.495,565.495,314.44"/>
</svg>
