<?xml version="1.0" encoding="utf-8"?>
<!-- Generator: Adobe Illustrator 17.0.2, SVG Export Plug-In . SVG Version: 6.00 Build 0)  -->
<!DOCTYPE svg PUBLIC "-//W3C//DTD SVG 1.1//EN" "http://www.w3.org/Graphics/SVG/1.1/DTD/svg11.dtd">
<svg version="1.1" id="Layer_1" xmlns="http://www.w3.org/2000/svg" xmlns:xlink="http://www.w3.org/1999/xlink" x="0px" y="0px"
	 width="770.4px" height="1202.4px" viewBox="0 0 770.4 1202.4" enable-background="new 0 0 770.4 1202.4" xml:space="preserve">
<path fill="#898989" d="M205.363,979.439v27.846h-40.608v-77.736c-0.696-10.674-11.138-13.227-15.779-13.227h-17.636v90.963H90.963
	v-90.963H57.316v90.963H16.94V880.122h136.676c19.028,0.696,41.769,2.32,48.962,22.973c4.177,14.387,2.553,32.719,2.553,48.498
	c0,0.464,0.232,0.464,0.464,0c7.658-22.741,27.15-24.133,37.592-24.597h56.156v-1.392c-0.232-5.337-0.928-12.531-17.868-12.067
	h-66.366v-33.415h64.277c38.752,0,61.029,3.481,60.333,45.714v51.051l119.737-96.764h109.759c54.531,0,51.283,42.465,51.283,67.758
	c0,0.464,0.464,0.464,0.696,0c3.713-14.155,18.796-20.652,34.111-20.652h58.708v-1.624c-0.232-7.89-3.713-11.834-17.404-11.834
	H627.69v-33.415h66.134c35.039,0,61.029,1.392,60.565,45.714v81.217h-90.267c-19.028,0-45.946-3.017-45.946-34.807
	c0-0.696-0.464-0.696-0.464,0c-4.873,19.724-15.315,34.807-53.371,34.807h-83.769v-96.3l-119.737,96.3h-116.72
	c-19.956,0-32.951-7.426-38.752-27.614C205.595,978.974,205.363,979.206,205.363,979.439z M348.768,880.122v35.735h51.747
	l44.553-35.735H348.768z M300.038,974.798v-18.796h-47.802c-6.033,0.464-8.586,5.337-8.586,9.978c0,4.641,2.32,8.818,8.818,8.818
	L300.038,974.798L300.038,974.798z M714.012,974.798v-18.796H666.21c-6.033,0.464-8.586,3.945-8.586,9.514s2.32,9.282,8.586,9.05
	h47.802V974.798z M470.13,972.013h-50.587l-43.625,35.271h94.212V972.013z M521.18,914.929v57.084c0,0,19.492-0.232,35.503,0
	c23.437-0.232,23.669-15.779,23.669-28.078c0-11.602,0.696-29.238-23.901-29.006C539.976,914.697,521.18,914.929,521.18,914.929z
	 M153.384,694.947c-21.116-12.995-27.846-29.47-59.868-42.697c-32.023-41.769-44.321-93.979-44.321-145.958
	c0-38.056,6.497-76.112,16.94-110.223l32.255,64.045c-1.856,14.155-2.785,29.702-2.785,46.178
	c0,212.556,140.853,255.253,289.596,254.789c148.743,0.464,289.596-42.465,289.596-254.789c0-21.813-1.392-41.769-4.409-60.1
	l22.973-47.338c12.067,30.166,18.796,68.918,17.868,107.902c-1.16,62.885-21.58,126.234-68.686,156.168l-7.658,11.37l-8.122,10.442
	l-8.586,9.514l-9.282,8.818l-9.746,8.122l-10.21,7.426l-10.674,6.961l-10.906,6.265l-11.37,5.569l-11.834,5.105l-12.067,4.409
	l-12.299,3.945l-12.531,3.481l-12.995,3.017l-12.995,2.553l-13.227,2.088l-13.459,1.624l-13.691,1.392l-13.691,0.928l-13.923,0.696
	l-13.923,0.464h-28.078l-13.923-0.464l-13.923-0.696l-13.691-0.928l-13.691-1.392l-13.459-1.624l-13.227-2.088l-13.227-2.553
	l-12.995-3.017l-12.531-3.481l-12.299-3.945l-12.067-4.409l-11.834-5.105l-11.37-5.569l-10.906-6.265l-10.674-6.961l-10.21-7.426
	l-9.746-8.122L153.384,694.947L153.384,694.947z M66.366,312.3l-4.409-4.409C23.901,354.069,0,417.882,0,506.524
	c0,267.784,218.589,311.409,385.2,311.409s385.2-43.393,385.2-311.409c0-88.41-23.901-152.456-61.957-198.401l-4.409,4.177
	c-0.696,23.437-4.873,47.57-8.122,70.543c16.708,35.735,24.597,78.432,25.525,123.682c2.32,132.964-65.206,272.889-336.238,281.939
	c-170.555-1.392-277.53-53.835-321.387-163.826c-29.006-18.332-43.161-52.211-56.388-85.162l-0.696-8.818l-0.696-24.133
	l0.696-24.133l1.856-22.741l3.017-21.581l4.177-20.42l5.105-19.26l6.265-18.1l7.193-16.94l8.122-15.779l8.818-14.851l8.354-11.602
	c3.249,22.509,7.193,52.443,14.155,58.244c86.322,72.399,238.081,63.117,311.177,209.075
	c79.36-161.97,219.518-141.317,305.84-213.948l8.122-69.382C598.452,413.937,461.544,377.041,385.2,539.707
	C301.895,380.29,167.075,419.738,66.366,312.3L66.366,312.3z M133.892,351.284c51.747-80.057,149.671-100.013,251.308-99.781
	c99.781-0.232,196.313,19.028,248.988,96.532l62.189-47.106l3.713-2.785c-78.2-84.93-207.451-103.029-314.889-103.029
	c-109.759,0-242.258,18.796-319.762,108.599l1.392,1.16l2.088,1.624l1.16,0.928c16.707,16.475,35.271,33.647,54.067,43.393
	C127.162,352.212,130.643,352.676,133.892,351.284z M690.575,296.985l-28.078,17.636c-83.073-73.095-171.716-90.963-277.298-90.267
	c-106.742-0.696-200.258,18.332-282.171,96.3l-28.774-17.636l8.122-8.586l11.834-10.906l12.531-10.21l12.995-9.282l13.691-8.586
	l14.155-7.658l14.619-6.961l14.851-6.265l15.315-5.801l15.547-5.105l15.779-4.409l16.011-3.945l16.243-3.249l16.243-2.785
	l16.475-2.32l16.475-1.856l16.243-1.392l16.243-1.16l16.011-0.696l16.011-0.464l15.547-0.232l15.547,0.232l16.011,0.464
	l16.011,0.696l16.243,1.16l16.243,1.392l16.475,1.856l16.475,2.32l16.243,2.785l16.243,3.249l16.011,3.945l15.779,4.409
	l15.547,5.105l15.315,5.801l14.851,6.265l14.619,6.961l14.155,7.658l13.691,8.586l12.995,9.282l12.531,10.21l11.834,10.906
	L690.575,296.985L690.575,296.985z M384.272,638.096c-35.503-76.344-74.487-110.919-133.892-135.516l-148.743-50.122l-20.42-56.852
	c36.664,28.078,90.499,47.106,141.781,66.83c79.128,30.166,122.289,68.686,161.274,147.583V638.096z M384.272,638.096
	c35.503-76.344,74.487-115.792,133.892-140.389l147.119-52.675l20.42-54.763c-36.664,28.078-94.444,49.426-145.958,69.15
	c-79.128,30.166-116.488,71.935-155.472,150.831V638.096z M643.47,397.694l9.05-4.873l8.818-5.105l8.586-5.337l8.354-5.801
	l6.265-4.873l5.801-49.658l-7.426,6.729l-10.21,8.354l-10.21,7.658l-10.442,7.194l-10.442,6.497l-10.674,6.033l-10.674,5.569
	l-10.674,5.337l-21.58,9.746c-17.636,7.658-35.503,14.851-53.371,22.509l-20.652,9.514l-10.21,5.105l-9.282,5.105
	c-24.365,20.652-36.432,40.84-41.537,62.189l6.729-5.337l10.21-7.426l10.21-6.961l10.442-6.265l10.442-5.801l10.442-5.337
	l10.442-5.105l10.674-4.641l21.116-8.586c20.42-7.89,41.073-15.315,61.493-23.437l9.746-4.177l9.514-4.177L643.47,397.694
	L643.47,397.694z M465.721,446.424l-1.16,0.696l-9.282,7.426l-9.05,8.122l-8.818,8.818l-2.553,2.785
	c-8.586,16.011-12.299,30.63-11.834,44.785l7.194-7.89l9.514-9.514l4.177-3.945C446.461,480.767,453.654,463.827,465.721,446.424
	L465.721,446.424z M250.844,421.363l-20.884-9.282c-17.636-7.193-35.503-14.155-53.371-21.348l-21.58-9.282l-10.674-5.337
	l-10.674-5.569l-10.674-5.801l-10.442-6.497l-10.442-6.961l-10.21-7.658l-10.21-8.354l-9.978-9.05l-6.961-6.961
	c1.16,8.586,2.553,17.404,3.945,25.989l1.624,8.818l1.856,7.89l1.856,6.497l1.856,4.409l1.624,2.088l7.658,6.033l8.354,6.033
	l8.818,5.569l9.05,5.337l9.282,4.873l9.746,4.641l9.978,4.641l20.42,8.586c21.58,8.586,43.161,16.707,64.509,25.293l21.813,9.514
	l10.906,5.105l10.906,5.337l10.674,5.801l10.674,6.265l5.801,3.713C283.331,461.275,267.319,441.319,250.844,421.363
	L250.844,421.363z"/>
</svg>
