<svg xmlns="http://www.w3.org/2000/svg" viewBox="0 0 360 360"><path fill-rule="evenodd" clip-rule="evenodd" fill="#21404C" d="M89.1 111.4h43.3v16.1H104V171h22.3l.1 16.3h-22.3L104 257H89.1V111.4zm50.1-.5h14.9v145.9h-14.9V110.9zm81.9 145.5h-14.9l-.1-69.4h-20.5l-.3 69.4h-13.5V110.9h35.1l14.2 28.8v116.7zm-14.9-88.7h-20.6V127h12.8l7.8 19.1v21.6zm18.2-56.3H270l-.2 16.3h-14.9l-.2 128.8h-14.9l-.7-128.7-14.8-.1.1-16.3zM180 360C80.6 360 0 279.4 0 180S80.6 0 180 0s180 80.6 180 180-80.6 180-180 180zM29.6 107.5c4.1-25.3 20.1-43.9 45.9-59 56.3-37.4 145.7-38 210 1.3 23.2 12.2 36.6 30.8 42.9 55 13 68.6 1.7 128.6-27.1 180.4-31.4 72.2-197.2 73.5-236.2 8.4-32.9-44.9-49-120-35.5-186.1zm243.1 188.4c-37.2 37.9-160.6 29.8-183.2 0-27.7-61.3-37.7-124.1-34.3-188-1-21.2 5.9-35.5 20.8-42.9 51.5-23.3 154.6-25.8 202.4-.9 19.7 7.7 27 26.8 26.2 54.7 1.5 69.8-12.7 127.6-31.9 177.1z"/></svg>