<?xml version="1.0" encoding="utf-8"?>
<!-- Generator: Adobe Illustrator 17.0.2, SVG Export Plug-In . SVG Version: 6.00 Build 0)  -->
<!DOCTYPE svg PUBLIC "-//W3C//DTD SVG 1.1//EN" "http://www.w3.org/Graphics/SVG/1.1/DTD/svg11.dtd">
<svg version="1.1" id="Layer_1" xmlns="http://www.w3.org/2000/svg" xmlns:xlink="http://www.w3.org/1999/xlink" x="0px" y="0px"
	 width="770.4px" height="1202.4px" viewBox="0 0 770.4 1202.4" enable-background="new 0 0 770.4 1202.4" xml:space="preserve">
<path fill="#898989" d="M432.475,754.015c0.486-0.097,0.778-0.195,1.07-0.195c7.393-0.389,7.393-0.389,9.727,6.615
	c2.335,6.906,4.669,13.91,7.004,20.816c0.195,0.584,0.486,1.07,1.07,1.459v-28.695h6.225v39.979c-2.529,0-4.961,0.097-7.393-0.097
	c-0.681-0.097-1.459-1.167-1.751-1.848c-2.821-7.782-5.447-15.661-8.171-23.443c-0.389-1.167-0.778-2.237-1.654-3.405v28.695h-6.128
	L432.475,754.015L432.475,754.015z M125.385,793.995c-2.529,0-4.766,0.195-7.004-0.097c-0.778-0.097-1.751-1.265-2.14-2.043
	c-2.918-8.171-5.739-16.439-8.657-24.707c-0.195-0.681-0.486-1.265-1.167-1.945V793.8h-6.128v-39.979
	c2.529,0,4.961-0.195,7.393,0.097c0.681,0.097,1.556,1.265,1.848,2.043c2.918,8.365,5.642,16.731,8.463,24.999
	c0.195,0.584,0.486,1.167,1.265,1.751v-28.793h6.128V793.995z M665.735,793.995h-7.295v-34.24h-8.755v-5.642h24.61v5.545h-8.56
	V793.995z M330.727,754.21h7.101v39.882h-7.101V754.21z M385.005,486.418c-5.058,11.965-9.825,23.345-14.591,34.726
	c-24.415,58.364-48.831,116.63-73.246,174.994c-0.778,1.751-1.556,2.14-3.307,1.848c-37.547-6.323-74.122-16.147-108.751-32.295
	c-20.719-9.63-40.271-21.303-57.294-36.672c-12.84-11.575-23.735-24.707-30.544-40.757c-10.895-25.777-8.171-50.485,5.934-74.219
	c9.046-15.175,21.303-27.431,35.213-38.034c25.194-19.357,53.695-32.392,83.557-42.508c30.641-10.311,62.06-16.828,93.965-20.719
	c31.516-3.794,63.13-5.058,94.841-3.599c49.025,2.237,96.981,10.019,143.38,26.361c27.723,9.825,54.084,22.373,77.526,40.465
	c14.785,11.381,27.917,24.513,36.866,41.049c15.855,29.085,14.105,57.683-3.502,85.503c-10.797,16.925-25.485,30.155-41.827,41.438
	c-26.361,18.19-55.445,30.446-85.892,39.785c-19.844,6.128-40.076,10.603-60.504,14.105c-2.432,0.389-3.307-0.195-4.28-2.335
	c-28.695-68.772-57.488-137.544-86.281-206.218C386.076,488.558,385.686,487.78,385.005,486.418L385.005,486.418z M385.103,474.551
	c13.424,15.564,26.653,30.933,39.785,46.205c31.322,36.283,62.546,72.565,93.771,108.945c0.973,1.167,1.848,1.751,3.502,1.265
	c18.482-5.35,36.477-11.77,53.5-20.622c15.855-8.268,30.446-18.19,41.827-32.197c8.171-10.116,13.618-21.497,14.299-34.629
	c1.07-18.287-6.42-33.462-17.801-47.08c-14.202-17.12-32.295-29.376-51.846-39.59c-34.532-17.995-71.398-28.209-109.724-34.045
	c-30.544-4.669-61.282-6.031-92.117-4.377c-31.516,1.654-62.449,6.323-92.798,15.077c-31.808,9.144-61.963,21.789-88.324,42.119
	c-13.326,10.311-24.999,22.178-32.489,37.45c-9.338,19.065-9.241,37.936,1.654,56.418c7.976,13.521,19.552,23.54,32.586,32.003
	c20.427,13.326,42.995,21.984,66.243,28.89c2.335,0.681,3.599,0.292,5.155-1.556c37.839-44.065,75.678-88.032,113.615-132.096
	C372.36,489.336,378.585,482.138,385.103,474.551L385.103,474.551z M219.058,753.918h20.719v5.545h-13.424v10.311h12.548v5.836
	h-12.645v18.19h-7.198V753.918z M763.299,794.189v-39.785h7.101v39.785H763.299z M0,754.21h7.004v39.882H0V754.21z M551.731,754.21
	h7.004v39.882h-7.004V754.21z"/>
</svg>
