<?xml version="1.0" encoding="utf-8"?>
<!-- Generator: Adobe Illustrator 17.0.2, SVG Export Plug-In . SVG Version: 6.00 Build 0)  -->
<!DOCTYPE svg PUBLIC "-//W3C//DTD SVG 1.1//EN" "http://www.w3.org/Graphics/SVG/1.1/DTD/svg11.dtd">
<svg version="1.1" id="Layer_1" xmlns="http://www.w3.org/2000/svg" xmlns:xlink="http://www.w3.org/1999/xlink" x="0px" y="0px"
	 width="770.4px" height="1202.4px" viewBox="0 0 770.4 1202.4" enable-background="new 0 0 770.4 1202.4" xml:space="preserve">
<path fill="#898989" d="M383.312,629.335H127.015L0,852.398h257.052L383.312,629.335z M513.474,400.481L385.326,175.277
	l-128.4,225.204l128.4,225.707L513.474,400.481L513.474,400.481z M513.348,852.398H770.4L643.385,629.335H387.088L513.348,852.398z
	 M502.019,1027.123h19.134V924.655h-19.134V1027.123z M717.278,1027.123h19.134V924.655h-19.134V1027.123z M141.24,1027.123h19.26
	V924.655h-19.26V1027.123z M233.764,924.655h-59.291v17.372h19.764v85.096H214v-85.096h19.764L233.764,924.655L233.764,924.655z
	 M678.758,963.552H635.58v-38.898h-19.134v102.468h19.134v-46.199h43.178v46.199h19.26V924.655h-19.26V963.552z M79.306,970.476
	l-18.001-45.821H39.149v102.468h19.134v-63.571l21.022,50.982l20.393-51.486v64.074h19.134V924.655H97.307L79.306,970.476z
	 M396.404,924.655h-19.008v73.138c0,7.931-8.938,14.477-16.868,14.477s-16.868-6.42-16.868-14.477v-73.138h-19.386l0.252,72.257
	c0,18.505,17.498,33.485,36.002,33.485c18.505,0,36.002-14.98,36.002-33.485L396.404,924.655L396.404,924.655z M470.422,971.735
	c2.644-1.762,12.84-7.805,12.84-20.645c0-18.001-14.351-26.058-24.044-26.435h-44.436v102.468h39.401
	c15.609,0,32.352-7.553,32.352-27.317C486.661,982.812,478.479,976.141,470.422,971.735L470.422,971.735z M455.191,1009.751h-21.022
	v-67.725h20.141c5.413,0,9.567,4.532,9.567,9.945c0,5.413-2.14,11.707-9.315,11.707h-8.434v17.246h8.938
	c5.413,0,12.84,5.035,12.588,15.609C467.527,1005.597,460.226,1009.751,455.191,1009.751z M241.442,993.89
	c-0.126,1.007,0,2.266,0.126,4.154c0,17.623,14.351,31.093,31.974,31.093c17.624,0,31.974-11.959,31.974-29.582
	c0-9.315-3.651-16.491-9.945-22.281c-5.161-4.784-19.889-11.959-25.68-15.484c-5.413-3.273-7.931-5.791-8.056-10.7
	c0-7.049,4.658-11.959,11.707-11.959c7.049,0,12.714,5.665,12.714,12.714c0.126,1.762,0.126,3.651,0.126,4.784h16.994v-4.784
	c0-16.491-10.448-29.582-29.834-29.582c-16.491,0-29.834,11.329-29.834,29.582c0,8.057,3.776,15.861,13.092,22.029
	c9.945,6.546,22.533,11.581,26.687,15.735c2.518,2.518,4.154,6.042,4.154,9.945c0,7.679-6.294,13.218-13.973,13.218
	s-13.973-6.798-14.854-13.218c-0.252-1.636-0.755-4.532-0.504-5.665H241.442L241.442,993.89z M565.589,961.79
	c-5.413-3.273-7.931-5.791-8.056-10.7c0-7.049,4.658-11.959,11.707-11.959c7.049,0,12.714,5.665,12.714,12.714
	c0.126,1.762,0.126,3.651,0.126,4.784h16.994v-4.784c0-16.491-10.448-29.582-29.834-29.582c-16.491,0-29.834,11.329-29.834,29.582
	c0,8.057,3.776,15.861,13.092,22.029c9.945,6.546,22.533,11.581,26.687,15.735c2.518,2.518,4.154,6.042,4.154,9.945
	c0,7.679-6.294,13.218-13.973,13.218s-13.973-6.798-14.854-13.218c-0.252-1.636-0.755-4.532-0.504-5.665h-16.617
	c-0.126,1.007,0,2.266,0.126,4.154c0,17.623,14.351,31.093,31.974,31.093s31.974-11.959,31.974-29.582
	c0-9.315-3.651-16.491-9.945-22.281C585.982,972.49,571.254,965.315,565.589,961.79L565.589,961.79z"/>
</svg>
