<?xml version="1.0" encoding="utf-8"?>
<!-- Generator: Adobe Illustrator 17.0.2, SVG Export Plug-In . SVG Version: 6.00 Build 0)  -->
<!DOCTYPE svg PUBLIC "-//W3C//DTD SVG 1.1//EN" "http://www.w3.org/Graphics/SVG/1.1/DTD/svg11.dtd">
<svg version="1.1" id="Layer_1" xmlns="http://www.w3.org/2000/svg" xmlns:xlink="http://www.w3.org/1999/xlink" x="0px" y="0px"
	 width="770.4px" height="1202.4px" viewBox="0 0 770.4 1202.4" enable-background="new 0 0 770.4 1202.4" xml:space="preserve">
<path fill="#898989" d="M743.839,521.328c-7.175-2.014-15.106-2.895-31.722-5.035c-69.109-2.895-239.932-9.441-326.917-9.441
	s-257.807,6.672-326.916,9.441c-16.742,2.014-24.673,3.021-31.722,5.035C4.784,526.363,0,534.168,0,549.777v106.622
	c0,15.609,16.616,26.058,28.198,28.198c11.455,2.14,18.756,3.021,30.841,4.154c61.808,3.776,205.188,11.833,326.161,11.959
	c120.973-0.126,264.353-8.056,326.161-11.959c12.085-1.133,19.386-2.014,30.841-4.154s28.198-12.588,28.198-28.198V549.777
	C770.4,534.168,765.617,526.363,743.839,521.328L743.839,521.328z"/>
<path fill="#898989" d="M108.007,525.482c33.988-118.329,145.772-205.062,278.452-205.062c132.302,0,243.708,86.355,278.074,204.181
	c0.126,0.378,0.126,0.629,0.252,1.007c19.764-2.266,37.387-5.665,49.849-8.938c-0.252-0.755-0.252-0.881-0.504-1.636
	c-38.898-140.485-170.948-243.708-327.672-243.708c-157.353,0-289.655,103.979-328.175,244.967
	C75.655,521.076,88.244,523.09,108.007,525.482L108.007,525.482z M663.652,680.569c-0.378,1.007-0.755,2.266-0.881,2.769
	c-36.128,114.931-146.149,198.642-276.312,198.642c-131.169,0-241.946-84.971-277.193-201.286
	c-21.526,3.776-28.827,5.287-50.101,8.056c39.401,139.604,170.948,242.324,327.294,242.324s288.019-102.72,327.42-242.449
	C695.122,686.233,684.045,684.471,663.652,680.569L663.652,680.569z"/>
<path fill="#898989" stroke="#898989" stroke-miterlimit="10" d="M114.931,525.23c8.182-3.399,16.113-8.812,28.449-12.211
	c36.758-95.671,131.673-163.773,242.953-163.773c110.902,0,205.566,67.725,242.575,162.892c0.126,0.378,0.252,0.755,0.378,1.007
	c6.42,2.266,25.176,9.819,30.967,12.336c0.881,0,2.643,0.126,4.406,0.126c-0.126-0.378-0.252-0.629-0.252-1.007
	c-34.24-117.826-145.772-204.181-277.948-204.181c-132.68,0-244.338,86.859-278.452,205.062
	C110.021,525.482,113.798,525.356,114.931,525.23z"/>
<path fill="#FFFFFF" d="M384.319,328.476c124.12,0,234.141,74.019,275.682,195.999c0.126,0.252,0.252,0.629,0.378,1.007
	c0.629,0,3.021,0.126,4.406,0.126c-0.126-0.503-0.252-0.755-0.252-1.007c-34.366-117.826-145.898-204.181-278.074-204.181
	c-132.68,0-244.338,86.859-278.452,205.062c2.644,0,3.902,0,6.924-0.252C152.192,409.418,261.08,328.476,384.319,328.476z"/>
<path fill="#898989" stroke="#898989" stroke-miterlimit="10" d="M656.728,680.821c-8.938,5.035-20.015,9.819-28.827,12.588
	c-0.126,0.252-0.629,1.511-0.755,1.888c-38.52,92.524-131.799,157.856-240.687,157.856c-109.644,0-203.426-66.088-241.316-159.493
	c-10.196-2.895-25.428-9.819-31.219-12.714c-2.14-0.126-3.273-0.126-4.658-0.252c35.247,116.315,146.024,201.286,277.193,201.286
	c130.54,0,240.939-84.215,276.689-199.649c0.126-0.252,0.504-1.511,0.504-1.762C661.638,680.569,658.491,680.821,656.728,680.821z"
	/>
<path fill="#FFFFFF" d="M385.2,523.845c67.473,0,184.544,3.525,270.773,6.42c1.636,0,3.273,0.126,4.909,0.126h1.259
	c11.833,0.378,21.652,0.755,29.457,0.881c22.155,0.629,32.352,1.007,45.569,2.518c13.721,1.636,28.324,7.553,28.324,18.882v98.944
	c0,10.574-15.232,19.638-27.694,19.638h-0.252c-2.014,0.126-197.132,12.085-352.219,12.211
	c-155.087-0.126-350.205-12.085-352.219-12.211h-0.378c-12.462,0-27.694-9.064-27.694-19.638v-98.944
	c0-11.329,14.602-17.246,28.198-18.882c13.218-1.636,23.288-1.888,45.569-2.518c7.805-0.252,17.624-0.504,29.456-0.881h1.259
	c1.636,0,3.273-0.126,4.909-0.126C200.656,527.37,317.727,523.845,385.2,523.845 M385.2,518.81
	c-68.606,0-190.082,3.651-271.025,6.42c-2.14,0.126-4.154,0.126-6.168,0.252c-44.562,1.511-57.025,1.259-75.404,3.525
	c-18.253,2.266-32.729,10.196-32.729,23.918v98.944c0,13.595,17.372,24.673,32.729,24.673c0,0,195.495,12.085,352.471,12.211
	c157.101-0.126,352.471-12.211,352.471-12.211c15.358,0,32.729-11.078,32.729-24.673v-98.944c0-13.595-14.351-21.652-32.729-23.918
	c-18.253-2.266-30.841-2.014-75.404-3.525c-2.014-0.126-4.028-0.126-6.168-0.252C575.282,522.461,453.806,518.81,385.2,518.81
	L385.2,518.81z"/>
<path fill="#FFFFFF" d="M541.672,572.813c-6.42-14.351-4.154-12.84-18.127-13.218c-1.133-0.378-4.154-0.378-8.308-0.378
	c-4.154,0-4.909,0-8.308,0.378c-13.218,0-10.952-0.755-15.483,8.686c0,0-22.659,50.982-32.478,72.131l-0.378,0.755
	c-1.888,3.776-0.755,3.776,2.266,3.776h20.393c1.511,0,2.266-0.755,2.644-1.511c0,0,3.021-6.42,6.798-15.484h49.849
	c3.776,8.686,6.42,15.106,6.42,15.484c0.378,1.133,1.511,1.511,2.644,1.511h21.148c3.021,0,3.776,0.378,2.643-2.266
	C569.744,633.615,545.197,580.744,541.672,572.813L541.672,572.813z M498.242,609.823c6.42-15.106,12.84-29.834,12.84-30.212
	c0.378-0.755,1.133-1.133,2.266-1.133c0.378-0.378,1.511-0.378,2.643-0.378c0.755,0,1.888,0,2.266,0.378
	c0.755,0,1.511,0.378,1.888,1.511c1.511,4.154,7.175,16.994,12.462,29.834H498.242z M226.211,558.463
	c1.888,0,2.266,0.755,2.266,2.266v80.816c0,1.888-0.378,2.644-2.644,2.644h-19.638c-2.266,0-2.644-0.378-2.644-2.644v-80.816
	c0-1.511,0.378-2.266,1.888-2.266H226.211L226.211,558.463z M184.292,559.218c2.266,0,2.644,0.755,2.644,2.644v80.439
	c0,2.266-0.378,2.644-2.644,2.644h-23.036c-13.595,0-14.728,0-19.26-7.553c-9.441-14.728-37.765-58.158-37.765-58.158v63.067
	c0,2.266-0.378,2.644-2.644,2.644h-17.12c-2.266,0-2.644-0.378-2.644-2.644v-80.439c0-1.888,0.378-2.644,2.644-2.644h19.638
	c14.728,0,16.616-0.378,21.904,7.175c4.154,6.798,38.52,59.668,38.52,59.668v-64.2c0-1.888,0.378-2.644,2.644-2.644H184.292
	L184.292,559.218z M688.702,559.218c2.266,0,2.643,0.755,2.643,2.644v80.439c0,2.266-0.378,2.644-2.643,2.644h-23.036
	c-13.595,0-14.728,0-19.26-7.553c-9.441-14.728-37.765-58.158-37.765-58.158v63.067c0,2.266-0.378,2.644-2.643,2.644h-16.994
	c-2.266,0-2.644-0.378-2.644-2.644v-80.439c0-1.888,0.378-2.644,2.644-2.644h19.638c14.728,0,16.617-0.378,21.904,7.175
	c4.532,6.798,38.52,59.668,38.52,59.668v-64.2c0-1.888,0.378-2.644,2.643-2.644H688.702L688.702,559.218z M312.692,592.073
	c15.106,1.511,26.058,4.154,29.079,18.505c0,1.133,0.378,4.909,0.378,9.064c0,2.644,0,6.042-0.755,9.064
	c-2.644,13.595-12.84,16.239-28.701,16.239h-63.445c-2.266,0-2.644-0.378-2.644-2.644v-13.595c0-2.266,0.378-2.643,2.644-2.643h64.2
	c2.644,0,3.399-0.755,3.776-2.644v-5.665c-0.378-1.511-0.755-3.776-4.154-4.154c-7.175-0.378-28.324-2.266-42.674-3.776
	c-18.505-1.888-23.036-9.819-23.792-16.616c-0.378-2.266-0.378-5.287-0.378-7.931c0-2.266,0-5.665,0.378-8.308
	c2.644-12.085,11.707-17.749,27.568-17.749h61.556c2.266,0,3.021,0.378,3.021,2.266v13.973c0,1.888-0.755,2.644-3.021,2.266h-60.424
	c-2.644,0-3.776,1.133-4.154,3.776v3.399c0,1.888,1.133,3.399,3.776,3.776C282.102,589.43,304.384,591.318,312.692,592.073
	L312.692,592.073z M421.958,592.073c15.106,1.511,26.058,4.154,29.079,18.505c0,1.133,0.378,4.909,0.378,9.064
	c0,2.644,0,6.042-0.755,9.064c-2.644,13.595-12.84,16.239-28.701,16.239h-63.445c-2.266,0-2.644-0.378-2.644-2.644v-13.595
	c0-2.266,0.378-2.643,2.644-2.643h64.2c2.644,0,3.399-0.755,3.776-2.644v-5.665c-0.378-1.511-1.133-3.776-4.154-4.154
	c-7.175-0.378-28.324-2.266-42.674-3.776c-18.505-1.888-22.659-9.819-23.792-16.616c-0.378-2.266-0.378-5.287-0.378-7.931
	c0-2.266,0-5.665,0.378-8.308c2.644-12.085,11.707-17.749,27.568-17.749h61.556c2.266,0,3.021,0.378,3.021,2.266v13.973
	c0,1.888-0.755,2.644-3.021,2.266h-60.424c-2.644,0-3.776,1.133-4.154,3.776v3.399c0,1.888,0.755,3.399,3.776,3.776
	C391.368,589.43,413.649,591.318,421.958,592.073L421.958,592.073z"/>
<path fill="#FFFFFF" d="M656.728,680.821c-38.394,113.798-146.275,193.104-268.129,193.104
	c-123.113,0-232.379-72.886-274.675-193.104c-1.511-0.126-3.147-0.126-4.658-0.252c35.247,116.315,146.024,201.286,277.319,201.286
	s242.072-84.971,277.319-201.412C661.386,680.695,659.12,680.695,656.728,680.821L656.728,680.821z"/>
</svg>
