<?xml version="1.0" encoding="utf-8"?>
<!-- Generator: Adobe Illustrator 17.0.2, SVG Export Plug-In . SVG Version: 6.00 Build 0)  -->
<!DOCTYPE svg PUBLIC "-//W3C//DTD SVG 1.1//EN" "http://www.w3.org/Graphics/SVG/1.1/DTD/svg11.dtd">
<svg version="1.1" id="Layer_1" xmlns="http://www.w3.org/2000/svg" xmlns:xlink="http://www.w3.org/1999/xlink" x="0px" y="0px"
	 width="770.4px" height="1202.4px" viewBox="0 0 770.4 1202.4" enable-background="new 0 0 770.4 1202.4" xml:space="preserve">
<path fill="#898989" d="M385.297,746.914c212.638,0,385.103-65.075,385.103-145.617S598.033,455.485,385.297,455.485
	C172.367,455.485,0,520.853,0,601.297S172.367,746.914,385.297,746.914L385.297,746.914z"/>
<path fill="#FFFFFF" d="M385.297,732.032c-204.175,0-370.123-58.169-370.123-130.637c0-72.274,165.947-131.221,370.123-131.221
	c204.759,0,370.415,58.85,370.415,131.221C755.712,673.863,590.056,732.032,385.297,732.032L385.297,732.032z"/>
<path fill="#898989" d="M385.297,721.818c198.047,0,358.742-53.889,358.742-120.521c0-66.34-160.695-120.229-358.742-120.229
	c-198.242,0-358.45,53.889-358.45,120.229C26.847,667.929,187.055,721.818,385.297,721.818L385.297,721.818z"/>
<path fill="#FFFFFF" d="M479.263,625.421c16.925-15.855,26.361-32.586,50.679-32.295c14.688,0.292,18.385,11.965,20.914,16.925
	l32.003-54.181h19.649l-53.208,94.16c-0.973,1.945-3.502,5.739-3.21,8.657c0.486,4.766,6.42,3.502,4.183,3.502
	c10.7-0.486,30.349-20.914,35.018-25.875c0.973-1.265,2.724-3.502,3.696-3.502s3.015,0.973,3.015,2.529
	c0,0.973-2.237,4.766-3.988,7.004c-9.922,12.451-26.361,31.516-44.94,32.003c-9.144,0-12.646-3.696-13.91-10.895
	c-4.183,3.696-18.676,10.214-33.267,10.214c-12.159-0.292-17.12-7.49-19.649-13.132c-2.237-4.766-3.21-11.673-1.459-18.676
	c-6.712,3.502-12.937,3.988-21.886,3.696c-10.408-0.292-16.925-4.961-20.135-17.12c-11.965,21.886-12.451,22.567-24.61,45.426
	h-21.108l27.042-45.913c3.502-6.225,5.253-11.186,6.42-16.439c0.778-3.015-1.459-5.739-4.766-5.934
	c-3.502,0-9.144,3.502-14.688,8.657c0,0-13.91,14.883-24.124,30.057c-9.727,14.396-26.361,30.835-44.454,30.835
	c-13.132,0-25.096-7.198-27.528-21.108c0,0-1.265,3.21-12.937,9.922c-0.973,0.486-3.502,1.945-4.183,1.459
	c-2.237-1.945-3.502-4.475-3.696-6.225c0.778,0.292,2.237-0.973,7.004-4.766c9.144-7.004,11.186-12.451,11.186-12.451
	c2.237-4.766,6.225-12.159,8.949-17.412c7.49-14.883,20.33-30.057,41.535-30.835c3.502,0,4.475,1.459,5.253,2.724
	c1.945,1.459,1.265,4.475,1.265,4.475c-14.883,2.237-25.096,10.895-31.322,19.357c-3.696,5.447-7.685,14.396-8.463,20.914
	c-1.459,11.186,3.696,18.676,11.381,20.33c14.396,2.237,26.361-8.171,35.796-24.318c2.529-4.183,4.183-15.175,4.183-21.108
	c0-5.934-3.21-12.159-5.739-14.688c0-4.183,2.724-7.004,5.934-7.004c0.973,0,1.945,0,3.015,0.973
	c4.961,4.961,7.685,14.396,7.685,21.595c0,2.529,0,4.961-0.486,7.49c10.408-12.645,23.637-29.085,33.754-32.294
	c1.945-0.973,3.988-0.973,5.934-0.973c18.676-0.486,16.147,16.439,16.147,16.439c9.922-11.381,16.925-15.661,26.069-15.174
	c9.922,0.486,13.424,7.49,13.424,12.937c-0.292,6.42-4.961,13.91-13.132,14.202c-7.198,0-11.478-3.502-13.715-9.922
	c-4.766,1.751-6.906,4.961-7.976,11.381c-1.459,8.171,4.766,14.688,12.645,14.688C468.271,635.829,474.302,629.895,479.263,625.421
	L479.263,625.421z M494.145,518.324c0,7.976-27.82,23.151-51.457,23.151c-36.769,0-74.997-17.606-92.701-21.595
	c-19.163-4.475-36.477-8.171-50.193-8.171c-47.858-0.097-69.258,20.525-68.285,39.395c0.486,7.685,6.712,12.645,15.855,10.895
	c9.922-1.751,23.832-11.186,27.334-19.357c0.778-1.751,2.724-1.945,3.502-1.459c1.459,1.265,0.973,3.015,0.973,3.015
	c-1.265,9.727-16.147,36.477-42.022,36.477c-14.396,0-24.124-13.424-23.832-26.555c0.292-24.61,25.388-49.415,87.156-49.415
	c11.673,0,24.805,0.973,39.298,3.502c16.634,3.015,58.169,9.922,91.923,10.408c12.451,0,28.306,0.486,41.244-1.459
	c13.618-2.237,10.7-2.724,16.147-2.724C494.145,514.335,494.145,516.378,494.145,518.324z"/>
<path fill="#898989" d="M530.915,604.799c-8.657-0.973-19.649,6.42-28.598,17.412c-4.475,5.447-9.144,15.855-9.922,22.081
	c-0.973,6.225,0.778,12.451,3.015,14.202c2.237,1.751,12.159,7.004,27.528-8.657c8.657-8.657,17.12-22.859,17.12-22.859
	l-2.724-0.778C542.587,616.472,541.615,606.064,530.915,604.799z"/>
<path fill="#FFFFFF" d="M349.306,575.52c0,2.724,3.696,4.961,7.004,5.253c-0.778,2.724-0.486,3.988-1.751,3.696
	c-7.49,0-10.408-7.198-10.408-7.198c-9.922,1.751-19.649,3.015-39.298,4.961c-49.415,79.958-64.881,93.187-95.133,93.187
	c-21.595,0-40.757-14.202-41.244-39.493c-0.292-15.369,12.159-34.24,35.31-39.979c2.724,0,3.696,0.973,3.696,2.529
	c0,0.973-0.973,2.237-3.21,3.21c-6.712,2.529-18.385,15.661-18.385,27.82c0,9.144,5.739,19.357,15.369,21.595
	c2.724,0.778,5.253,0.486,7.685,0.486c24.124,0,51.165-27.042,80.542-68.285c-4.766,0.292-24.805,2.529-29.765,8.171
	c-2.237,1.751-3.696,0.778-4.183-1.265c0-0.486,0.778-2.237,1.459-3.21c7.976-8.949,31.808-10.895,37.547-11.673
	c22.373-34.24,51.165-55.64,57.099-55.445c0.973,0,3.21,1.459,2.237,3.988c-0.292,0.486-2.724,3.21-3.696,3.988
	c-4.961,4.475-21.886,15.369-40.271,46.496c14.883-0.778,32.295-3.696,32.295-3.696s-0.973-3.21-0.973-5.934
	c0.778-10.7,7.004-17.12,14.883-15.855c4.475,0.778,7.49,4.475,7.49,8.463c0,4.183-3.21,10.408-6.42,13.424
	C354.754,572.213,352.322,573.964,349.306,575.52L349.306,575.52z"/>
<path fill="#898989" d="M348.042,569.975c0,0,2.529,0.292,6.225-3.988c1.459-1.459,3.988-5.934,3.502-8.949
	c-0.292-1.459-0.973-3.21-2.724-3.015c-3.696,0.778-5.934,2.529-7.004,6.225C346.777,564.334,347.361,567.057,348.042,569.975z"/>
</svg>
