<?xml version="1.0" encoding="utf-8"?>
<!-- Generator: Adobe Illustrator 17.0.2, SVG Export Plug-In . SVG Version: 6.00 Build 0)  -->
<!DOCTYPE svg PUBLIC "-//W3C//DTD SVG 1.1//EN" "http://www.w3.org/Graphics/SVG/1.1/DTD/svg11.dtd">
<svg version="1.1" id="Layer_1" xmlns="http://www.w3.org/2000/svg" xmlns:xlink="http://www.w3.org/1999/xlink" x="0px" y="0px"
	 width="770.4px" height="1202.4px" viewBox="0 0 770.4 1202.4" enable-background="new 0 0 770.4 1202.4" xml:space="preserve">
<path fill="#898989" d="M530.817,796.426c-0.097-1.654,0.584-2.432,0.973-3.307c15.272-30.641,30.544-61.185,45.621-91.825
	c1.07-2.14,2.335-2.626,4.572-2.918c7.393-1.07,10.992,2.043,14.105,8.755c13.326,28.598,27.431,56.905,41.244,85.308
	c0.584,1.07,1.07,2.237,1.848,3.988h-23.054c-1.362,0-1.459-1.265-1.848-2.14c-3.405-7.295-6.809-14.688-10.116-21.984
	c-0.778-1.751-1.654-2.626-3.696-2.626c-13.91,0.097-27.82,0.097-41.73-0.097c-2.043,0-3.015,0.778-3.794,2.529
	c-3.405,7.49-7.004,14.785-10.408,22.275c-0.681,1.556-1.459,2.237-3.307,2.14C538.015,796.329,534.514,796.426,530.817,796.426
	L530.817,796.426z M560.875,760.825h38.617c-6.323-13.521-12.548-26.75-19.065-40.563
	C573.715,734.269,567.392,747.401,560.875,760.825L560.875,760.825z M335.688,716.857c0-3.405-0.097-6.517,0-9.727
	c0.097-2.043-0.584-2.918-2.432-3.696c-16.147-6.712-32.781-8.852-50.095-5.253c-25.875,5.35-44.843,27.334-45.718,53.792
	c-0.584,18.676,8.56,32.003,24.999,39.59c24.61,11.284,49.706,9.533,74.705,0.389c1.459-0.486,1.848-1.265,1.848-2.724
	c-0.097-11.965-0.195-23.929-0.195-35.894c0-2.043-0.875-2.432-2.626-2.335c-4.766,0.097-9.533,0.292-14.396,0.097
	c-2.529-0.097-3.307,0.584-3.21,3.21c0.195,9.533,0,19.163,0.097,28.695c0,2.432-0.778,3.307-3.015,3.891
	c-3.891,0.875-7.782,1.654-11.77,2.043c-19.649,1.848-37.353-6.615-43.189-27.723c-3.794-13.715-0.681-26.555,6.809-38.423
	c4.28-6.712,10.311-11.575,17.995-14.007c13.132-4.085,26.069-2.724,38.52,3.015C327.906,713.258,331.311,715.787,335.688,716.857
	L335.688,716.857z M395.316,733.491h0.584v29.766c0,11.186,4.669,20.038,13.424,26.75c16.536,12.645,43.384,14.105,61.282,3.307
	c12.062-7.295,18.385-18.19,18.774-32.1c0.486-17.509,0.486-35.115,0.681-52.625c0-3.307,1.459-7.685-0.486-9.533
	c-2.14-2.14-6.517-0.097-9.825-0.389c-2.237-0.195-2.821,0.681-2.821,2.918c0.292,13.132,0.486,26.166,0.681,39.298
	c0.097,7.49,0,15.077-1.07,22.47c-1.556,10.895-5.934,19.844-17.315,23.54c-6.906,2.237-14.105,2.918-21.303,2.043
	c-10.214-1.265-17.023-7.004-20.33-16.828c-1.654-4.864-1.848-10.019-2.043-15.174c-0.681-18.385-0.097-36.672,0.389-54.959
	c0.097-2.626-0.584-3.307-3.113-3.21c-4.864,0.195-9.825,0.195-14.688,0c-2.432-0.097-3.015,0.584-3.015,3.016
	C395.414,712.285,395.316,722.888,395.316,733.491L395.316,733.491z M0,820.161c5.642-0.097,10.408-0.973,15.077-2.821
	c15.661-6.225,22.956-22.762,23.735-35.602c0.584-9.533,0.195-19.163,0.292-28.695c0.195-17.12,0.292-34.143,0.584-51.263
	c0-2.626-0.584-3.307-3.21-3.21c-4.28,0.195-8.657,0.292-12.937,0c-3.21-0.292-3.599,0.973-3.599,3.794
	c0,24.61-0.097,49.22-0.389,73.83c-0.097,12.548-3.21,24.318-10.895,34.532C6.128,813.935,3.21,816.756,0,820.161z M205.051,516.767
	c-5.253-4.377-10.214-7.782-15.369-11.089c-7.685-5.058-15.758-9.435-24.415-12.743c-16.634-6.323-31.905-3.502-46.01,6.809
	c-4.961,3.599-9.727,7.49-14.591,11.186c-4.085,3.21-8.365,3.21-12.451,0c-3.891-3.113-5.253-8.171-3.015-12.548
	c0.875-1.654,1.459-3.307,1.265-5.155c-0.195-1.459,0.097-2.237,2.043-1.848c5.739,1.07,9.046-0.681,11.381-6.128
	c2.043-4.572,1.556-9.241-0.875-13.424c-2.724-4.669-10.408-4.085-13.91,0.973c-2.626,3.696-2.529,7.879-1.848,12.159
	c0.195,1.362,0.681,2.626,1.07,3.988c-0.973,0.875-2.335,0.681-3.113,0.195c-3.502-2.14-7.393-1.751-11.186-2.432
	c-9.338-1.654-16.245-10.7-15.466-20.038c0.097-1.362,1.07-1.945,1.945-2.626c3.794-3.405,7.685-6.809,11.478-10.214
	c0.875-0.778,2.043-1.459,1.654-2.724c-0.973-3.599,1.556-5.35,3.794-7.295c10.603-9.046,23.248-13.618,36.866-15.758
	c20.038-3.21,40.174-2.14,60.212,0.292c61.282,7.587,119.645,25.68,176.939,47.761c59.725,23.054,117.311,50.679,173.729,80.542
	c35.894,19.065,71.593,38.52,107.486,57.585c8.56,4.572,17.217,9.046,26.945,11.186c12.451,2.724,24.221,1.07,35.407-4.669
	c4.085-2.043,8.074-2.626,12.548-1.556c6.42,1.459,9.046,7.004,5.739,12.743c-5.739,10.214-14.98,15.564-26.069,17.995
	c-8.365,1.848-16.925,2.237-25.68,1.459c0.195,1.848,0.486,3.502,0.681,5.058c0.973,8.074-2.626,13.715-10.408,16.05
	c-8.657,2.529-17.023,1.362-25.194-2.335c-13.132-6.031-24.513-14.785-35.796-23.54c-0.584-0.389-1.07-0.778-1.556-1.265
	c-10.116-10.214-23.248-12.062-36.672-13.035c-15.758-1.265-31.419-0.195-47.177,0.097c-28.404,0.486-50.095-11.575-66.632-34.143
	c-4.28-5.934-8.074-12.159-10.992-18.774c-5.058-11.478-14.007-15.369-25.875-15.564c-21.497-0.292-43.092,0.875-64.589,0.195
	c-15.564-0.486-30.641-3.405-45.329-8.56c-2.724-0.973-4.085-0.973-5.934,1.654c-5.35,7.101-13.424,8.949-21.789,9.435
	c-16.439,1.07-31.614-3.696-46.496-10.019c-7.198-3.016-14.202-6.615-21.984-7.976c-1.459-0.292-2.918-0.486-4.377-0.584
	c-2.432-0.097-4.864-0.292-7.101,0.584c-3.015,1.167-1.459,4.183-1.945,6.225c-2.335,9.727-10.895,16.342-20.135,14.98
	c-11.089-1.654-17.023-11.284-13.715-22.567c2.821-9.922,10.214-15.758,18.482-20.914c9.435-5.836,19.649-8.755,30.738-8.852
	C199.701,517.545,202.036,517.059,205.051,516.767L205.051,516.767z M201.257,507.137c0.292,0.389,0.584,0.875,0.875,1.265
	c0.584-0.778,0.292-1.459-0.195-2.043c-1.654-7.49-2.626-14.98,0.778-22.762c3.794,23.345,17.898,36.477,39.59,42.508
	c-2.043,0.195-3.988,0.292-5.934,0.097c-13.91-1.362-27.917-2.724-41.925-1.265c-8.852,0.973-17.509,2.724-25.194,7.587
	s-12.645,11.673-13.813,20.816c-0.778,6.323,5.642,12.84,10.992,10.992c3.988-1.362,7.101-3.891,9.241-7.685
	c1.167-2.14,1.556-3.794-0.778-5.739c-3.307-2.724-2.821-5.447,0.973-7.49c3.113-1.654,6.517-2.626,10.116-2.821
	c11.575-0.681,22.47,2.626,33.365,5.836c12.84,3.794,25.777,7.393,39.395,6.615c10.797-0.681,17.995-6.712,20.33-17.315
	c1.556-6.809,1.07-13.618,0.195-20.33c-0.584-4.669-1.556-9.338-2.432-14.494c25.583,16.245,53.111,25.68,82.682,29.571
	c-9.046,0.778-17.995,0.681-26.945-0.292c-13.776-1.544-27.343-4.578-40.465-9.046c-2.529-0.875-2.724-0.097-2.14,2.043
	c1.07,4.085,2.626,7.976,2.529,12.256c-0.195,7.198,0,6.906,6.712,9.825c17.509,7.49,35.602,12.062,54.862,11.965
	c17.12-0.195,34.143-0.097,51.263-0.097c0.389,0,0.875,0.195,1.167-0.486c-0.584-4.766-3.405-8.56-6.42-12.159l0.584-0.584
	c8.268,6.128,16.536,12.159,22.956,20.233c4.377,5.642,7.782,11.965,11.575,18.093c5.642,9.338,12.062,17.898,20.719,24.707
	c13.521,10.505,29.376,13.91,45.913,14.98c15.564,1.07,31.225,0.389,46.788,0.681c13.715,0.292,26.458,4.085,37.353,12.84
	c8.463,6.809,16.245,14.591,25.68,20.33c6.906,4.183,14.007,8.074,22.178,9.046c5.253,0.681,13.035-3.599,14.785-7.976
	c1.459-3.599-0.486-6.906-6.517-11.089c-1.362-0.973-2.821-1.848-4.28-2.724c-4.766-3.015-9.727-5.934-14.396-9.046
	c-5.35-3.502-9.922-7.879-13.035-13.618c-2.529-4.766-6.323-8.56-10.992-11.478c-9.046-5.642-19.065-7.587-29.571-7.587
	c-10.311,0-20.719,0.778-31.03-1.167c-10.505-2.043-19.552-6.615-24.61-16.342c-4.377-8.365-8.365-16.828-14.299-24.61
	c2.335-0.097,3.405,1.167,4.475,2.237c6.906,6.615,12.743,14.299,18.968,21.497c4.475,5.155,9.825,8.56,16.634,9.922
	c11.965,2.432,24.026,3.696,36.088,5.253c14.007,1.751,26.069,6.42,34.726,18.287c5.545,7.49,12.159,13.91,20.816,17.801
	c4.864,2.237,9.533,4.864,14.494,6.809c14.105,5.544,28.598,8.171,43.675,5.155c7.685-1.556,13.91-5.642,17.704-12.645
	c2.432-4.572,0.292-7.782-4.864-7.976c-3.307-0.097-6.225,1.07-9.241,2.14c-16.634,6.323-33.073,4.961-48.442-3.21
	c-59.336-32.003-118.965-63.616-180.441-91.436c-59.434-27.139-120.229-50.484-183.164-67.896
	c-6.517-1.751-13.035-3.405-20.038-5.253c2.043,5.739,3.988,10.992,5.836,16.342c-1.654-0.292-2.432-1.362-3.307-2.14
	c-10.603-9.825-22.567-17.412-36.088-22.762c-17.995-7.101-36.185-12.159-55.64-10.992c-7.49,0.389-14.98,1.167-21.984,4.085
	c-1.751,0.778-4.183,1.362-4.28,3.502c-0.097,2.335,2.432,2.626,4.183,3.405c11.284,4.864,20.427,12.256,27.139,22.567
	c0.875,1.362,2.237,2.626,1.848,4.572c-13.813-11.478-29.279-19.844-46.691-24.318c-2.724-0.681-5.155-1.654-7.101-3.696
	c-1.167-1.167-3.696-2.335-3.113-3.696c0.778-1.848,3.307-0.681,4.961-0.389c8.852,1.167,16.731-0.486,23.151-7.101
	c0.584-0.681,1.751-1.07,1.459-2.14c-0.389-1.362-1.654-0.778-2.626-0.875c-3.696-0.389-7.49-0.875-11.186-1.07
	c-13.91-0.875-27.723-0.584-41.146,3.794c-5.836,1.945-11.381,4.572-16.439,8.074c-1.848,1.362-2.529,4.864-1.07,6.323
	c2.043,2.043,3.696,0.486,5.253-0.973c0.875-0.875,1.848-1.751,2.529-2.724c4.183-6.225,10.603-5.739,16.828-5.642
	c1.265,0,2.918,0.195,3.405,1.751c0.486,1.556-0.875,2.529-1.848,3.405c-5.545,4.766-11.867,7.49-19.065,8.171
	c-7.198,0.681-13.326,3.502-18.19,8.949c-3.696,4.085-3.015,9.922,1.459,13.521c3.891,3.113,7.587,2.237,11.284-2.335
	c3.794-4.864,6.906-10.214,11.673-14.202c6.42-5.447,13.715-4.28,17.704,3.113c4.766,8.852,4.669,15.661-2.335,23.054
	c-3.794,3.988-7.976,7.49-12.062,11.186c-0.973,0.875-1.751,1.848-1.362,3.21c0.389,1.459,1.654,1.848,2.821,2.043
	c2.237,0.486,4.475,0.097,6.128-1.362c8.56-7.393,18.287-13.229,27.236-19.941c4.377-3.307,6.031-7.685,5.155-13.229
	c-0.584-3.696-2.237-7.004-3.015-10.992c3.794,0.486,6.323,2.432,8.657,4.766c3.891,3.891,6.809,8.56,9.533,13.326
	c0.681,1.167,1.265,2.14,2.918,2.432C172.756,483.792,188.709,492.449,201.257,507.137z M95.23,449.844
	c-3.015-0.389-5.545-0.681-6.809,2.626C90.95,452.47,92.993,451.692,95.23,449.844z M770.4,796.232
	c-7.393,0-14.591-0.097-21.692,0.097c-1.848,0-2.529-1.07-3.405-2.237c-7.101-10.408-14.202-20.914-21.205-31.322
	c-1.265-1.848-2.529-2.821-4.961-2.626c-3.891,0.292-7.782,0.292-11.575,0.097c-2.724-0.195-3.21,0.875-3.21,3.307
	c0,10.019-0.195,20.038-0.195,30.057c0,2.335-0.486,3.21-3.015,3.015c-4.766-0.389-9.533-0.584-14.299-0.486
	c-2.529,0-3.21-0.681-3.21-3.307c0.097-15.564,0-31.225,0-46.788c0-14.785,0-29.571-0.292-44.454c0-2.821,0.778-3.307,3.405-3.21
	c13.618,0.486,27.334,0.681,40.952,1.167c4.961,0.195,10.116,0.486,14.883,1.751c10.603,2.821,17.606,9.825,20.427,20.427
	c2.724,10.214-0.973,18.774-8.171,25.972c-3.21,3.21-6.906,5.934-10.992,7.976c-2.14,1.07-2.043,1.945-0.681,3.696
	c8.657,11.284,17.12,22.762,25.68,34.143C769.427,794.092,770.303,794.675,770.4,796.232z M704.157,729.211
	c0,6.517,0.097,12.937,0,19.455c0,1.945,0.292,2.821,2.529,2.724c5.35-0.389,10.7-0.292,16.05-0.584
	c9.435-0.486,15.953-5.836,18.482-14.98c0.584-1.945,0.973-3.988,1.07-6.031c0.681-11.575-4.28-20.622-17.704-22.373
	c-5.836-0.778-11.576-0.097-17.412-0.389c-2.335-0.097-3.113,0.584-3.113,3.016C704.255,716.468,704.157,722.791,704.157,729.211
	L704.157,729.211z"/>
<path fill="#898989" d="M335.688,716.857c-4.28-1.07-7.782-3.599-11.575-5.35c-12.451-5.739-25.388-7.101-38.52-3.015
	c-7.587,2.432-13.715,7.295-17.995,14.007c-7.49,11.867-10.603,24.707-6.809,38.423c5.836,21.108,23.54,29.668,43.189,27.723
	c3.988-0.389,7.879-1.167,11.77-2.043c2.335-0.486,3.113-1.362,3.015-3.891c-0.195-9.533,0-19.163-0.097-28.695
	c-0.097-2.626,0.778-3.307,3.21-3.21c4.766,0.097,9.533,0,14.396-0.097c1.848-0.097,2.626,0.292,2.626,2.335
	c0,11.965,0.097,23.929,0.195,35.894c0,1.459-0.389,2.237-1.848,2.724c-24.999,9.144-50.095,10.895-74.705-0.389
	c-16.536-7.587-25.68-20.914-24.999-39.59c0.875-26.458,19.844-48.442,45.718-53.792c17.315-3.599,33.948-1.459,50.095,5.253
	c1.848,0.778,2.529,1.751,2.432,3.696C335.494,710.243,335.688,713.453,335.688,716.857L335.688,716.857z M201.549,796.524
	c-7.685,0-14.883-0.097-22.081,0.097c-1.945,0-2.529-0.973-3.113-2.432l-9.63-22.178c-0.681-1.751-1.654-2.335-3.502-2.335
	c-13.91,0.097-27.82,0.097-41.73,0c-1.848,0-2.821,0.584-3.599,2.237c-3.502,7.393-7.295,14.688-10.797,21.984
	c-0.875,1.751-1.848,2.529-3.891,2.432c-3.502-0.195-7.101-0.097-10.603-0.097c-0.584-1.07,0.195-1.848,0.584-2.529
	c15.369-30.933,30.835-61.865,46.205-92.798c0.875-1.848,1.848-2.529,3.891-2.335c3.405,0.292,7.49-0.875,10.019,0.681
	c2.432,1.556,3.405,5.739,4.864,8.755c13.813,28.306,27.723,56.515,41.535,84.822C200.285,793.8,200.771,794.87,201.549,796.524z
	 M161.181,760.727c-6.128-13.424-12.062-26.555-18.385-40.271c-6.42,13.132-12.451,25.583-18.482,38.034
	c-0.681,1.459-0.973,2.237,1.167,2.237H161.181z M395.316,733.491c0-10.603,0.097-21.205-0.097-31.808
	c0-2.432,0.584-3.113,3.015-3.015c4.864,0.195,9.825,0.195,14.688,0c2.529-0.097,3.21,0.584,3.113,3.21
	c-0.486,18.287-1.167,36.672-0.389,54.959c0.195,5.155,0.486,10.214,2.043,15.175c3.307,9.825,10.116,15.564,20.33,16.828
	c7.198,0.875,14.396,0.195,21.303-2.043c11.381-3.696,15.758-12.645,17.315-23.54c1.07-7.49,1.167-14.98,1.07-22.47
	c-0.195-13.132-0.389-26.166-0.681-39.298c-0.097-2.237,0.486-3.016,2.821-2.918c3.405,0.292,7.685-1.751,9.825,0.389
	c1.945,1.945,0.486,6.323,0.486,9.533c-0.195,17.509-0.195,35.115-0.681,52.625c-0.389,14.007-6.712,24.805-18.774,32.1
	c-17.898,10.797-44.745,9.338-61.282-3.307c-8.755-6.712-13.424-15.564-13.424-26.75v-29.765
	C395.705,733.491,395.511,733.491,395.316,733.491L395.316,733.491z M0,820.161c3.21-3.405,6.128-6.128,8.56-9.435
	c7.685-10.214,10.797-21.984,10.895-34.532c0.292-24.61,0.389-49.22,0.389-73.83c0-2.821,0.389-4.085,3.599-3.794
	c4.28,0.292,8.657,0.292,12.937,0c2.529-0.097,3.21,0.584,3.21,3.21c-0.292,17.12-0.389,34.143-0.584,51.263
	c-0.097,9.533,0.292,19.163-0.292,28.695c-0.778,12.84-8.074,29.376-23.735,35.602C10.408,819.188,5.642,819.966,0,820.161z
	 M146.298,439.338c-5.934,2.724-11.381,5.253-17.606,4.085c-0.973-0.195-2.432,0-2.724-0.875c-0.292-1.167,0.973-1.945,1.848-2.529
	c4.961-3.405,10.408-3.307,15.953-1.751C144.547,438.463,145.131,438.852,146.298,439.338L146.298,439.338z M400.277,544.587
	c-0.195-0.292-0.486-0.584-0.681-0.875c0.584-0.292,0.973-0.292,1.265,0.389C400.569,544.198,400.375,544.393,400.277,544.587
	L400.277,544.587z"/>
</svg>
