<?xml version="1.0" encoding="utf-8"?>
<!-- Generator: Adobe Illustrator 17.0.2, SVG Export Plug-In . SVG Version: 6.00 Build 0)  -->
<!DOCTYPE svg PUBLIC "-//W3C//DTD SVG 1.1//EN" "http://www.w3.org/Graphics/SVG/1.1/DTD/svg11.dtd">
<svg version="1.1" id="Layer_1" xmlns="http://www.w3.org/2000/svg" xmlns:xlink="http://www.w3.org/1999/xlink" x="0px" y="0px"
	 width="770.4px" height="1202.4px" viewBox="0 0 770.4 1202.4" enable-background="new 0 0 770.4 1202.4" xml:space="preserve">
<path fill="#898989" d="M94.744,649.155c-26.069,0-35.894-18.482-33.656-64.784H0.486
	c-11.867,165.072,188.904,131.902,190.849,48.053v-181.9h-60.99V613.65C130.345,634.175,118.186,649.155,94.744,649.155z
	 M622.643,533.79c146.201-102.136,182.386,235.011,0.486,149.703v63.422h-56.515V519.88h56.126L622.643,533.79L622.643,533.79z
	 M656.105,658.007c18.287,0,33.17-22.081,33.17-49.317s-14.883-49.317-33.17-49.317s-33.17,22.081-33.17,49.317
	S637.72,658.007,656.105,658.007L656.105,658.007z M385.492,619.584c-6.712-132.875,182.095-135.306,172.562,1.945H445.995
	c0.681,50.095,48.247,42.119,54.278,17.801h55.835C545.116,719.775,391.134,730.086,385.492,619.584L385.492,619.584z
	 M502.219,585.442c0-15.466-12.548-28.015-28.015-28.015s-28.015,12.548-28.015,28.015H502.219z M203.106,619.779
	c-6.712-132.875,182.192-135.306,172.562,1.945H263.512c0.681,50.095,48.247,42.119,54.278,17.801h55.835
	C362.73,719.97,208.65,730.475,203.106,619.779L203.106,619.779z M319.735,585.636c0-15.466-12.548-28.015-28.015-28.015
	c-15.466,0-28.015,12.548-28.015,28.015H319.735L319.735,585.636z"/>
<path fill="#898989" d="M713.009,724.542c0,15.077,12.256,27.431,27.431,27.431c15.077,0,27.431-12.256,27.431-27.431
	c0-15.077-12.256-27.431-27.431-27.431C725.265,697.111,713.009,709.27,713.009,724.542z M716.803,724.542
	c0-13.035,10.603-23.54,23.54-23.54s23.54,10.603,23.54,23.54s-10.603,23.54-23.54,23.54
	C727.406,747.984,716.803,737.382,716.803,724.542z"/>
<path fill="#898989" d="M727.892,710.243h15.369c8.074,0,9.63,6.031,9.63,8.657c0,3.307-1.751,6.225-4.766,7.295
	c2.529,1.07,3.891,2.043,3.891,7.782c0,4.475,0,5.545,1.362,6.031v0.778h-7.004c-0.486-1.459-0.681-3.015-0.681-6.128
	c0-4.183-0.292-5.739-4.961-5.739h-6.615v11.965h-6.225V710.243z M741.607,723.666c3.307,0,4.961-1.167,4.961-4.183
	c0-1.556-0.778-3.988-4.474-3.988h-7.976v8.171L741.607,723.666L741.607,723.666z"/>
</svg>
