<?xml version="1.0" encoding="utf-8"?>
<!-- Generator: Adobe Illustrator 17.0.2, SVG Export Plug-In . SVG Version: 6.00 Build 0)  -->
<!DOCTYPE svg PUBLIC "-//W3C//DTD SVG 1.1//EN" "http://www.w3.org/Graphics/SVG/1.1/DTD/svg11.dtd">
<svg version="1.1" id="Layer_1" xmlns="http://www.w3.org/2000/svg" xmlns:xlink="http://www.w3.org/1999/xlink" x="0px" y="0px"
	 width="770.4px" height="1202.4px" viewBox="0 0 770.4 1202.4" enable-background="new 0 0 770.4 1202.4" xml:space="preserve">
<path fill="#898989" d="M23.792,795.499H0v-86.859h23.792v33.611l26.561-33.485H74.9l-29.834,38.268l24.547,34.869
	c11.455,13.973,13.973,13.721,13.973,13.721H58.661c-6.042,0-11.959-7.301-11.959-7.301l-22.911-33.107V795.499z M112.413,795.499
	v-86.859H88.621v86.859H112.413z M500.634,721.355h24.925v-12.714h-73.641v12.714h24.925v74.145h23.792L500.634,721.355
	L500.634,721.355z M247.359,795.499h19.512l7.175-54.255l18.505,54.255h16.616l19.008-54.507l7.175,54.507h21.778l-12.085-86.859
	h-24.673l-18.253,50.227l-17.749-50.101h-25.051L247.359,795.499z M407.104,799.653c27.191,0,49.346-21.274,49.346-47.458
	s-22.029-47.458-49.346-47.458c-27.191,0-49.346,21.274-49.346,47.458S379.787,799.653,407.104,799.653z M381.424,752.07
	c0-18.631,11.455-33.611,25.554-33.611c14.099,0,25.554,15.106,25.554,33.611c0,18.631-11.455,33.611-25.554,33.611
	C392.879,785.806,381.424,770.701,381.424,752.07z M568.485,799.653c27.191,0,49.346-21.274,49.346-47.458
	s-22.029-47.458-49.346-47.458c-27.191,0-49.346,21.274-49.346,47.458S541.294,799.653,568.485,799.653z M542.931,752.07
	c0-18.631,11.455-33.611,25.554-33.611s25.554,15.106,25.554,33.611c0,18.631-11.455,33.611-25.554,33.611
	C554.386,785.806,542.931,770.701,542.931,752.07z M171.452,765.917l-10.7-30.086l-10.7,30.086H171.452z M145.52,778.631
	l-6.042,16.868h-19.512l30.967-86.859h23.792l31.093,86.859h-23.792l-6.042-16.868C175.984,778.631,145.52,778.631,145.52,778.631z
	 M623.621,708.766v86.859h23.792v-74.271h8.686c0,0,13.469,0.881,13.469,12.085c0,0,2.014,18.127-20.519,18.127l25.176,37.765
	c0,0,4.28,6.294,13.469,6.294h20.015c0,0-3.651-0.504-12.84-12.462l-19.638-29.708c18.756-6.042,17.498-23.414,17.498-23.414
	c0-20.519-23.918-21.274-23.918-21.274c0-0.126-12.336,0-20.141,0H623.621L623.621,708.766z M729.74,786.688
	c-12.085-2.014-24.799-8.182-24.799-8.182l3.525,13.344c10.7,6.672,25.68,7.301,25.68,7.301
	c38.772,1.762,36.254-29.834,36.254-29.834c-0.881-16.868-19.008-22.659-19.008-22.659c-25.177-8.686-23.036-18.253-23.036-18.253
	c0-10.071,15.987-10.574,15.987-10.574c11.204,0,17.749,5.916,17.749,5.916v-13.218c0,0-9.441-5.539-25.302-4.658
	c0,0-32.604,2.392-32.604,27.191c0,0-2.14,15.987,19.386,25.176c0,0,24.673,7.679,24.169,17.624
	C746.986,789.583,729.74,786.688,729.74,786.688L729.74,786.688z"/>
<g>
	<path fill="#898989" d="M385.955,402.746c-127.267,0-230.491,54.004-230.491,120.721s103.224,120.721,230.616,120.721
		s230.616-54.004,230.616-120.721C616.572,456.75,513.348,402.746,385.955,402.746L385.955,402.746z M386.962,616.621
		c-116.441,0-210.853-41.415-210.853-92.524c0-51.108,94.412-92.523,210.853-92.523s210.853,41.415,210.853,92.523
		C597.815,575.205,503.404,616.621,386.962,616.621z"/>
	<path fill="#898989" d="M503.152,466.821c-0.378-1.385-1.636-1.636-3.021-1.636h-43.178c-0.252,0-0.504,0.252-0.504,0.504v5.791
		c0,0.252,0.252,0.504,0.504,0.504h3.147c1.259,0,2.392,1.133,2.392,2.392c0,0.378-0.126,0.881-0.252,1.133l-34.618,102.972
		c0,0.252-0.126,0.378-0.126,0.629c0,1.133,1.007,2.14,2.14,2.14h26.939c1.259,0,2.644-1.133,3.147-2.518l23.162-72.005
		c0.126-0.629,0.504-1.133,1.133-1.133c0.629,0,1.007,0.504,1.133,1.133l23.162,72.005c0.378,1.385,1.762,2.518,3.147,2.518h27.065
		c1.133,0,2.014-1.007,2.014-2.14c0-0.252,0-0.504-0.126-0.629L503.152,466.821L503.152,466.821z M401.942,465.184h-35.751
		c-0.252,0-0.504,0.252-0.504,0.504v5.791c0,0.252,0.252,0.504,0.504,0.504h3.525c1.259,0,2.392,1.007,2.392,2.392V578.73
		c0,1.385,1.007,2.392,2.392,2.392h27.442c1.259,0,2.392-1.133,2.392-2.392V467.702
		C404.334,466.317,403.327,465.184,401.942,465.184L401.942,465.184z M310.552,521.076c-0.378-0.504-0.504-0.881-0.504-1.385
		c0-0.629,0.126-1.007,0.504-1.511l33.485-49.598c0.252-0.378,0.378-0.755,0.378-1.259c0-1.133-0.881-2.14-2.014-2.14h-30.212
		c-1.259,0-3.147,1.133-4.154,2.392l-21.778,30.967l-4.406,6.168c-0.504,0.504-0.629,0.629-0.881,1.007
		c-0.252,0.126-0.629,0.252-0.881,0.252c-0.755,0-1.259-0.629-1.259-1.511v-36.884c0-1.385-1.007-2.392-2.392-2.392h-34.869
		c-0.252,0-0.504,0.252-0.504,0.504v5.791c0,0.252,0.252,0.504,0.504,0.504h3.651c1.259,0,2.392,1.133,2.392,2.392v104.482
		c0,1.385,1.007,2.392,2.392,2.392h26.561c1.259,0,2.392-1.133,2.392-2.392v-43.933c0-0.881,0.504-1.511,1.259-1.511
		c0.252,0,0.629,0.126,0.881,0.252c0.378,0.252,0.378,0.504,0.881,1.007l31.471,44.185c1.007,1.385,2.769,2.392,4.154,2.392h31.596
		c1.133,0,2.014-1.007,2.014-2.14c0-0.629-0.126-1.007-0.504-1.385L310.552,521.076L310.552,521.076z"/>
</g>
</svg>
