<?xml version="1.0" encoding="utf-8"?>
<!-- Generator: Adobe Illustrator 17.0.2, SVG Export Plug-In . SVG Version: 6.00 Build 0)  -->
<!DOCTYPE svg PUBLIC "-//W3C//DTD SVG 1.1//EN" "http://www.w3.org/Graphics/SVG/1.1/DTD/svg11.dtd">
<svg version="1.1" id="Layer_1" xmlns="http://www.w3.org/2000/svg" xmlns:xlink="http://www.w3.org/1999/xlink" x="0px" y="0px"
	 width="770.4px" height="1202.4px" viewBox="0 0 770.4 1202.4" enable-background="new 0 0 770.4 1202.4" xml:space="preserve">
<g>
	<path fill="#898989" d="M384.811,415.895C172.27,415.895,0,498.869,0,601.2s172.27,185.305,384.811,185.305
		S769.622,703.531,769.622,601.2S597.352,415.895,384.811,415.895z M759.7,601.2c0,96.786-167.795,175.285-374.889,175.285
		c-206.996,0-374.889-78.499-374.889-175.285c0-96.786,167.795-175.285,374.889-175.285C591.807,425.914,759.7,504.316,759.7,601.2z
		"/>
	<path fill="#898989" d="M622.837,516.573h-64.589l-7.879,22.47h41.73l-47.664,16.536l-3.113,9.144l73.344-24.124L622.837,516.573z
		 M100.872,659.077h64.589l7.879-22.47h-41.827l47.664-16.536l3.113-9.046l-73.344,24.026L100.872,659.077z M284.62,638.066
		c12.159-38.812-28.793-37.839-28.793-37.839H214c3.015,3.405,0.681,10.505,0.681,10.505s-25.972,74.316-28.015,80.055
		c-2.043,5.739-5.739,9.727-5.739,9.727H214c-0.973,0-0.973-3.307-0.973-3.307l11.867-31.516c0,0,14.785,29.085,15.855,31.03
		c0.973,2.043,0.486,3.696,0.486,3.696h35.407c-3.405,0-6.906-6.42-6.906-6.42l-17.606-31.614
		C276.741,662.579,284.62,638.066,284.62,638.066L284.62,638.066z M255.827,634.662c-4.669,9.922-17.12,8.852-17.12,8.852h-6.42
		l6.809-20.135c0,0,3.696-0.097,7.004-0.097C261.177,623.281,255.827,634.662,255.827,634.662L255.827,634.662z M350.279,597.698
		c-32.295,0-53.403,24.513-58.85,54.959c-4.961,28.015,10.797,50.387,36.964,50.387c36.575,0,58.266-35.894,58.266-61.574
		C386.756,614.526,375.667,597.698,350.279,597.698L350.279,597.698z M355.045,653.533c-5.253,20.914-15.272,27.528-24.415,25.777
		c-12.354-2.335-10.311-21.497-8.268-30.349c4.377-19.455,15.175-28.695,23.248-27.723
		C348.431,621.53,363.022,621.822,355.045,653.533z M395.414,600.616c0,0,2.529,1.362,2.529,7.782v86.767
		c0,0-0.389,4.766-2.14,5.739h27.139c0,0,0-2.043,2.724-5.35c2.724-3.405,59.045-78.985,59.045-78.985s12.84-15.855,16.245-15.855
		h-38.909c0,0,3.015,2.043,0.681,5.739c-2.335,3.696-36.866,55.348-36.866,55.348l0.389-52.138c0,0-0.097-8.365,3.307-9.046H395.414
		L395.414,600.616z M559.513,624.351l8.755-23.735h-65.854c0,0,2.335,2.043-0.681,10.505c-3.015,8.463-29.668,80.347-29.668,80.347
		s-4.766,9.435-6.031,9.435h67.896l8.074-24.026c0,0-1.07,1.362-7.393,1.362h-28.695l6.031-16.245h22.275
		c0,0,4.766-0.292,5.739,1.07l9.144-25.583c0,0-0.681,2.335-6.712,2.335h-21.595l6.42-17.898h27.236
		C554.455,621.919,558.151,621.433,559.513,624.351z M211.082,556.065h-26.264c0,0,24.415-64.978,26.361-69.842
		c2.432-6.225,4.28-7.685,5.058-7.976c0.097-0.097,0.195-0.097,0.292-0.097h-36.088c4.475,2.14,0.486,10.603,0.486,10.603
		s-29.085,81.028-31.127,85.114c-2.043,4.085-3.502,4.572-3.502,4.572h62.935l8.755-24.026
		C217.113,556.649,211.082,556.065,211.082,556.065L211.082,556.065z M321.389,578.244h29.668c0,0-2.043-3.015-0.778-6.323
		c1.751-4.572,17.509-47.372,17.509-47.372l6.809,53.695h26.847l35.213-95.425c0,0,1.459-4.475,3.405-4.475l-28.501-0.097
		c0,0,0.778,3.307-0.195,5.836s-17.217,45.815-17.217,45.815l-6.323-51.652h-30.641c0,0,1.556,2.529,0.584,5.35
		c-0.778,2.237-32.489,89.102-32.489,89.102S323.237,578.244,321.389,578.244L321.389,578.244z M490.644,478.247h-33.656
		c0,0,2.529,4.085-0.778,13.424c-3.307,9.338-29.085,78.985-29.085,78.985s-2.043,6.517-4.766,7.782h40.563
		c0,0,49.123,1.848,64.297-49.804C527.024,528.634,546.284,477.761,490.644,478.247z M494.145,533.012
		c-8.56,20.914-21.303,22.373-28.209,22.373h-4.669l19.746-55.64h7.587C488.601,499.842,508.25,498.674,494.145,533.012z
		 M317.985,578.438c0,0-2.432-1.362-2.821-5.35l-4.085-88.129c0,0-0.195-5.642,2.529-6.809H281.41c0,0,2.237,2.821-2.043,9.144
		c-4.28,6.323-59.239,87.837-59.239,87.837s-1.07,2.043-3.891,3.307h32.489c0,0-0.097-2.529,0.778-4.085
		c1.556-2.918,5.545-10.019,5.545-10.019h32.684l0.097,8.852c0,0,0.195,3.015-2.237,5.35h32.392V578.438z M269.056,541.572
		l18.093-29.376l0.292,29.376H269.056L269.056,541.572z M650.463,638.066c12.159-38.812-28.793-37.839-28.793-37.839h-41.827
		c3.015,3.405,0.681,10.505,0.681,10.505s-25.972,74.316-28.015,80.055c-2.043,5.739-5.739,9.727-5.739,9.727h33.073
		c-0.973,0-0.973-3.307-0.973-3.307l11.867-31.516c0,0,14.785,29.085,15.758,31.03c1.07,2.043,0.486,3.696,0.486,3.696h35.407
		c-3.405,0-6.809-6.42-6.809-6.42l-17.606-31.614C642.584,662.579,650.463,638.066,650.463,638.066L650.463,638.066z
		 M621.573,634.662c-4.669,9.922-17.12,8.852-17.12,8.852h-6.42l6.906-20.135c0,0,3.696-0.097,7.004-0.097
		C627.02,623.281,621.573,634.662,621.573,634.662L621.573,634.662z"/>
</g>
</svg>
