<?xml version="1.0" encoding="utf-8"?>
<!-- Generator: Adobe Illustrator 17.0.2, SVG Export Plug-In . SVG Version: 6.00 Build 0)  -->
<!DOCTYPE svg PUBLIC "-//W3C//DTD SVG 1.1//EN" "http://www.w3.org/Graphics/SVG/1.1/DTD/svg11.dtd">
<svg version="1.1" id="Layer_1" xmlns="http://www.w3.org/2000/svg" xmlns:xlink="http://www.w3.org/1999/xlink" x="0px" y="0px"
	 width="770.4px" height="1202.4px" viewBox="0 0 770.4 1202.4" enable-background="new 0 0 770.4 1202.4" xml:space="preserve">
<g>
	<path fill="#898989" d="M605.438,203.295c-36.85-3.725-134.231-9.179-225.892-9.179c-91.793,0-189.041,5.454-225.892,9.179
		c-42.039,4.257-61.595,25.543-61.595,67.182c0,79.155,2.927,202.345,8.381,274.715c4.789,64.521,8.647,115.474,88.867,164.297
		c57.471,34.855,114.675,64.788,189.041,103.234l1.33,0.665l1.33-0.665c74.632-38.58,131.837-68.513,189.041-103.234
		c80.353-48.824,84.078-99.776,88.867-164.164c5.454-72.77,8.381-195.826,8.381-274.715
		C667.033,228.838,647.477,207.552,605.438,203.295L605.438,203.295z M633.774,543.463c-4.656,61.728-7.583,102.569-76.894,144.608
		c-54.411,33.125-102.436,58.269-174.94,95.918l-2.395,1.33l-2.395-1.33c-70.242-36.451-120.396-62.792-174.94-95.918
		c-69.444-42.172-72.504-82.88-77.16-144.741c-5.321-71.971-8.248-194.363-8.248-272.853c0-28.735,9.845-39.511,39.112-42.438
		c36.451-3.592,132.768-9.046,223.497-9.046s186.913,5.454,223.364,9.046c29.268,2.927,39.112,13.703,39.112,42.438
		C642.155,348.967,639.229,471.226,633.774,543.463L633.774,543.463z"/>
	<path fill="#898989" d="M375.555,379.033l-8.647,29.134c-31.396-64.122-68.779-97.647-114.01-97.647
		c-48.957,0-72.903,32.726-79.953,43.103c12.638-31.529,45.764-59.333,90.064-59.333C323.539,294.29,357.728,342.05,375.555,379.033
		z M148.599,444.752c0.399,106.693,31.396,158.044,77.825,158.044c21.418,0,36.85-13.569,36.85-35.52
		c0-18.758-8.115-33.658-11.441-39.644c1.33,6.12,2.395,13.17,2.395,21.019c0,18.359-12.372,24.345-22.483,24.345
		c-30.864,0-61.728-59.998-70.375-128.245H148.599z M496.084,294.29c44.3,0,77.426,27.671,90.064,59.333
		c-7.051-10.377-30.997-43.103-79.953-43.103c-45.232,0-82.614,33.658-114.01,97.647l-8.647-29.134
		C401.231,342.05,435.553,294.29,496.084,294.29z M597.722,444.752c-8.647,68.379-39.511,128.245-70.375,128.245
		c-10.111,0-22.616-5.854-22.616-24.345c0-7.849,1.064-14.9,2.395-21.019c-3.326,5.987-11.441,20.886-11.441,39.644
		c0,21.951,15.299,35.52,36.85,35.52c46.296,0,77.426-51.351,77.825-158.044H597.722L597.722,444.752z"/>
	<path fill="#898989" d="M534.797,352.958c-39.644,0-78.357,31.529-101.505,104.432l15.033,10.377l-7.184,35.786l-27.937,11.574
		l-5.055,35.254l13.703-16.762l14.634-6.12l-4.523,22.749l-25.276,10.51l-8.913,60.93l6.12,19.423l-24.345,9.578l-24.345-9.578
		l6.12-19.423l-8.913-60.93l-25.276-10.51l-4.523-22.749l14.634,6.12l13.702,16.762l-5.055-35.254l-27.937-11.574l-7.184-35.786
		L325.8,457.39c-23.148-72.903-61.861-104.432-101.505-104.432c-48.957,0-69.178,46.429-66.65,84.743h11.707
		c9.845,54.145,37.383,99.909,58.136,99.909c6.386,0,9.711-4.789,9.711-12.638c0-19.157-13.037-39.112-13.037-75.563
		c0-16.895,5.454-27.405,18.093-27.405c8.647,0,15.698,9.046,19.822,18.891c-7.716,27.272-6.519,50.154,15.299,59.865
		c10.776,4.789,23.813,10.51,23.813,10.51s13.836,58.535,14.767,62.659c0.931,3.858,3.193,9.179,5.055,12.372
		c2.528,4.39,20.62,35.52,20.62,35.52s6.12,30.997,7.45,37.516c3.592,17.827,16.23,17.827,30.465,17.827s27.006,0,30.465-17.827
		c1.33-6.519,7.45-37.516,7.45-37.516s18.093-30.997,20.62-35.52c1.729-3.193,4.124-8.514,5.055-12.372
		c1.064-4.124,14.767-62.659,14.767-62.659s13.037-5.72,23.813-10.51c21.685-9.711,22.882-32.46,15.299-59.865
		c4.257-9.844,11.308-18.891,19.822-18.891c12.638,0,18.093,10.51,18.093,27.405c0,36.451-13.037,56.539-13.037,75.563
		c0,7.849,3.326,12.638,9.711,12.638c20.753,0,48.291-45.897,58.136-99.909h11.707C603.974,399.387,583.753,352.958,534.797,352.958
		L534.797,352.958z M285.757,490.25c-15.432-6.652-17.028-24.744-11.84-49.09l16.895,26.607l6.253,27.405
		C297.065,495.172,290.945,492.511,285.757,490.25L285.757,490.25z M473.202,490.25c-5.188,2.262-11.308,4.922-11.308,4.922
		l6.253-27.405l16.895-26.607C490.23,465.505,488.634,483.731,473.202,490.25L473.202,490.25z M175.871,968.773
		c31.263-13.836,26.607-37.649,26.607-37.649c0-38.048-51.484-36.318-51.484-36.318H0v113.478h82.481v-34.323h15.964l24.877,33.658
		h87.669L175.871,968.773L175.871,968.773z M101.372,946.157H81.816v-21.685l21.285-0.399c0,0,10.909,0.399,10.909,10.909
		C114.01,944.827,101.372,946.157,101.372,946.157L101.372,946.157z M415.997,894.806H287.353l-59.2,112.813h86.871l9.845-22.483
		h57.338l9.445,22.35h87.669L415.997,894.806L415.997,894.806z M337.374,956.268l16.23-36.717l16.23,36.717H337.374L337.374,956.268
		z M653.596,1007.619l32.327-63.324v63.191H770.4V894.673H652.133l-17.693,35.121l-17.694-35.121H498.479v112.813h84.344v-63.191
		l32.327,63.324L653.596,1007.619z"/>
</g>
</svg>
