<?xml version="1.0" encoding="utf-8"?>
<!-- Generator: Adobe Illustrator 17.0.2, SVG Export Plug-In . SVG Version: 6.00 Build 0)  -->
<!DOCTYPE svg PUBLIC "-//W3C//DTD SVG 1.1//EN" "http://www.w3.org/Graphics/SVG/1.1/DTD/svg11.dtd">
<svg version="1.1" id="Layer_1" xmlns="http://www.w3.org/2000/svg" xmlns:xlink="http://www.w3.org/1999/xlink" x="0px" y="0px"
	 width="770.4px" height="1202.4px" viewBox="0 0 770.4 1202.4" enable-background="new 0 0 770.4 1202.4" xml:space="preserve">
<g>
	<path fill="#898989" d="M102.797,518.359c0-249.104,184.594-272.193,286.115-272.193s286.115,23.089,286.115,272.193
		c0,243.07-187.611,273.817-286.115,273.817C292.033,792.176,102.797,761.429,102.797,518.359L102.797,518.359z M496.583,509.193
		l30.746,230.656c16.94-9.282,109.179-53.835,107.67-221.49c0-196.777-119.969-249.104-222.998-249.104L496.583,509.193
		L496.583,509.193z M388.913,463.015h13.807v-193.76h-26.105v193.76H388.913z M388.913,769.087
		c56.968,0,107.67-15.431,129.251-26.105L405.852,498.403h-33.879L259.662,742.981C281.242,753.772,331.945,769.087,388.913,769.087
		L388.913,769.087z M365.824,269.255c-103.029,0-222.998,52.327-222.998,249.22c-1.508,167.655,90.731,212.208,107.67,221.49
		l32.255-230.656L365.824,269.255L365.824,269.255z M68.106,843.226h30.282l68.106,112.659h-32.139L82.957,870.84l-26.802,45.017
		h43.625l12.879,21.232H43.045l-11.37,18.912H0L68.106,843.226L68.106,843.226z M672.36,843.226h30.63l67.642,112.659h-32.139
		l-51.051-85.046l-27.266,45.017h43.857l12.879,21.232h-69.15l-11.718,18.912h-31.791L672.36,843.226L672.36,843.226z
		 M375.454,956.234h25.293c29.47-0.348,41.189-16.591,41.189-43.161V843.11h-27.614v74.836c0,14.039-9.862,15.895-18.912,16.243
		h-39.68c-9.05-0.348-18.912-2.32-18.912-16.243V843.11h-27.962v69.963c0,26.453,12.066,42.697,41.653,43.161H375.454z
		 M192.484,899.498v-14.039c0.348-9.398,2.32-19.26,15.547-18.912h85.046V843.11h-85.51c-26.453,0-42.697,12.067-43.161,41.537
		v29.818c0.348,29.47,16.591,41.189,43.161,41.189h85.51v-23.089h-85.046c-13.227,0-15.083-9.398-15.547-18.912V899.498z
		 M487.765,955.886h-27.614V843.226h103.261c35.967,0,45.017,47.686,20.072,64.277c11.022,4.177,12.531,17.752,13.227,22.277
		l0.812,26.105h-27.266l-0.812-23.089c-0.812-9.862-7.194-16.591-17.056-16.591h-52.559l-5.337-23.437h60.913
		c9.398,0,14.735-4.177,14.735-12.531c0-7.89-5.337-12.879-14.735-12.879h-67.642L487.765,955.886L487.765,955.886z"/>
</g>
</svg>
