<svg xmlns="http://www.w3.org/2000/svg" viewBox="0 0 792 360"><path d="M387.7 294.8c-5.9-5.4-15.5-8.5-25-8.5-23.3 0-38.6 13.3-38.6 30 0 15.5 14.5 28.8 38.6 28.8 11.9 0 20.9-3.8 27.1-9.9l11.9 6.3c-3.1 3-15.5 12.9-39.2 12.9-32.9 0-53.3-19.6-53.3-38.2 0-22.9 22.1-39.4 54-39.4 13.6 0 28 3.6 36.3 11.5l-11.8 6.5zm125.1 59.8c29.5 0 50.3-16.9 50.3-38.8S542.3 277 512.8 277c-29.5 0-50.3 16.9-50.3 38.8s20.8 38.8 50.3 38.8m0-9.4c-22.1 0-36.4-13.3-36.4-29.4 0-16.2 14.3-29.4 36.4-29.4 22.1 0 36.4 13.3 36.4 29.4 0 16.1-14.3 29.4-36.4 29.4M0 278.9h10.7v64.4h36.2v9.4H0zm110.7 0h10.7v73.8h-10.7zm65 0h17.9l55.4 60.7h.3v-60.7h13.6v73.8h-17.3l-56-60.7h-.2v60.7h-13.7zm437.2 0h10.7v64.4h36.2v9.4h-46.9zm110.7 0h14l43.5 60.7h.2v-60.7H792v73.8h-13.6L734.6 292h-.3v60.7h-10.7zm-385.9-82.8c-3.9-27.4-4.9-61.8-5-79.7 5.7.6 11.5 1.1 16.5 1.3.1 33.1 1.3 59.9 2.5 78.4h-14H373h-14c1.2-18.4 2.4-45.3 2.5-78.4 5-.2 10.8-.8 16.5-1.3-.1 17.9-1.1 52.3-5 79.7h-35.3zm0-168.5h14c-1.1 18.4-2.4 45.3-2.5 78.4-5 .2-10.8.8-16.5 1.3.1-17.9 1.1-52.3 5-79.7m35.3 0c3.9 27.4 4.9 61.8 5 79.7-5.7-.6-11.5-1.1-16.5-1.3-.1-33.1-1.3-59.9-2.5-78.4h14zm12.8 80.6c-.1-28.1-1.7-59.9-6.2-89.2 0 0-9.3-1.1-21.3-1.3-.8-11.4-1.5-17.7-1.5-17.7h-3s-.7 6.3-1.5 17.7c-12 .2-21.3 1.3-21.3 1.3-4.5 29.2-6.1 61-6.2 89.2-9.9 1.2-17.8 2.3-17.8 2.3v2.9s7.9 1.1 17.8 2.3c.1 28.1 1.7 59.9 6.2 89.1 0 0 9.2 1.1 21.3 1.3.8 11.5 1.5 17.7 1.5 17.7h3s.7-6.3 1.5-17.7c12-.2 21.3-1.3 21.3-1.3 4.4-29.2 6.1-61 6.2-89.1 9.9-1.2 17.8-2.3 17.8-2.3v-2.9c0-.1-7.9-1.2-17.8-2.3" fill-rule="evenodd" clip-rule="evenodd" fill="#21404C"/></svg>