<?xml version="1.0" encoding="utf-8"?>
<!-- Generator: Adobe Illustrator 17.0.2, SVG Export Plug-In . SVG Version: 6.00 Build 0)  -->
<!DOCTYPE svg PUBLIC "-//W3C//DTD SVG 1.1//EN" "http://www.w3.org/Graphics/SVG/1.1/DTD/svg11.dtd">
<svg version="1.1" id="Layer_1" xmlns="http://www.w3.org/2000/svg" xmlns:xlink="http://www.w3.org/1999/xlink" x="0px" y="0px"
	 width="770.4px" height="1202.4px" viewBox="0 0 770.4 1202.4" enable-background="new 0 0 770.4 1202.4" xml:space="preserve">
<path fill="#898989" d="M333.294,650.569c132.199,0,239.234-54.977,239.234-122.717S465.493,405.135,333.294,405.135
	c-132.108,0-239.234,54.976-239.234,122.717S201.186,650.569,333.294,650.569z M378.242,590.305
	c-3.92,9.208-10.849,28.993-26.531,36.833c-4.832,2.279-10.758,3.464-15.955,3.647c-1.185,0.182-2.006,0-2.279,0
	c-44.218,0-85.245-6.017-119.708-16.593c-0.274-0.182-1.094-0.456-1.094-0.456c-3.465-1.094-5.106-2.553-5.106-4.376
	c0-1.55,0.729-2.735,2.006-3.92c0.456-0.456,1.185-1.094,2.097-2.006c7.841-6.656,32.001-23.978,76.858-41.392
	c15.864-6.017,35.648-13.585,56.344-17.961C357.09,541.711,402.129,534.964,378.242,590.305L378.242,590.305z M499.318,466.676
	c0.729-1.55,2.006-2.826,4.103-2.826c1.185-0.182,2.553,0.182,4.832,1.641c28.081,17.323,44.856,38.93,44.856,62.361
	c0,42.395-54.338,78.681-131.925,94.636c-5.014,1.094-8.297,1.094-9.482-0.273c-0.729-0.912-1.094-2.097,0-3.738
	c0.456-0.912,1.094-1.641,2.097-2.735c42.304-49.962,74.578-123.629,83.604-145.054C497.95,468.956,498.679,467.588,499.318,466.676
	L499.318,466.676z M289.076,465.035c3.92-9.208,10.849-28.993,26.531-36.833c4.832-2.37,10.758-3.465,15.955-3.647h2.37
	c44.036,0,85.154,6.2,119.526,16.593c0.273,0,1.094,0.273,1.368,0.456c3.191,1.094,4.832,2.553,4.832,4.376
	c0,1.641-0.912,2.735-2.006,3.92c-0.456,0.456-1.185,1.185-2.097,2.006c-8.023,6.656-31.819,23.978-76.858,41.21
	c-15.864,6.2-35.648,13.585-56.344,18.143C310.137,513.63,265.189,520.468,289.076,465.035L289.076,465.035z M245.769,433.216
	c5.014-1.094,8.935-1.094,9.938,0.274c0.729,0.729,1.094,2.097,0,3.738c-0.456,0.912-1.094,1.641-2.006,2.826
	c-42.395,49.962-74.578,123.629-83.604,144.872c-0.729,1.55-1.368,3.009-2.006,3.92c-0.912,1.55-2.097,2.735-4.103,2.826
	c-1.094,0-2.553-0.274-5.014-1.641c-28.081-17.323-45.403-38.93-45.403-62.361C113.844,485.458,168.182,449.08,245.769,433.216
	L245.769,433.216z"/>
<path fill="#898989" d="M333.294,650.569c132.199,0,239.234-54.977,239.234-122.717S465.493,405.135,333.294,405.135
	c-132.108,0-239.234,54.976-239.234,122.717S201.186,650.569,333.294,650.569z M378.242,590.305
	c-3.92,9.208-10.849,28.993-26.531,36.833c-4.832,2.279-10.758,3.464-15.955,3.647c-1.185,0.182-2.006,0-2.279,0
	c-44.218,0-85.245-6.017-119.708-16.593c-0.274-0.182-1.094-0.456-1.094-0.456c-3.465-1.094-5.106-2.553-5.106-4.376
	c0-1.55,0.729-2.735,2.006-3.92c0.456-0.456,1.185-1.094,2.097-2.006c7.841-6.656,32.001-23.978,76.858-41.392
	c15.864-6.017,35.648-13.585,56.344-17.961C357.09,541.711,402.129,534.964,378.242,590.305L378.242,590.305z M499.318,466.676
	c0.729-1.55,2.006-2.826,4.103-2.826c1.185-0.182,2.553,0.182,4.832,1.641c28.081,17.323,44.856,38.93,44.856,62.361
	c0,42.395-54.338,78.681-131.925,94.636c-5.014,1.094-8.297,1.094-9.482-0.273c-0.729-0.912-1.094-2.097,0-3.738
	c0.456-0.912,1.094-1.641,2.097-2.735c42.304-49.962,74.578-123.629,83.604-145.054C497.95,468.956,498.679,467.588,499.318,466.676
	L499.318,466.676z M289.076,465.035c3.92-9.208,10.849-28.993,26.531-36.833c4.832-2.37,10.758-3.465,15.955-3.647h2.37
	c44.036,0,85.154,6.2,119.526,16.593c0.273,0,1.094,0.273,1.368,0.456c3.191,1.094,4.832,2.553,4.832,4.376
	c0,1.641-0.912,2.735-2.006,3.92c-0.456,0.456-1.185,1.185-2.097,2.006c-8.023,6.656-31.819,23.978-76.858,41.21
	c-15.864,6.2-35.648,13.585-56.344,18.143C310.137,513.63,265.189,520.468,289.076,465.035L289.076,465.035z M245.769,433.216
	c5.014-1.094,8.935-1.094,9.938,0.274c0.729,0.729,1.094,2.097,0,3.738c-0.456,0.912-1.094,1.641-2.006,2.826
	c-42.395,49.962-74.578,123.629-83.604,144.872c-0.729,1.55-1.368,3.009-2.006,3.92c-0.912,1.55-2.097,2.735-4.103,2.826
	c-1.094,0-2.553-0.274-5.014-1.641c-28.081-17.323-45.403-38.93-45.403-62.361C113.844,485.458,168.182,449.08,245.769,433.216
	L245.769,433.216z"/>
<g>
	<defs>
		<path id="SVGID_1_" d="M333.294,650.569c132.199,0,239.234-54.977,239.234-122.717S465.493,405.135,333.294,405.135
			c-132.108,0-239.234,54.976-239.234,122.717S201.186,650.569,333.294,650.569z M378.242,590.305
			c-3.92,9.208-10.849,28.993-26.531,36.833c-4.832,2.279-10.758,3.464-15.955,3.647c-1.185,0.182-2.006,0-2.279,0
			c-44.218,0-85.245-6.017-119.708-16.593c-0.274-0.182-1.094-0.456-1.094-0.456c-3.465-1.094-5.106-2.553-5.106-4.376
			c0-1.55,0.729-2.735,2.006-3.92c0.456-0.456,1.185-1.094,2.097-2.006c7.841-6.656,32.001-23.978,76.858-41.392
			c15.864-6.017,35.648-13.585,56.344-17.961C357.09,541.711,402.129,534.964,378.242,590.305L378.242,590.305z M499.318,466.676
			c0.729-1.55,2.006-2.826,4.103-2.826c1.185-0.182,2.553,0.182,4.832,1.641c28.081,17.323,44.856,38.93,44.856,62.361
			c0,42.395-54.338,78.681-131.925,94.636c-5.014,1.094-8.297,1.094-9.482-0.273c-0.729-0.912-1.094-2.097,0-3.738
			c0.456-0.912,1.094-1.641,2.097-2.735c42.304-49.962,74.578-123.629,83.604-145.054
			C497.95,468.956,498.679,467.588,499.318,466.676L499.318,466.676z M289.076,465.035c3.92-9.208,10.849-28.993,26.531-36.833
			c4.832-2.37,10.758-3.465,15.955-3.647h2.37c44.036,0,85.154,6.2,119.526,16.593c0.273,0,1.094,0.273,1.368,0.456
			c3.191,1.094,4.832,2.553,4.832,4.376c0,1.641-0.912,2.735-2.006,3.92c-0.456,0.456-1.185,1.185-2.097,2.006
			c-8.023,6.656-31.819,23.978-76.858,41.21c-15.864,6.2-35.648,13.585-56.344,18.143
			C310.137,513.63,265.189,520.468,289.076,465.035L289.076,465.035z M245.769,433.216c5.014-1.094,8.935-1.094,9.938,0.274
			c0.729,0.729,1.094,2.097,0,3.738c-0.456,0.912-1.094,1.641-2.006,2.826c-42.395,49.962-74.578,123.629-83.604,144.872
			c-0.729,1.55-1.368,3.009-2.006,3.92c-0.912,1.55-2.097,2.735-4.103,2.826c-1.094,0-2.553-0.274-5.014-1.641
			c-28.081-17.323-45.403-38.93-45.403-62.361C113.844,485.458,168.182,449.08,245.769,433.216L245.769,433.216z"/>
	</defs>
	<use xlink:href="#SVGID_1_"  overflow="visible" fill="#898989"/>
	<clipPath id="SVGID_2_">
		<use xlink:href="#SVGID_1_"  overflow="visible"/>
	</clipPath>
	<g clip-path="url(#SVGID_2_)">
		<g>
			<path fill="#898989" d="M333.294,405.135c-132.108,0-239.234,54.794-239.234,122.535s107.127,122.535,239.234,122.535
				c132.199,0,239.234-54.977,239.234-122.535C572.528,459.93,465.493,405.135,333.294,405.135"/>
			<path fill="#898989" d="M324.086,414.526l-7.111,0.456c-15.226,0.729-27.351,9.208-35.739,25.528l-1.368,2.37
				c-15.226,27.169-31.09,62.908-20.058,78.955c11.305,16.411,37.472,13.311,72.937,3.465c31.09-8.57,95.274-32.457,139.584-67.467
				c3.465-2.826,8.114-7.111,7.385-11.761c-0.638-4.194-5.47-7.841-14.314-11.214c-39.021-13.585-84.698-20.696-132.563-20.696
				L324.086,414.526L324.086,414.526z M316.974,415.438l7.111-0.274l8.935-0.273c47.683,0,93.451,7.111,132.381,20.696
				c8.57,3.191,13.311,6.747,14.04,10.758c0.729,4.559-3.738,8.57-7.203,11.488c-44.401,35.01-108.494,58.897-139.493,67.285
				c-35.283,9.847-61.267,12.946-72.481-3.282c-2.097-3.009-3.647-7.203-3.647-13.767c0-12.399,5.561-32.275,23.705-64.732
				l1.368-2.37C289.988,424.646,301.84,415.985,316.974,415.438L316.974,415.438z M490.839,448.26
				c-3.191,1.185-5.744,4.194-7.841,9.026c-28.81,67.193-62.635,118.341-95.092,163.471c-3.738,5.288-4.65,9.391-3.009,12.217
				c2.553,4.194,10.394,4.65,16.32,3.738c96.004-14.77,163.197-59.809,163.197-109.406c0-28.081-24.799-57.803-64.641-78.043
				C496.4,447.713,493.391,447.257,490.839,448.26L490.839,448.26z M385.353,632.882c-1.641-2.735-0.638-6.656,2.826-11.761
				c32.457-45.13,66.282-96.277,95.092-163.653c2.006-4.65,4.559-7.658,7.567-8.752c2.553-0.912,5.47-0.638,8.752,1.094
				c39.66,20.058,64.276,49.689,64.276,77.587c0,49.506-66.829,94.18-162.741,108.95
				C395.017,637.258,387.632,636.711,385.353,632.882z M333.385,530.679c-33.551,9.208-84.06,25.984-135.39,63.82
				c-5.561,4.103-11.761,9.482-11.032,15.135c0.638,4.194,5.288,7.841,13.767,11.032c61.906,21.425,113.964,22.064,147.607,20.696
				c12.673-0.638,26.075-3.191,38.474-27.898l2.097-3.92c8.752-16.32,32.001-59.809,16.776-78.043
				C392.738,515.909,361.466,522.838,333.385,530.679L333.385,530.679z M200.913,620.209c-8.479-3.009-12.946-6.656-13.402-10.758
				c-0.729-5.288,5.47-10.758,10.849-14.679c51.33-37.927,101.839-54.521,135.207-63.82c28.081-7.658,58.988-14.679,71.661,0.638
				c3.465,4.194,4.832,9.664,4.832,15.955c0,20.969-15.59,50.144-21.608,61.45l-2.097,3.92
				c-12.217,24.616-25.528,27.169-38.019,27.625C314.513,642.273,262.636,641.635,200.913,620.209z"/>
			<path fill="#898989" d="M200.639,619.571c0-0.182,0.182-0.273,0.182-0.273l-0.182-0.182V619.571z M200.639,619.753
				c0.182,0,0.182,0,0.182-0.182L200.639,619.753z M200.731,619.936l-0.274-0.182L200.731,619.936z M266.556,418.994
				c-96.46,14.405-163.744,59.353-163.744,109.588c0,38.748,42.759,65.917,61.085,75.946l0.638,0.273
				c1.185,0.729,3.009,1.823,6.929,2.826c6.382,2.006,10.849-1.094,13.585-8.935l3.92-10.394
				c29.722-71.114,79.41-140.495,90.26-153.806c3.647-4.559,4.65-8.297,3.009-11.214
				C279.867,419.358,272.483,418.082,266.556,418.994L266.556,418.994z M171.464,607.081c-3.738-1.185-5.561-2.097-6.747-2.826
				l-0.638-0.273c-18.417-9.847-60.811-37.016-60.811-75.49c0-49.962,67.193-94.636,163.471-108.95
				c5.744-0.912,12.855,0.274,15.134,4.103c1.55,2.735,0.456,6.2-3.009,10.576c-10.758,13.311-60.538,82.875-90.26,153.989
				l-3.92,10.394C181.767,605.986,177.482,608.904,171.464,607.081L171.464,607.081z"/>
		</g>
	</g>
</g>
<g>
	<defs>
		<path id="SVGID_3_" d="M333.294,650.569c132.199,0,239.234-54.977,239.234-122.717S465.493,405.135,333.294,405.135
			c-132.108,0-239.234,54.976-239.234,122.717S201.186,650.569,333.294,650.569z M378.242,590.305
			c-3.92,9.208-10.849,28.993-26.531,36.833c-4.832,2.279-10.758,3.464-15.955,3.647c-1.185,0.182-2.006,0-2.279,0
			c-44.218,0-85.245-6.017-119.708-16.593c-0.274-0.182-1.094-0.456-1.094-0.456c-3.465-1.094-5.106-2.553-5.106-4.376
			c0-1.55,0.729-2.735,2.006-3.92c0.456-0.456,1.185-1.094,2.097-2.006c7.841-6.656,32.001-23.978,76.858-41.392
			c15.864-6.017,35.648-13.585,56.344-17.961C357.09,541.711,402.129,534.964,378.242,590.305L378.242,590.305z M499.318,466.676
			c0.729-1.55,2.006-2.826,4.103-2.826c1.185-0.182,2.553,0.182,4.832,1.641c28.081,17.323,44.856,38.93,44.856,62.361
			c0,42.395-54.338,78.681-131.925,94.636c-5.014,1.094-8.297,1.094-9.482-0.273c-0.729-0.912-1.094-2.097,0-3.738
			c0.456-0.912,1.094-1.641,2.097-2.735c42.304-49.962,74.578-123.629,83.604-145.054
			C497.95,468.956,498.679,467.588,499.318,466.676L499.318,466.676z M289.076,465.035c3.92-9.208,10.849-28.993,26.531-36.833
			c4.832-2.37,10.758-3.465,15.955-3.647h2.37c44.036,0,85.154,6.2,119.526,16.593c0.273,0,1.094,0.273,1.368,0.456
			c3.191,1.094,4.832,2.553,4.832,4.376c0,1.641-0.912,2.735-2.006,3.92c-0.456,0.456-1.185,1.185-2.097,2.006
			c-8.023,6.656-31.819,23.978-76.858,41.21c-15.864,6.2-35.648,13.585-56.344,18.143
			C310.137,513.63,265.189,520.468,289.076,465.035L289.076,465.035z M245.769,433.216c5.014-1.094,8.935-1.094,9.938,0.274
			c0.729,0.729,1.094,2.097,0,3.738c-0.456,0.912-1.094,1.641-2.006,2.826c-42.395,49.962-74.578,123.629-83.604,144.872
			c-0.729,1.55-1.368,3.009-2.006,3.92c-0.912,1.55-2.097,2.735-4.103,2.826c-1.094,0-2.553-0.274-5.014-1.641
			c-28.081-17.323-45.403-38.93-45.403-62.361C113.844,485.458,168.182,449.08,245.769,433.216L245.769,433.216z"/>
	</defs>
	<use xlink:href="#SVGID_3_"  overflow="visible" fill="#898989"/>
	<clipPath id="SVGID_4_">
		<use xlink:href="#SVGID_3_"  overflow="visible"/>
	</clipPath>
	<g clip-path="url(#SVGID_4_)">
		<path opacity="0.37" fill="#898989" enable-background="new    " d="M333.294,405.135c-132.108,0-239.234,54.794-239.234,122.535
			s107.127,122.535,239.234,122.535c132.199,0,239.234-54.977,239.234-122.535C572.528,459.93,465.493,405.135,333.294,405.135z
			 M499.591,607.719c-44.218,22.611-103.206,35.192-166.206,35.192s-121.896-12.582-166.115-35.192
			c-42.577-21.881-65.917-50.236-65.917-79.958c0-29.722,23.431-58.076,65.917-79.957c44.218-22.793,103.206-35.192,166.206-35.192
			s121.988,12.491,166.206,35.192c42.577,21.881,65.917,50.236,65.917,79.957S542.168,585.838,499.591,607.719z"/>
	</g>
</g>
<g>
	<path fill="#898989" d="M60.964,699.346v37.289H18.752v-37.289H-4.679v97.918h23.431v-39.386h42.212v39.386h23.249v-97.918H83.21
		H60.964z M169.823,699.346l-24.434,38.748l-24.343-38.748H93.422l40.298,64.003v33.916h23.249v-33.916l40.298-64.003h-2.097
		H169.823z M272.3,699.346v71.843c0,2.735-2.097,5.014-5.014,5.014h-37.472v-76.675h-23.249v97.918H275.4
		c6.2,0,11.032-1.823,14.679-5.47c3.647-3.647,5.47-8.479,5.47-14.679v-77.861H272.3V699.346L272.3,699.346z M386.082,699.346
		h-68.926v97.918h23.249v-76.675h37.472c3.009,0,5.014,2.37,5.014,4.832v71.843h23.431v-77.861c0-6.2-1.823-11.032-5.47-14.679
		C397.114,701.078,392.1,699.346,386.082,699.346L386.082,699.346z M496.582,699.346h-68.835v97.918h68.835
		c6.017,0,11.032-1.823,14.679-5.47s5.47-8.479,5.47-14.679V719.13c0-6.2-1.823-11.032-5.47-14.679
		C507.614,701.078,502.782,699.346,496.582,699.346L496.582,699.346z M493.3,725.604v45.404c0,2.735-2.006,5.106-5.014,5.106
		h-37.289v-55.523h37.107C491.294,720.589,493.3,722.686,493.3,725.604z M557.303,699.346c-6.2,0-11.032,1.823-14.679,5.47
		c-3.647,3.647-5.47,8.479-5.47,14.679v77.861h23.249v-30.36h42.304v30.36h23.249v-98.009H557.303L557.303,699.346z
		 M602.888,720.589v25.163h-42.304v-20.24c0-2.37,1.823-5.014,5.014-5.014L602.888,720.589z M648.748,699.346h23.249v97.918h-23.249
		V699.346z"/>
</g>
<g>
	<path fill="#898989" d="M698.801,699.346v2.826h-3.92v14.314h-3.647v-14.314h-3.92v-2.826H698.801z M700.533,716.486v-17.049h5.744
		l2.735,11.579l2.826-11.579h5.561v17.049h-3.465v-13.129l-3.282,13.129h-3.464l-3.191-13.129v13.129H700.533z"/>
</g>
</svg>
