<?xml version="1.0" encoding="utf-8"?>
<!-- Generator: Adobe Illustrator 17.0.2, SVG Export Plug-In . SVG Version: 6.00 Build 0)  -->
<!DOCTYPE svg PUBLIC "-//W3C//DTD SVG 1.1//EN" "http://www.w3.org/Graphics/SVG/1.1/DTD/svg11.dtd">
<svg version="1.1" id="Layer_1" xmlns="http://www.w3.org/2000/svg" xmlns:xlink="http://www.w3.org/1999/xlink" x="0px" y="0px"
	 width="770.4px" height="1202.4px" viewBox="0 0 770.4 1202.4" enable-background="new 0 0 770.4 1202.4" xml:space="preserve">
<path fill="#898989" d="M119.548,798.615h85.114c3.891,0,7.004-3.113,7.004-6.906v-37.742c0-3.794-3.113-6.906-7.004-6.906h-85.114
	c-3.891,0-7.004,3.113-7.004,6.906v37.742C112.545,795.502,115.657,798.615,119.548,798.615z M124.898,757.079h74.608
	c1.265,0,2.335,1.07,2.335,2.335v26.945c0,1.265-1.07,2.335-2.335,2.335h-74.608c-1.265,0-2.335-1.07-2.335-2.335v-26.945
	C122.564,758.149,123.634,757.079,124.898,757.079z M0,798.615h10.019v-12.354h81.612c4.085,0,7.393-3.307,7.393-7.295v-24.61
	c0-3.988-3.307-7.295-7.393-7.295H0V798.615z M10.019,776.339v-19.26h75.873c1.654,0,3.113,1.362,3.113,3.113v13.035
	c0,1.654-1.362,3.113-3.113,3.113L10.019,776.339L10.019,776.339z M224.7,798.615h10.019v-12.354h72.468l6.323,12.354h10.895
	l-6.42-12.451c3.21-0.778,5.642-3.696,5.642-7.101v-24.61c0-3.988-3.307-7.295-7.393-7.295H224.7V798.615L224.7,798.615z
	 M234.719,776.339v-19.26h75.873c1.654,0,3.113,1.362,3.113,3.113v13.035c0,1.654-1.362,3.113-3.113,3.113L234.719,776.339
	L234.719,776.339z M561.166,798.615h10.019v-20.719h73.927v20.719h10.019V747.06h-10.019v20.816h-73.927V747.06h-10.019V798.615z
	 M459.808,798.615h86.281v-10.116c-0.195,0.097-0.486,0.097-0.778,0.097h-80.055c-1.265,0-2.335-1.07-2.335-2.335v-26.945
	c0-1.265,1.07-2.335,2.335-2.335h80.055c0.292,0,0.486,0,0.778,0.097v-10.116h-86.281c-3.891,0-7.004,3.113-7.004,6.906v37.742
	C452.902,795.502,456.015,798.615,459.808,798.615L459.808,798.615z M670.598,798.615H770.4v-10.019h-89.685v-10.7H770.4v-10.019
	h-89.685V757.08H770.4V747.06h-99.802V798.615L670.598,798.615z M351.544,761.651v-2.335c0-1.265,1.07-2.335,2.335-2.335h80.055
	c0.292,0,0.486,0,0.778,0.097v-10.116h-86.281c-3.891,0-7.004,3.113-7.004,6.906v16.925c0,3.794,3.113,6.906,7.004,6.906h7.295
	v0.097c0.195-0.097,0.486-0.097,0.778-0.097h65.756c1.265,0,2.335,1.07,2.335,2.335v6.225c0,1.265-1.07,2.335-2.335,2.335h-80.055
	c-0.292,0-0.486,0-0.778-0.097v10.116h86.281c3.891,0,7.004-3.113,7.004-6.906v-16.925c0-3.794-3.113-6.906-7.004-6.906h-7.295
	v-0.097c-0.195,0.097-0.486,0.097-0.778,0.097h-65.756c-1.265,0-2.335-1.07-2.335-2.335V761.651z"/>
<g>
	<path fill="#898989" d="M381.99,678.678c-50.387-25.972-91.825-62.644-93.965-106.708l-11.673-153.885
		c42.995-9.825,69.064-14.299,105.638-14.299V678.678z"/>
	<path fill="#FFFFFF" d="M381.99,495.61h-35.602v60.504c0,16.439,13.813,35.31,35.602,35.31V495.61z"/>
	<path fill="#898989" d="M381.99,678.678c50.387-25.972,91.825-62.644,93.965-106.708l11.673-153.885
		c-42.995-9.825-68.966-14.299-105.638-14.299V678.678z"/>
	<path fill="#FFFFFF" d="M381.99,408.065c43.481,0,82.779,9.241,101.066,13.813l-1.945,26.361
		c-46.885-11.77-74.705-13.618-99.121-13.618c-24.415,0-52.235,1.848-99.121,13.618l-1.945-26.361
		C299.211,417.306,338.509,408.065,381.99,408.065z M421.775,520.123l-0.097,29.182l51.555,0.195l2.237-29.571L421.775,520.123
		L421.775,520.123z M477.706,491.719l2.237-30.446l-95.814-0.584v29.668h37.645v1.362
		C421.775,491.719,477.706,491.719,477.706,491.719z"/>
	<path d="M342.205,520.22c-1.265,1.556-2.724,3.696-3.015,4.766c0.584,0.292,1.848,1.362,3.015,2.821V520.22z"/>
	<path fill="#FFFFFF" d="M329.171,637.92c15.466,14.007,33.754,25.68,50.679,34.629v-34.726L329.171,637.92z M379.85,607.96v-12.354
		c-14.494-0.681-24.707-8.074-30.835-16.925l-56.224,0.097c1.654,10.311,5.447,20.038,10.992,29.182H379.85L379.85,607.96z
		 M381.99,495.61h35.602v60.504c0,16.439-13.813,35.31-35.602,35.31C381.99,591.424,381.99,495.61,381.99,495.61z"/>
	<path fill="#FFFFFF" d="M406.405,587.63c10.408-7.976,15.369-20.233,15.369-28.89v-5.155l51.263-0.195l-1.848,24.902
		c-6.323,41.925-49.901,74.608-87.059,94.16v-77.04c6.225-0.292,11.673-1.848,16.342-4.183l-0.097,1.07
		c-1.265,3.696-1.167,5.155-1.265,5.934c-0.195,1.654-2.237,1.848-2.626,1.654c-0.486-0.292-0.973-0.389-1.459-0.389
		c-1.654,0-2.918,1.265-2.918,2.918c0,0.292,0,0.486,0.097,0.681c-1.07,0.486-1.556,1.265-1.556,2.529
		c0,1.654,1.07,2.918,2.626,2.918c0.681,0,1.07,0.097,1.556-0.292c0.584,0.584,1.362,0.973,2.237,0.973
		c1.654,0,2.432-0.389,2.529-3.696c10.797-5.739,27.236-10.116,34.532-9.727c8.268,0.486,14.202,8.657,14.883,9.241
		c0.681,0.486,1.167,0.486,1.07-0.292c-0.486-3.405-1.556-8.56-9.63-12.937c0.486-2.237,4.475-2.626,5.155-3.015
		c0.584-0.292,0.778-0.973,0-0.973c-5.35-0.681-9.241,1.654-9.922,2.626c-0.778-0.195-4.377-0.486-5.447-0.389
		c0.584-2.724,2.237-4.669,4.572-6.712c-0.389,0.292,0.681-0.875-0.097-0.875c-5.934,0.486-9.63,6.712-10.019,8.268
		c-0.486,0.097-7.004,1.167-8.074,1.459c0.973-6.225,8.074-10.505,8.657-10.895c0.681-0.389,0.875-1.07,0-1.07
		c-8.949,0.292-15.466,11.867-15.758,14.299c-1.362,0.486-3.502,1.265-4.572,1.945c-0.389-4.183-0.292-5.447,0.875-7.879
		L406.405,587.63L406.405,587.63z"/>
	<path fill="#898989" d="M397.748,626.831c-0.097,2.626-0.778,3.016-2.043,3.016c-0.681,0-1.362-0.292-1.751-0.778
		c-0.389,0.292-0.778,0.195-1.265,0.195c-1.265,0-2.14-1.07-2.14-2.335c0-0.973,0.389-1.654,1.167-2.043
		c-0.097-0.195-0.097-0.389-0.097-0.584c0-1.265,1.07-2.335,2.335-2.335c0.486,0,0.875,0.097,1.167,0.292
		c0.292,0.097,1.945,0,2.043-1.265c0.097-1.362,3.015-11.965,10.214-12.937c0.778-0.195,0.486,0.389,0.195,0.778
		c0.584-0.584-6.225,4.864-5.642,10.797c0.875-0.486,3.307-1.362,4.475-1.751c0.292-1.945,6.128-10.797,13.326-10.992
		c0.681,0,0.486,0.486,0,0.875c-0.486,0.292-6.712,3.599-7.49,8.657c0.875-0.292,5.058-1.07,5.545-1.167
		c0.292-1.265,4.864-6.906,10.019-6.712c0.584,0-0.195,0.875,0.097,0.681c-1.945,1.556-5.447,3.599-5.934,5.739
		c0.875-0.097,3.794,0.097,4.377,0.292c0.584-0.778,3.891-2.918,8.268-2.432c0.584,0,0.486,0.584,0,0.778
		c-0.584,0.292-3.307,1.167-3.696,2.918c4.669,2.724,6.42,5.642,6.906,8.365c0.097,0.681-0.292,0.681-0.875,0.292
		c-0.486-0.389-5.447-5.155-12.062-5.545C419.051,619.147,406.406,622.26,397.748,626.831L397.748,626.831z M395.414,644.924
		c-0.097,1.848-0.875,2.14-1.751,2.14c-0.486,0-0.875-0.195-1.167-0.584c-0.292,0.195-0.486,0.195-0.875,0.195
		c-0.875,0-1.459-0.681-1.459-1.556c0-0.681,0.292-1.167,0.875-1.362c0-0.097-0.097-0.195-0.097-0.389
		c0-0.875,0.681-1.556,1.556-1.556c0.292,0,0.584,0.097,0.778,0.195c0.195,0.097,1.265,0,1.459-0.875
		c0.097-0.973,0.584-8.365,5.058-9.144c0.486-0.097,0.389,0.292,0.097,0.486c0.389-0.389-2.626,3.113-1.848,7.49
		c0.584-0.389,1.654-0.778,2.432-1.07c0.195-1.362,1.848-7.49,6.712-7.685c0.486,0,0.389,0.389,0,0.584
		c-0.389,0.195-2.432,2.432-2.918,5.836c0.681-0.389,2.335-0.584,3.015-0.778c0.195-0.875,3.794-5.642,7.295-5.545
		c0.389,0-0.097,0.584,0.097,0.486c-1.265,1.07-3.015,2.821-3.405,4.377c0.584-0.097,1.945-0.097,2.335,0
		c0.389-0.486,1.848-2.335,4.864-1.945c0.389,0,0.292,0.389,0,0.486c-0.389,0.195-1.459,0.875-1.751,2.14
		c3.405,1.654,4.864,3.113,5.155,4.961c0.097,0.486-0.195,0.486-0.584,0.195c-0.389-0.292-3.405-2.432-7.976-2.626
		C409.226,639.088,401.445,641.325,395.414,644.924z M352.516,549.5c0.292-0.973,1.362-2.237,1.556-2.821
		c0.097-0.584-0.097-1.07,0.292-1.654c0.389-0.584,1.556-1.751,1.945-2.14c0.389-0.389,1.751-0.973,2.529,0.584
		c0.778,1.556,1.945,5.155,4.475,6.128c-0.973,0.486-3.405,1.362-4.669,1.654s-2.237,0.486-1.751,3.599
		c0.486,3.113,0.681,4.475,0.486,5.447s-0.292,3.113,1.556,4.766l1.654,2.335c0.681,0.584,2.237,1.265,2.432-0.097
		c0.097-1.362,0.486-2.626-0.778-2.821c-0.486-0.097-1.751-1.167-1.556-2.335c0.097-1.167-0.195-2.237-0.778-3.21
		c-0.486-0.973-0.778-2.14-0.486-3.113s0.973-1.556,2.626-1.265c1.362,0.486,7.393,2.14,9.241,0.097
		c1.265,0.973,8.755,3.696,13.132,3.21c0.778,1.362,2.432,4.475,3.502,5.35c0.875,0.778,1.167,3.307-0.292,4.669
		c-0.875,0.681-3.113,3.015-4.961,3.502c-1.848,0.486-2.626,0.875-3.405,1.751c-0.875,0.875-1.362,0.875-1.945,1.945
		c-0.486,1.167-1.751,3.113,0.195,3.113s2.432-0.973,2.626-1.459c0.097-0.486,0-1.654,0.778-1.848
		c0.778-0.195,3.015-0.292,4.475-2.237c1.556-1.848,4.572-2.821,5.739-3.015c1.167-0.195,1.362-1.362,1.167-1.945
		c-0.097-0.584-0.195-2.14,0.486-2.918c1.07,0.292,4.475,0.973,6.031,3.21c0.292,0.584,0.292,0.973,0.584,1.362
		c-0.486,0.778-1.362,1.556-1.751,2.335c-0.292,0.778-0.778,2.14-2.237,3.307c-1.556,1.167-2.821,1.945-3.599,3.015
		c-0.778,1.07-1.167,2.237-1.07,3.696c0.097,1.459,0.486,0.778,1.167,0.778c0.681,0,2.237-0.778,2.237-1.751
		c0.097-0.973-0.389-1.459,0.973-2.043c1.362-0.584,3.891-2.626,4.377-3.891c0.486-1.265,2.14-3.696,3.405-4.475
		c1.265-0.778,0.973-1.751,0.389-2.821c-0.584-1.07-2.626-3.891-2.237-5.739c0.389-1.848,2.626-3.016,3.21-5.836
		c0.681-2.821,0.292-4.183-0.097-5.155c1.167-0.292,1.751-0.097,3.21,0.584c1.459,0.681,4.766,0.486,5.155-0.389
		c0.389-0.973,0.292-2.821,0-3.21c0.973-0.778,1.556-2.529,1.07-3.307c-0.486-0.778-0.778-1.848-0.486-2.918
		c-0.973-0.097-1.945-0.973-1.265-1.556c0.681-0.584,1.945-1.945,1.362-3.794c0.195-1.167,0.292-2.529-1.654-2.432
		c-0.097-0.778-0.681-3.113-3.696-0.973c-0.486,0.292-0.973-0.389-0.292-0.584c0.681-0.195,4.085-1.362,4.669-2.529
		c0.486-1.167,0.292-1.751,0.097-2.237c0.292-0.486,0.486-1.556,0.292-1.945c-0.292-0.389-1.362-0.292-2.043,1.459
		c-0.778,1.751-0.486,1.751-2.432,2.14c-1.945,0.292-3.405,0-4.669,2.14c-0.389,0.486-0.584,1.167-1.556,1.654
		c-0.973,0.486-1.459,1.362-1.556,2.14c-0.097,0.778,0.486,2.043,0.389,3.016c-0.097,0.973-0.681,2.918,1.751,5.058
		c1.167,1.362,3.015,3.015,1.654,4.377s-2.529-0.097-3.502-0.778c-0.973-0.681-4.28-1.654-6.323-1.556
		c-2.14,0.097-9.046-1.556-10.7-3.016c-1.654-1.362-0.681-2.14,0.195-2.529c0.584-0.292,0.973-0.486,1.362-1.167
		c0.292-0.681,0.875-0.778,1.459-0.778c0.584,0,1.167-0.097,1.751-1.362c0.584-1.265,1.07-0.778,1.654-0.973
		c0.584-0.097,0.973-1.362-0.097-1.751c-1.07-0.389-1.654-0.778-1.556-1.167c0.097-0.389,0.778-1.265,1.751-1.362
		c0.973-0.097,1.07-0.778,0.973-1.265c-0.097-0.486,0-0.875,0.681-1.167c0.681-0.292,0.584-1.167-0.486-1.459
		c-1.167-0.292-2.821-0.778-2.821-1.265c0-0.486,0.778-1.459,1.459-1.751c0.681-0.292,1.07-1.362-0.584-1.362
		c-1.654,0.097-2.626,0.292-2.918-0.778s-0.389-1.654,1.362-2.335c0.778-0.195,0.973-1.167-0.389-1.167
		c-1.362,0.097-2.821,0.778-3.307,0.292c-0.486-0.486-0.292-0.875-0.097-1.07c0.292-0.195,0.292-0.875-0.292-0.875
		c-0.681,0-3.21,0.973-3.891,0.292c-0.681-0.778-1.751-1.167-2.626-0.584c-0.875,0.486-0.875,1.362-0.389,1.751
		c0.486,0.486-0.097,1.167-0.681,0.778c-0.486-0.486-0.292-0.778-0.292-0.973c0-0.195-0.389-0.875-0.875-1.167
		c-0.486-0.292-0.486-0.973-0.292-1.459c0.097-0.486-0.389-0.973-1.167-0.486c-0.778,0.486-1.556,1.265-1.167,2.432
		c-0.875,0.097-3.015,0.584-3.113,1.265s0.292,1.362,0.097,1.654c-0.097,0.292-0.875,0.292-1.265,0.486
		c-1.167,1.167-3.015,2.237-3.502,2.626c-0.486,0.486-0.778,0.973-1.362,1.654s-0.681,1.459-0.389,1.751
		c0.778,1.07,1.362,0.292,1.751,0.973c0.389,0.584,0.389,0.778,0.292,1.07c-0.097,0.292,0.778,1.07,1.945,0.097
		c1.167-0.973,2.043-2.043,3.015-0.973c0.973,1.167,0.097,1.751-0.292,2.529c-0.778,0.778-2.626,3.21-3.502,3.988
		c-0.875,0.778-1.556,2.432-1.848,4.085c-0.292,1.556-0.778,1.945-1.07,2.335c-1.556-0.584-3.405-1.362-4.377-2.14
		c-0.681-0.486-2.14-1.167-3.015,0.097c-0.486,0.486-2.821,3.794-3.405,5.155s-1.556,0.875-1.556,3.502
		c0,0.973-0.778,1.362-1.167,2.821c-0.097,0.389-1.167,2.821-0.097,3.307s2.335-0.097,2.626-0.778
		C352.419,552.32,352.516,550.278,352.516,549.5L352.516,549.5z"/>
	<path fill="#FFFFFF" d="M342.205,491.33h37.645v-52.235c-21.011,0.292-49.609,1.459-96.592,13.715l7.393,96.689h51.555v-17.898
		c-1.459-1.167-3.696-3.015-10.311-2.918c-3.891,0-15.077,3.696-21.497,11.673c-0.097,2.821-1.654,3.794-3.015,3.794
		c-0.778,0-1.362-0.292-1.848-0.875c-0.389,0.292-0.875,0.486-1.459,0.486c-1.362,0-2.432-1.07-2.432-2.432
		c0-1.07,0.681-1.945,1.654-2.335c-0.097-0.195-0.097-0.389-0.097-0.584c0-1.362,1.07-2.432,2.432-2.432
		c0.486,0,0.875,0.097,1.265,0.389c0.292,0.195,1.265,0.778,1.459-0.584c0.097-1.459-0.097-15.369,7.393-17.412
		c0.778-0.195,0.584,0.486,0.195,0.778c-0.389,0.389-3.599,6.031-3.21,13.132c0.875-0.584,2.821-1.945,3.988-2.432
		c0.389-1.556,2.918-13.035,9.046-13.229c0.681,0,0.584,0.584,0,0.875c-0.584,0.389-3.21,3.502-3.696,9.144
		c0.875-0.292,3.113-0.681,3.599-0.778c0.389-1.362,3.015-9.046,7.976-9.533c0.584,0,0.389,0.681,0.097,0.875
		c-0.292,0.292-2.918,3.988-3.405,7.587c0.875-0.097,3.015,0,3.599,0.195c0.584-0.681,4.766-5.35,8.463-6.906v-15.758
		c-0.681-0.681-1.751-1.265-5.155-1.362c-5.253,0-14.007,2.14-26.069,10.019c-0.097,3.696-2.237,5.058-4.085,5.058
		c-0.973,0-1.848-0.389-2.432-1.07c-0.584,0.389-1.167,0.681-1.945,0.681c-1.848,0-3.307-1.459-3.307-3.307
		c0-1.362,0.973-2.626,2.14-3.113c-0.097-0.292-0.097-0.486-0.097-0.778c0-1.848,1.459-3.307,3.307-3.307
		c0.584,0,1.167,0.195,1.654,0.486c0.389,0.195,2.043,0.875,2.335-0.973c0.195-1.945,3.21-18.482,13.326-19.941
		c1.07-0.195,0.681,0.584,0.195,1.07c-0.486,0.486-8.365,7.004-7.782,16.536c1.167-0.681,4.864-2.529,6.42-3.113
		c0.486-2.043,4.961-14.396,13.132-14.591c0.973,0,0.681,0.681,0,1.167s-5.739,3.988-6.42,11.478
		c1.167-0.389,4.864-1.265,5.447-1.362c0.486-1.751,3.696-8.949,10.311-9.533c0.875,0,0.486,0.875,0.097,1.265
		c-0.389,0.389-3.891,2.821-4.572,7.587c0.681-0.097,2.14,0.195,3.405,0.486L342.205,491.33L342.205,491.33z"/>
	<path fill="#898989" d="M309.522,481.895c-0.097,4.085-2.529,5.642-4.475,5.642c-1.07,0-2.043-0.486-2.724-1.265
		c-0.584,0.486-1.362,0.681-2.14,0.681c-2.043,0-3.696-1.654-3.696-3.696c0-1.556,1.07-2.918,2.432-3.502
		c-0.097-0.292-0.097-0.584-0.097-0.875c0-2.043,1.654-3.696,3.696-3.696c0.681,0,1.362,0.195,1.848,0.486
		c0.486,0.195,2.335,0.973,2.529-1.07c0.195-2.237,3.113-21.692,14.396-23.248c1.167-0.292,0.778,0.681,0.292,1.167
		s-9.241,7.587-8.268,19.552c1.362-0.778,5.934-3.015,7.685-3.696c0.389-3.015,4.766-17.217,14.591-17.509
		c1.07,0,0.778,0.778,0,1.362c-0.778,0.486-6.809,5.35-7.587,13.618c1.362-0.389,5.545-1.07,6.225-1.167
		c0.486-1.945,4.669-11.673,12.062-12.354c0.973,0,0.486,0.681,0.097,1.07c-0.389,0.389-5.739,4.864-5.739,10.214
		c1.362-0.097,5.058-0.097,5.934,0.097c0.973-1.167,4.864-5.545,10.603-5.934c0.973,0,0.486,0.681,0,1.167s-3.988,3.599-4.669,6.323
		c1.945,1.07,7.685,4.864,8.365,9.144c0.097,1.07-0.486,1.07-1.362,0.389c-0.778-0.681-6.906-5.545-14.591-5.545
		C337.439,469.444,322.945,473.14,309.522,481.895z M367.496,427.714v3.113l-4.572,0.195v-2.724c0-2.724-1.459-4.377-3.988-4.183
		l-12.645,0.778l0.097,7.295l-4.572,0.195l-0.486-18.287l19.065-1.265c3.502-0.292,6.517,0.389,6.517,5.155
		c0,1.362-0.486,2.724-1.265,3.988C366.621,422.85,367.496,424.796,367.496,427.714z M286.176,443.764l-1.362-18.482l18.871-4.28
		c2.432-0.486,5.739-0.195,5.934,4.085c0.097,4.28-0.681,6.031-3.696,6.712l-15.855,3.599l0.584,7.295L286.176,443.764
		L286.176,443.764z"/>
	<path fill="#FFFFFF" d="M289.775,428.395l0.097,2.724l13.229-2.918c1.167-0.292,1.362-1.167,1.265-1.751
		c-0.097-0.486-0.486-1.167-1.848-0.875C301.156,425.769,289.775,428.395,289.775,428.395z"/>
	<path fill="#898989" d="M312.537,423.045c0-1.751-0.097-4.28,4.669-4.961l15.369-2.529c1.848-0.292,6.031,0.973,6.031,4.377
		l0.195,8.852c0.097,1.848-0.097,4.28-5.058,5.058l-14.202,2.237c-2.529,0.486-6.615,0.097-6.809-4.669L312.537,423.045
		L312.537,423.045z"/>
	<path fill="#FFFFFF" d="M317.206,425.185C317.206,425.185,317.206,426.547,317.206,425.185s-0.097-2.724,2.432-3.21l11.77-1.945
		c1.265-0.195,2.626,0.778,2.626,1.945l0.097,5.447c0,0.875-0.389,2.237-2.335,2.626l-11.575,1.848
		c-1.556,0.292-2.626,0.292-2.821-1.751L317.206,425.185L317.206,425.185z"/>
	<path fill="#898989" d="M377.224,419.64c-0.875,0-1.556-0.681-1.556-1.556s0.681-1.556,1.556-1.556H395.9v-4.085h-20.914
		c-1.07,0-4.669,0.195-4.572,5.642c0,5.447,3.794,5.545,4.572,5.545h14.688c0.875,0,1.556,0.681,1.556,1.556
		s-0.681,1.459-1.556,1.459h-18.676v3.988h20.816c1.362,0,4.766,0.195,4.766-5.545c0-5.739-3.891-5.447-4.766-5.447
		C391.815,419.64,377.224,419.64,377.224,419.64z M428.681,414.777l-1.07,18.774l4.377,0.584l0.486-8.074l15.369,2.918l-0.486,7.685
		l4.377,0.778l1.167-18.774l-4.377-0.778l-0.486,7.295l-15.369-2.918l0.389-6.906L428.681,414.777z M455.82,438.122l1.07-18.579
		l21.108,4.377l-0.292,3.794l-16.634-3.502l-0.097,3.502l16.536,3.502l-0.292,3.794l-16.536-3.599l-0.195,3.794l16.439,3.502
		l-0.292,3.794L455.82,438.122L455.82,438.122z M424.498,418.473l0.195-4.085l-19.455-1.556c-1.654-0.097-4.864-0.292-5.155,5.155
		s-0.389,7.879-0.389,7.879c-0.097,1.848,1.07,4.961,4.572,5.253l19.357,1.459l0.195-4.085l-16.147-1.167
		c-1.556-0.097-3.21-0.486-3.015-3.307l0.097-3.988c0.097-1.556,0.584-3.015,3.113-2.821L424.498,418.473L424.498,418.473z"/>
	<path fill="#FFFFFF" d="M359.715,420.127l-13.618,0.778l-0.097-2.918l13.715-0.681c1.07,0,1.459,0.389,1.556,1.362
		C361.465,419.543,360.687,420.029,359.715,420.127z"/>
	<path fill="#898989" d="M351.349,507.283c0.195,1.167,0.681,1.556,1.751,1.556c0.875,0,1.459-0.486,1.459-1.167
		c0-0.389-0.195-0.584-0.681-0.875l-2.432-1.167c-1.07-0.486-1.556-1.265-1.556-2.432c0-1.751,1.167-2.918,2.918-2.918
		c1.945,0,3.015,1.07,3.113,3.113h-1.556c-0.195-1.07-0.584-1.459-1.459-1.459c-0.778,0-1.362,0.486-1.362,1.07
		c0,0.292,0.195,0.584,0.584,0.778l2.529,1.167c1.167,0.486,1.654,1.167,1.654,2.432c0,0.875-0.389,1.751-0.973,2.335
		c-0.584,0.486-1.167,0.681-2.14,0.681c-1.362,0-2.237-0.486-2.821-1.362c-0.292-0.486-0.389-0.973-0.486-1.848h1.459
		C351.349,507.186,351.349,507.283,351.349,507.283z M363.119,500.669v1.751h-2.335v7.879h-1.654v-7.879h-2.432v-1.751H363.119z
		 M370.609,500.669v5.934c0,2.237-0.681,3.891-3.21,3.891s-3.21-1.654-3.21-3.891v-5.934h1.654v5.934c0,1.556,0.389,2.14,1.556,2.14
		s1.556-0.584,1.556-2.14v-5.934H370.609L370.609,500.669z M377.905,500.669v1.751h-2.335v7.879h-1.654v-7.879h-2.432v-1.751
		H377.905z M388.799,505.046h3.307v5.253h-1.07l-0.195-1.265c-0.584,0.973-1.362,1.362-2.335,1.362c-2.14,0-3.696-2.043-3.696-4.961
		c0-3.113,1.556-5.155,3.891-5.155c1.945,0,3.21,1.167,3.405,3.307h-1.654c-0.292-1.07-0.875-1.556-1.751-1.556
		c-1.362,0-2.237,1.265-2.237,3.307c0,1.945,0.875,3.307,2.237,3.307c0.973,0,1.654-0.681,1.945-2.043h-1.751v-1.556H388.799
		L388.799,505.046z M395.9,500.669h1.848l2.724,9.63h-1.751l-0.486-2.043h-2.918l-0.584,2.043h-1.654L395.9,500.669L395.9,500.669z
		 M404.946,500.669c1.167,0,1.556,0.097,2.043,0.584c0.486,0.486,0.778,1.265,0.778,2.237c0,1.07-0.292,1.654-1.167,2.237
		c0.778,0.389,0.875,0.681,0.973,2.529c0.097,1.556,0.097,1.848,0.389,2.14h-1.848c-0.195-0.486-0.195-0.681-0.195-1.556
		c0-1.459,0.195-2.335-1.362-2.335h-1.459v3.794h-1.654v-9.63H404.946L404.946,500.669z M415.063,500.669v1.751h-2.335v7.879h-1.654
		v-7.879h-2.432v-1.751H415.063z M385.005,500.669v1.751h-2.335v7.879h-1.654v-7.879h-2.335v-1.751H385.005z"/>
	<path fill="#FFFFFF" d="M397.748,506.602l-0.973-3.696l-0.973,3.696H397.748z M403.098,504.851h1.556
		c1.07,0,1.459-0.292,1.459-1.265c0-0.973-0.389-1.265-1.459-1.265h-1.556C403.098,502.322,403.098,504.851,403.098,504.851z"/>
</g>
</svg>
