<svg xmlns="http://www.w3.org/2000/svg" viewBox="0 0 143.1 45"><defs><style>.cls-1{fill:#fff;}.cls-2{fill:#7d7d7d;}.cls-3{fill:#f16625;}.cls-4{fill:#f05c22;}</style></defs><title>logo.goauto.orange.grey</title><path d="M45 22.5A22.5 22.5 0 1 1 22.5 0 22.53 22.53 0 0 1 45 22.5z" class="cls-1"/><path d="M116.2 37.7h-4.3a3.12 3.12 0 0 1-1.8-.4 1.68 1.68 0 0 1-.5-1.4V25.8h6.6a2.7 2.7 0 1 0 0-5.4h-6.5v-3.8c0-3.5-5.9-3.5-5.9 0v19.3a1.27 1.27 0 0 0 .1.6 7.1 7.1 0 0 0 1.9 4.3 7.87 7.87 0 0 0 5.6 2.1h4.9a2.8 2.8 0 0 0 2.9-2.6 3 3 0 0 0-3-2.6zm20.9-5.9a5.8 5.8 0 0 0-5.7-6.1 5.7 5.7 0 0 0-5.7 6v.1a5.8 5.8 0 0 0 5.7 6.1c3.5 0 5.7-2.8 5.7-6.1zm-5.8 11.5a11.43 11.43 0 0 1-11.8-11.4v-.1a11.8 11.8 0 0 1 23.6-.1v.1a11.45 11.45 0 0 1-11.8 11.5zM99.8 22.8c0-3.5-5.9-3.5-5.9 0v11.4c0 2.4-2.1 4.1-5.2 4.1s-5.2-1.7-5.2-4.1V22.8c0-3.5-5.9-3.5-5.9 0v10.3c0 5 3.8 10.1 11.1 10.1s11.1-5.1 11.1-10.1zM75.7 39.6S64.4 17.4 63.5 15.8c-1.1-1.9-5.1-2.3-6.5 0-1.1 1.8-11.7 23.8-11.7 23.8-1.4 3.3 4.8 5.2 6.4 1.9.2-.5 2.7-5.8 2.7-5.8l2.1-4.8 2.1-4.8a27.7 27.7 0 0 0 1.7-4.3h.1a37.68 37.68 0 0 0 1.6 4.3l1.9 4.6h-3a2.7 2.7 0 1 0 0 5.4h5.5c.6 1.2 2.4 5 2.6 5.4 1.7 3.4 8 1.5 6.7-1.9z" class="cls-2"/><path d="M32.9 17a5.4 5.4 0 1 0 5.4 5.4 5.18 5.18 0 0 0-5.4-5.4z" class="cls-3"/><path d="M32.9 32.1a9.4 9.4 0 0 1-9.6-9.6 9.6 9.6 0 1 1 19.2 0 9.4 9.4 0 0 1-9.6 9.6zM22.5 0A22.5 22.5 0 0 0 6.2 38h5.5c3.9 0 5.8-1.6 5.8-5v-2.5a9.37 9.37 0 0 1-5.5 1.6 9.4 9.4 0 0 1-9.6-9.6 9.46 9.46 0 0 1 9.6-9.6 9.44 9.44 0 0 1 5.5 1.7 1.5 1.5 0 0 1 1.5-1.2h1.3a1.54 1.54 0 0 1 1.5 1.5v17.9c0 5.6-2.9 8.8-8.4 9.3h-2.1A22.15 22.15 0 0 0 22.4 45a22.5 22.5 0 1 0 .1-45z" class="cls-4"/><path d="M12 17a5.4 5.4 0 1 0 0 10.8 5.3 5.3 0 0 0 5.4-5.4A5.18 5.18 0 0 0 12 17z" class="cls-3"/></svg>